<?xml version="1.0" encoding="utf-8"?>
<!-- Generator: Adobe Illustrator 16.0.0, SVG Export Plug-In . SVG Version: 6.00 Build 0)  -->
<!DOCTYPE svg PUBLIC "-//W3C//DTD SVG 1.1//EN" "http://www.w3.org/Graphics/SVG/1.1/DTD/svg11.dtd">
<svg version="1.1" id="Layer_1" xmlns="http://www.w3.org/2000/svg" xmlns:xlink="http://www.w3.org/1999/xlink" x="0px" y="0px"
	 width="1000px" height="1000px" viewBox="0 0 1000 1000" enable-background="new 0 0 1000 1000" xml:space="preserve">
<g>
	<path fill="#BA2457" d="M643.361,630.938c0,0,113.875,1.553,92.379-124.168c-15.051-88.01,58.126-75.877,58.126-75.877
		s76.239,15.909,33.396,129.529c-35.09,93.056-123.381,106.289-146.152,106.289L643.361,630.938z"/>
	<path fill="#28C2E4" d="M428.448,194.174c0,0-64.311-37.481-185.882-29.981c-121.575,7.493,62.172,97.441,62.172,97.441
		s-100.649-26.04-99.594,11.834c1.055,37.871,81.207,53.837,81.207,53.837s-85.959-19.213-80.686,25.018
		c5.272,44.229,55.216,40.996,55.216,40.996s-75.408-4.077-62.682,37.449c12.738,41.528,114.4,62.613,114.4,62.613L428.448,194.174z
		"/>
	<path fill="#BA2457" d="M335.977,774.133c0,0-83.458,55.583-28.27,74.661c55.2,19.077,96.326-53.696,83.531-92.448
		C378.437,717.596,335.977,774.133,335.977,774.133z"/>
	<path fill="#BA2457" d="M445.968,704.297c0,0-39.653,143.721,14.596,150.341c92.459,11.275,42.842-73.85,30.965-112.599
		C479.659,703.287,445.968,704.297,445.968,704.297z"/>
	<path fill="#BA2457" d="M572.018,704.297c0,0-29.944,149.438,48.865,144.371c42.987-2.765,54.735-50.083,11.228-61.199
		C595.483,778.11,572.018,704.297,572.018,704.297z"/>
	<path fill="#EF446F" d="M218.825,765.661c-22.07-204.21-4.163-365.203,196.024-621.318c0,0,420.122,67.671,275.32,621.318H218.825z
		"/>
	<path fill="#BA2457" d="M287.927,611.113c0,0-59.702-31.757-117.267,78.471c-51.094,97.848,92.328,120.056,97.035,51.146
		C274.943,634.614,322.229,630.17,287.927,611.113z"/>
	<g>
		<path fill="#DE3969" d="M645.867,395.03c42.363,61.437,26.894,145.582-34.539,187.944
			c-61.436,42.363-145.58,26.902-187.942-34.536c-42.366-61.437-26.898-145.583,34.534-187.945
			C519.357,318.131,603.501,333.593,645.867,395.03z"/>
		<path fill="#FFFFFF" d="M634.77,386.146c39.747,57.641,25.242,136.589-32.4,176.337c-57.647,39.747-136.595,25.239-176.344-32.404
			c-39.742-57.643-25.237-136.593,32.405-176.338C516.078,313.995,595.022,328.501,634.77,386.146z"/>
		<path fill="#461629" d="M614.662,380.369c18.464,26.771,11.726,63.438-15.046,81.898c-26.768,18.458-63.435,11.722-81.898-15.049
			c-18.455-26.772-11.718-63.438,15.05-81.896C559.541,346.862,596.208,353.6,614.662,380.369z"/>
		<path fill="#FFFFFF" d="M586.141,356.729c8.045,11.663,5.113,27.631-6.551,35.67c-11.665,8.042-27.631,5.107-35.67-6.553
			c-8.04-11.661-5.108-27.629,6.551-35.671C562.136,342.135,578.102,345.07,586.141,356.729z"/>
	</g>
	<path fill="#680D2D" d="M399.492,725.081l213.474,1.411c0,0,2.07-98.683-141.931-84.339
		C386.3,650.593,399.492,725.081,399.492,725.081z"/>
	<path fill="#DE3969" d="M388.3,374.699c0,0,48.417-83.485,142.719-81.012C531.02,293.688,428.735,268.74,388.3,374.699z"/>
	<path fill="#F2F2F2" d="M460.592,643.543c0,0-18.455,46.737,3.61,48.379c22.092,1.645,31.953-0.343,34.717-8.914
		c2.764-8.569-5.72-42.048-5.72-42.048S475.354,639.929,460.592,643.543z"/>
	<path fill="#F2F2F2" d="M546.722,646.826c0,0,17.072,42.926-4.993,44.566c-22.093,1.647-31.956-0.343-34.718-8.913
		c-2.758-8.571,5.457-40.979,5.457-40.979S530.4,642.274,546.722,646.826z"/>
</g>
</svg>
