<?xml version="1.0" encoding="utf-8"?>
<!-- Generator: Adobe Illustrator 16.0.0, SVG Export Plug-In . SVG Version: 6.00 Build 0)  -->
<!DOCTYPE svg PUBLIC "-//W3C//DTD SVG 1.1//EN" "http://www.w3.org/Graphics/SVG/1.1/DTD/svg11.dtd">
<svg version="1.1" id="Layer_1" xmlns="http://www.w3.org/2000/svg" xmlns:xlink="http://www.w3.org/1999/xlink" x="0px" y="0px"
	 width="1000px" height="1000px" viewBox="0 0 1000 1000" enable-background="new 0 0 1000 1000" xml:space="preserve">
<g>
	<path fill="#F8A02A" d="M343.522,722.682c0,0-23.266,43.773-9.495,124.921c0,0-30.012-39.507-55.632-6.409
		c0,0-19.87,38.437,22.099,44.842c41.961,6.409,74.583-17.081,74.583-17.081s-20.144-75.465,12.16-135.597L343.522,722.682z"/>
	<path fill="#F8A02A" d="M492.504,702.42c0,0,47.187,15.199,93.829,83.006c0,0-5.991-49.246,35.449-43.346
		c0,0,41.034,13.729,15.385,47.563c-25.642,33.832-65.41,39.695-65.41,39.695s-38.121-68.174-103.182-88.805L492.504,702.42z"/>
	<path fill="#F8A02A" d="M659.541,501.571c0,0,24.602,81.899,88.278,29.461c45.915-37.805,30.151-83.593,37.005-104.841
		c6.85-21.243,54.261-39.063,75.501-7.538c21.247,31.522,3.42,150.348-111.698,175.224
		c-115.125,24.87-145.275-20.358-145.275-20.358L659.541,501.571z"/>
	<path fill="#F8A02A" d="M285.717,606.672c0,0-75.304-40.52-83.257,41.585c-5.731,59.198,37.796,80.438,47.971,100.304
		c10.172,19.867-10.747,65.985-48.059,58.72c-37.311-7.269-108.735-103.897-44.917-202.892
		c63.816-98.988,117.118-88.332,117.118-88.332L285.717,606.672z"/>
	<path fill="#FBB623" d="M290.821,725.045c0,0-188.943-93.854-127.532-322.841C211.26,223.35,382.417,164.023,598.044,112.856
		v52.091l76.547-15.544v67.403l54.246,1.584l-46.116,89.931c0,0,96.623,333.722-151.445,426.231
		C420.178,775.987,337.187,751.526,290.821,725.045z"/>
	<g>
		<circle fill="#EAA124" cx="430.542" cy="491.461" r="136.029"/>
		<circle fill="#FFFFFF" cx="434.824" cy="477.754" r="127.63"/>
		<path fill="#422F17" d="M549.094,461.476c0,32.739-26.54,59.284-59.279,59.284c-32.732,0-59.271-26.545-59.271-59.284
			c0-32.73,26.54-59.271,59.271-59.271C522.555,402.204,549.094,428.745,549.094,461.476z"/>
		<path fill="#FFFFFF" d="M538.962,425.588c0,14.261-11.562,25.821-25.816,25.821c-14.256,0-25.817-11.561-25.817-25.821
			c0-14.262,11.561-25.816,25.817-25.816C527.4,399.771,538.962,411.326,538.962,425.588z"/>
	</g>
	<path fill="#E08827" d="M301.136,355.222c0,0,83.222-74.594,186.192-38.085C487.329,317.137,383.624,253.023,301.136,355.222z"/>
	<path fill="#F8A02A" d="M815.087,451.59c-8.634,3.722-15.278-3.797-22.387-8.689c-6.961-4.796-23.429-9.99-30.473-14.674
		c-16.771-11.139-11.475-25.768-3.876-31.414c9.481-7.056,31.267-6.773,45.146,12.418l10.879,15.334
		C823.368,436.215,822.945,448.202,815.087,451.59z"/>
	<path fill="#441325" d="M401.305,665.121l86.625-21.93C487.93,643.191,468.575,709.895,401.305,665.121z"/>
	<polygon fill="#F2F2F2" points="420.25,660.323 433.456,671.684 435.513,659.247 443.049,661.881 446.386,657.127 452.212,659.951 
		455.381,654.982 461.379,658.064 465.489,653.355 470.629,662.518 473.616,646.813 	"/>
	<path fill="#EAA124" d="M433.513,688.418c0,0,25.353,9.14,44.54-10.053C478.053,678.365,463.895,702.81,433.513,688.418z"/>
	<circle fill="#EAA124" cx="646.401" cy="357.205" r="21.929"/>
	<path fill="#EAA124" d="M616.934,304.558c0,9.266-7.517,16.787-16.792,16.787c-9.267,0-16.79-7.521-16.79-16.787
		c0-9.273,7.522-16.795,16.79-16.795C609.417,287.763,616.934,295.284,616.934,304.558z"/>
	<path fill="#EAA124" d="M612.049,394.111c0,9.769-7.924,17.688-17.693,17.688c-9.762,0-17.68-7.919-17.68-17.688
		c0-9.767,7.918-17.686,17.68-17.686C604.125,376.426,612.049,384.345,612.049,394.111z"/>
	<path fill="#EAA124" d="M654.913,439.226c0,18.381,14.901,33.283,33.279,33.283c4.51,0,8.805-0.905,12.726-2.53
		c0.79-21.863,0.051-42.846-1.488-62.049c-3.519-1.258-7.288-1.982-11.237-1.982C669.814,405.947,654.913,420.842,654.913,439.226z"
		/>
	<path fill="#FFFFFF" d="M479.479,489.601c0,6.541-5.306,11.854-11.845,11.854c-6.549,0-11.85-5.313-11.85-11.854
		c0-6.537,5.301-11.847,11.85-11.847C474.173,477.754,479.479,483.063,479.479,489.601z"/>
</g>
</svg>
