<?xml version="1.0" encoding="utf-8"?>
<!-- Generator: Adobe Illustrator 16.0.0, SVG Export Plug-In . SVG Version: 6.00 Build 0)  -->
<!DOCTYPE svg PUBLIC "-//W3C//DTD SVG 1.1//EN" "http://www.w3.org/Graphics/SVG/1.1/DTD/svg11.dtd">
<svg version="1.1" id="Layer_1" xmlns="http://www.w3.org/2000/svg" xmlns:xlink="http://www.w3.org/1999/xlink" x="0px" y="0px"
	 width="1000px" height="1000px" viewBox="0 0 1000 1000" enable-background="new 0 0 1000 1000" xml:space="preserve">
<g>
	<g>
		
			<radialGradient id="SVGID_1_" cx="499.9971" cy="440.1787" r="254.2315" gradientTransform="matrix(1 0 0 1.0488 0 22.0859)" gradientUnits="userSpaceOnUse">
			<stop  offset="0" style="stop-color:#ED75AC"/>
			<stop  offset="0.5" style="stop-color:#E90E8B"/>
			<stop  offset="1" style="stop-color:#CC198A"/>
		</radialGradient>
		<path fill="url(#SVGID_1_)" d="M499.996,767.225c171.285,0,170.826-148.984,170.826-148.984
			c26.709,73.859,65.563,58.063,65.563,58.063c-45.162-47.367-49.535-146.514-49.535-146.514c9.295,0,14.568,2.494,14.568,2.494
			c-5.461-43.17-27.482-86.553-27.482-86.553c28.385,27.152,63.182,12.445,63.182,12.445
			c-42.615-7.268-79.039-70.686-102.354-119.584c-23.305-48.9-44.436-58.072-44.436-58.072c79.4-5.344,83.043-55.775,83.043-55.775
			c-82.678,74.879-132.58,20.25-132.58,20.25c66.289,1.908,81.227-44.693,81.227-44.693c-55.348,43.797-93.512,31.295-99.934,28.691
			H477.91c-6.42,2.604-44.582,15.105-99.93-28.691c0,0,14.932,46.602,81.223,44.693c0,0-49.9,54.629-132.584-20.25
			c0,0,3.641,50.432,83.041,55.775c0,0-21.121,9.172-44.434,58.072c-23.303,48.898-59.732,112.316-102.35,119.584
			c0,0,34.795,14.707,63.184-12.445c0,0-22.025,43.383-27.49,86.553c0,0,5.283-2.494,14.576-2.494c0,0-4.381,99.146-49.541,146.514
			c0,0,38.852,15.797,65.561-58.063C329.166,618.24,328.715,767.225,499.996,767.225z"/>
		<path fill="#871D5B" d="M499.996,768.561v-1.336v-1.336c169.396-0.033,169.404-146.184,169.549-147.641l0,0
			c0.031-0.131-0.096-0.57,0.568-1.127l0,0c0.803-0.479,1.324-0.061,1.422,0l0,0l0.344,0.232l0.141,0.396
			c18.67,51.426,42.711,58.574,55.281,58.629l0,0c2.691,0,4.879-0.34,6.373-0.678l0,0c0.105-0.027,0.199-0.049,0.301-0.072l0,0
			c-44.252-48.615-48.348-145.654-48.402-145.773l0,0l-0.059-1.406h1.34c6.139,0.006,10.592,1.068,13.01,1.832l0,0
			c-2.883-20.686-9.469-41.34-15.424-56.963l0,0c-6.164-16.184-11.619-26.928-11.633-26.947l0,0l1.99-1.629
			c13.346,12.764,28.066,16.055,39.867,16.061l0,0c6.391,0.01,11.908-0.975,15.82-1.961l0,0c0.58-0.135,1.119-0.283,1.629-0.422l0,0
			c-41.492-11.221-75.934-72.092-98.494-119.238l0,0c-17.404-36.496-33.508-50.619-40.334-55.35l0,0
			c-2.27-1.57-3.441-2.072-3.445-2.072l0,0l0.406-2.58c59.158-4.051,75.439-32.91,80.105-46.908l0,0
			c0.521-1.576,0.887-2.963,1.146-4.1l0,0c-32.602,28.672-60.189,37.398-81.58,37.398l0,0
			c-32.084-0.021-49.936-19.529-50.051-19.641l0,0l-2.145-2.365l3.1,0.088c1.32,0.037,2.617,0.047,3.895,0.047l0,0
			c46.756-0.031,66.098-24.791,72.965-37.082l0,0c0.441-0.789,0.826-1.521,1.162-2.195l0,0
			c-31.723,23.945-57.676,29.553-74.93,29.541l0,0c-11.576,0-19.225-2.516-22.076-3.639l0,0h-43.697
			c-2.871,1.145-10.508,3.639-22.059,3.639l0,0c-17.254,0.012-43.219-5.607-74.934-29.543l0,0c0.33,0.674,0.721,1.408,1.15,2.197
			l0,0c2.289,4.104,5.963,9.58,11.588,15.07l0,0c11.246,10.969,30.197,22.002,61.385,22.012l0,0c1.271,0,2.57-0.018,3.906-0.047l0,0
			l3.084-0.078l-2.137,2.355c-0.119,0.111-17.971,19.625-50.057,19.641l0,0c-21.385,0-48.973-8.727-81.568-37.391l0,0
			c0.254,1.139,0.617,2.525,1.135,4.092l0,0c1.541,4.682,4.404,10.988,9.699,17.484l0,0c10.598,12.969,30.959,26.752,70.414,29.424
			l0,0l0.404,2.58c0.004,0.016-1.176,0.502-3.449,2.072l0,0c-2.281,1.576-5.578,4.197-9.617,8.346l0,0
			c-8.086,8.281-19.111,22.674-30.717,47.004l0,0c-22.553,47.133-56.988,107.996-98.461,119.232l0,0
			c3.902,1.094,10.07,2.398,17.418,2.398l0,0c11.795-0.016,26.523-3.314,39.869-16.07l0,0l1.99,1.629
			c-0.006,0.021-5.469,10.764-11.637,26.947l0,0c-5.949,15.623-12.533,36.277-15.42,56.963l0,0
			c2.416-0.764,6.867-1.826,13.018-1.826l0,0h1.34l-0.063,1.4c-0.059,0.119-4.15,97.152-48.398,145.766l0,0
			c1.484,0.355,3.758,0.758,6.668,0.758l0,0c12.561-0.055,36.609-7.209,55.283-58.629l0,0l0,0c0.014-0.035,0.031-0.078,0.055-0.111
			l0,0l1.322,0.609h1.094c0.139,1.457,0.156,147.607,169.549,147.641l0,0v1.336V768.561
			c-85.539,0.047-128.818-37.123-150.393-74.547l0,0c-16.525-28.604-20.469-57.24-21.414-69.537l0,0
			c-18.49,46.908-42.383,54.631-55.496,54.578l0,0c-5.811,0-9.443-1.465-9.545-1.494l0,0l-1.84-0.752l1.391-1.457
			c22.293-23.354,34.662-59.777,41.365-90.365l0,0c5.777-26.301,7.383-48.178,7.729-53.836l0,0c-3.898,0.105-6.973,0.66-9.123,1.191
			l0,0c-2.391,0.594-3.568,1.154-3.572,1.162l0,0l-2.102,0.984l0.307-2.377c4.318-34.066,18.797-68.082,24.889-81.273l0,0
			c-12.592,9.91-26,12.654-36.865,12.646l0,0c-13.277-0.006-22.832-4.035-22.924-4.076l0,0l-4.242-1.803l4.514-0.762
			c41.605-6.91,78.211-69.994,101.412-118.852l0,0c17.639-37.021,34.123-51.518,41.307-56.465l0,0
			c-37.254-3.348-57.313-16.928-68.002-30.025l0,0c-11.076-13.574-12.027-26.482-12.045-26.65l0,0l-0.229-3.242l2.342,2.121
			c33.453,30.283,61.338,39.146,82.609,39.152l0,0c23.289,0,38.811-10.641,45.094-15.93l0,0c0.24-0.201,0.457-0.387,0.66-0.561l0,0
			c-0.186,0-0.369,0-0.551,0l0,0c-63.641,0.029-78.502-45.428-78.51-45.666l0,0l-1.314-4.104l3.301,2.611
			c33.133,26.197,59.918,32.039,77.334,32.043l0,0c11.508,0,18.932-2.559,21.365-3.539l0,0l0.234-0.088h44.637l0.223,0.088
			c2.439,0.977,9.854,3.539,21.373,3.539l0,0c17.41-0.004,44.195-5.842,77.326-32.043l0,0l3.301-2.623l-1.311,4.115
			c-0.014,0.238-14.879,45.688-78.514,45.658l0,0c-0.178,0-0.357,0-0.539,0l0,0c2.053,1.793,5.385,4.41,9.957,7.049l0,0
			c8.188,4.715,20.256,9.443,35.783,9.443l0,0c21.277,0,49.156-8.857,82.617-39.146l0,0l2.342-2.121l-0.229,3.242
			c-0.016,0.168-0.971,13.076-12.049,26.65l0,0c-10.686,13.098-30.75,26.678-68,30.025l0,0c7.186,4.947,23.67,19.443,41.307,56.465
			l0,0c23.195,48.857,59.816,111.941,101.412,118.852l0,0l4.521,0.773l-4.242,1.791c-0.102,0.041-9.654,4.07-22.934,4.076l0,0
			c-10.863,0.008-24.27-2.736-36.855-12.646l0,0c6.092,13.207,20.563,47.207,24.881,81.273l0,0l0.303,2.381l-2.098-0.988
			c-0.004,0.006-1.178-0.568-3.572-1.162l0,0c-2.146-0.531-5.223-1.086-9.115-1.191l0,0c0.348,5.658,1.951,27.535,7.717,53.836l0,0
			c6.707,30.588,19.072,67.012,41.369,90.365l0,0l1.387,1.457l-1.828,0.752c-0.107,0.029-3.746,1.494-9.551,1.494l0,0
			c-13.119,0.053-37.016-7.666-55.502-54.59l0,0c-0.939,12.297-4.891,40.939-21.402,69.549l0,0
			c-21.578,37.406-64.816,74.557-150.279,74.547l0,0C500.08,768.561,500.033,768.561,499.996,768.561L499.996,768.561z"/>
	</g>
	<g>
		<linearGradient id="SVGID_2_" gradientUnits="userSpaceOnUse" x1="462.9053" y1="175.0264" x2="575.8828" y2="175.0264">
			<stop  offset="0" style="stop-color:#FEF6AB"/>
			<stop  offset="0.5" style="stop-color:#FDEE1C"/>
			<stop  offset="1" style="stop-color:#FFD700"/>
		</linearGradient>
		<path fill="url(#SVGID_2_)" d="M575.883,99.703c0,0-54.031-4.844-90.09,55.902c-34.238,58.063-19.916,81.877-19.916,81.877
			s34.119,29.158,75.035,0C540.912,237.482,497.209,165.406,575.883,99.703z"/>
		<path fill="#871D5B" d="M465.07,238.52l-0.166-0.141l-0.109-0.186c-0.111-0.188-3.174-5.398-3.17-16.531l0,0
			c0-13.309,4.354-35.006,23.078-66.766l0,0c31.404-52.924,76.451-56.652,88.303-56.633l0,0c1.895,0,2.949,0.086,2.984,0.098l0,0
			l-0.107,1.334l0.107-1.334l3.193,0.285l-2.512,2.096c-37,30.93-46.572,62.988-46.59,88.279l0,0
			c0,14.043,2.984,26.004,5.975,34.443l0,0c2.988,8.443,5.928,13.285,5.936,13.297l0,0l0.666,1.094l-1.029,0.727
			c-13.83,9.867-27.002,13.193-38.357,13.193l0,0C480.553,251.758,465.182,238.6,465.07,238.52L465.07,238.52z M476.783,242.744
			c6.443,3.178,15.615,6.348,26.488,6.348l0,0c10.613-0.002,22.857-3.004,35.926-12.02l0,0c-2.523-4.629-11.67-23.076-11.674-48.051
			l0,0c-0.021-25.377,9.531-57.449,44.852-88.074l0,0c-12.32,0.156-55.229,4.377-85.492,55.359l0,0
			c-18.559,31.459-22.707,52.674-22.707,65.355l0,0c0,7.951,1.633,12.572,2.4,14.309l0,0c0.123,0.275,0.215,0.471,0.277,0.602l0,0
			C467.637,237.195,471.127,239.953,476.783,242.744L476.783,242.744z"/>
	</g>
	<g>
		<g>
			<path fill="#1D0D17" d="M499.996,628.426c95.68,0,124.146-49.916,129.729-62.402c5.586-12.471,17.486-17.568,17.486-17.568
				c-9.477,0-17.367-7.842-24.521-12.484c-15.627-10.115-26.232-19.355-54.879-14.777c-28.658,4.594-50.15,18.979-50.15,18.979
				s-2.473,3.697-17.664,3.697c-15.184,0-17.668-3.697-17.668-3.697s-21.49-14.385-50.143-18.979
				c-28.652-4.578-39.26,4.662-54.877,14.777c-7.156,4.643-15.055,12.484-24.527,12.484c0,0,11.904,5.098,17.494,17.568
				C375.857,578.51,404.326,628.426,499.996,628.426z"/>
			<path fill="#871D5B" d="M499.996,629.771v-1.346v-1.346c95.23-0.051,123.084-49.5,128.57-61.627l0,0
				c3.801-8.445,10.254-13.58,14.352-16.168l0,0c-8.18-1.84-14.916-8.348-20.904-12.174l0,0
				c-12.906-8.35-21.92-15.766-40.273-15.785l0,0c-4.07,0-8.602,0.361-13.742,1.199l0,0c-14.178,2.266-26.607,6.971-35.49,11.104
				l0,0c-8.061,3.756-13.139,7.01-14.021,7.584l0,0c-0.936,1.021-4.729,3.99-18.49,3.996l0,0
				c-13.734-0.006-17.545-2.967-18.482-3.984l0,0c-0.869-0.572-5.951-3.826-14.029-7.596l0,0
				c-8.883-4.133-21.316-8.838-35.494-11.104l0,0c-5.137-0.822-9.672-1.199-13.74-1.191l0,0
				c-18.355,0.012-27.373,7.428-40.27,15.777l0,0c-5.99,3.826-12.723,10.334-20.91,12.174l0,0
				c4.102,2.588,10.555,7.723,14.355,16.168l0,0c5.484,12.127,33.344,61.576,128.57,61.627l0,0v1.346V629.771
				c-96.127,0.045-125.203-50.346-130.883-63.184l0,0c-2.668-5.967-6.881-10.205-10.439-12.951l0,0
				c-3.553-2.748-6.369-3.947-6.369-3.947l0,0l0.473-2.584c8.773,0.059,16.545-7.473,23.857-12.27l0,0
				c12.678-8.227,22.518-16.209,41.615-16.191l0,0c4.217,0,8.883,0.385,14.127,1.227l0,0c28.949,4.646,50.557,19.125,50.639,19.174
				l0,0l0.211,0.135l0.137,0.199l0,0c0.045,0.039,0.146,0.141,0.322,0.27l0,0c0.363,0.266,1.043,0.68,2.209,1.102l0,0
				c2.326,0.861,6.602,1.773,14.102,1.768l0,0c13.135,0.01,16.346-2.822,16.633-3.139l0,0l0,0l0.135-0.199l0.211-0.135
				c0.084-0.049,21.686-14.527,50.637-19.164l0,0c5.244-0.863,9.91-1.236,14.129-1.236l0,0c19.096-0.021,28.938,7.971,41.613,16.191
				l0,0c7.32,4.797,15.088,12.328,23.857,12.268l0,0l0.486,2.586c0.006,0.016-2.822,1.199-6.379,3.947l0,0
				c-3.559,2.746-7.771,6.984-10.432,12.951l0,0c-5.684,12.826-34.73,63.184-130.746,63.184l0,0
				C500.098,629.771,500.047,629.771,499.996,629.771L499.996,629.771z"/>
		</g>
		<g>
			<g>
				<path fill="#FFFFFF" d="M474.521,627.146l0.896-18.492c0.486-10.049-6.051-18.578-14.615-19.043l-20.662-1.096
					c-8.563-0.455-15.893,7.332-16.377,17.389l-0.402,8.375C436.963,620.248,453.799,624.982,474.521,627.146z"/>
				<path fill="#871D5B" d="M474.395,628.473c-20.838-2.172-37.793-6.932-51.529-12.959l0,0l-0.83-0.363l0.449-9.311
					c0.488-10.404,7.893-18.668,16.938-18.686l0,0c0.277,0,0.535,0.016,0.785,0.021l0,0l20.66,1.098
					c9.049,0.498,15.865,9.127,15.859,19.324l0,0c0,0.367-0.016,0.74-0.033,1.123l0,0l-0.898,18.49l-0.061,1.406L474.395,628.473
					L474.395,628.473z M474.521,627.146l0.127-1.338L474.521,627.146L474.521,627.146z M473.311,625.664l0.83-17.074
					c0.018-0.33,0.021-0.658,0.021-0.992l0,0c-0.004-8.988-5.965-16.27-13.418-16.643l0,0l-20.672-1.102
					c-0.238-0.014-0.449-0.027-0.65-0.027l0,0c-7.453-0.014-13.936,6.973-14.385,16.15l0,0l-0.361,7.424
					C437.729,619.021,453.732,623.502,473.311,625.664L473.311,625.664z"/>
			</g>
			<g>
				<path fill="#FFFFFF" d="M576.23,605.904c-0.482-10.057-7.814-17.844-16.379-17.389l-20.662,1.096
					c-8.557,0.465-15.098,8.994-14.611,19.043l0.889,18.492c20.73-2.17,37.563-6.898,51.168-12.867L576.23,605.904z"/>
				<path fill="#871D5B" d="M523.299,608.734c-0.029-0.395-0.031-0.77-0.031-1.137l0,0c-0.008-10.197,6.801-18.826,15.854-19.32l0,0
					l20.625-1.102c0.293-0.021,0.572-0.021,0.818-0.021l0,0c9.041,0.018,16.443,8.287,16.943,18.686l0,0l-1.277,0.064l-1.277,0.066
					c-0.443-9.166-6.932-16.158-14.389-16.145l0,0c-0.229,0-0.436,0-0.645,0.027l0,0l-20.672,1.102
					c-7.461,0.373-13.414,7.654-13.422,16.643l0,0c0,0.334,0.008,0.65,0.025,0.988l0,0l0.824,17.08
					c19.582-2.166,35.59-6.656,48.639-12.266l0,0l-0.361-7.43l1.277-0.066l1.277-0.064l0.453,9.311l-0.834,0.363
					c-13.729,6.027-30.689,10.791-51.533,12.959l0,0l-1.334,0.137L523.299,608.734L523.299,608.734z"/>
			</g>
		</g>
		<g>
			<g>
				<path fill="#FFFFFF" d="M404.811,552.113l19.73,3.891c8.18,1.605,16.193-4.875,17.914-14.479l3.113-17.383
					c-4.236-1.17-8.699-2.193-13.383-2.949c-17.74-2.834-28.563-0.365-37.938,4.33l-1.125,6.287
					C391.404,541.42,396.635,550.506,404.811,552.113z"/>
				<path fill="#871D5B" d="M424.303,557.32l-19.73-3.887l0.227-1.32l0.24-1.318l19.74,3.887c0.762,0.145,1.514,0.221,2.27,0.221
					l0,0c6.541,0.016,12.701-5.57,14.148-13.631l0,0l2.895-16.141c-3.859-1.029-7.895-1.93-12.098-2.605l0,0
					c-5.133-0.822-9.668-1.199-13.732-1.199l0,0c-9.551,0.008-16.531,2.02-22.873,5.107l0,0l-1.004,5.625
					c-0.213,1.156-0.314,2.289-0.314,3.41l0,0c0.008,7.613,4.541,14.07,10.969,15.326l0,0l-0.24,1.318l-0.232,1.32
					c-7.82-1.564-13.061-9.268-13.053-17.965l0,0c0-1.279,0.117-2.596,0.357-3.908l0,0l1.244-6.971l0.582-0.287
					c6.758-3.393,14.363-5.658,24.564-5.658l0,0c4.213,0,8.871,0.385,14.111,1.227l0,0c4.742,0.758,9.244,1.791,13.516,2.977l0,0
					l1.152,0.307l-3.326,18.613c-1.652,9.174-8.717,15.801-16.666,15.814l0,0c-0.023,0-0.059,0-0.082,0l0,0
					C426.088,557.582,425.199,557.486,424.303,557.32L424.303,557.32z"/>
			</g>
			<g>
				<path fill="#FFFFFF" d="M567.811,521.193c-4.688,0.756-9.143,1.779-13.379,2.949l3.107,17.383
					c1.719,9.604,9.738,16.084,17.912,14.479l19.738-3.891c8.172-1.607,13.396-10.693,11.684-20.303l-1.125-6.287
					C596.367,520.828,585.551,518.359,567.811,521.193z"/>
				<path fill="#871D5B" d="M556.281,541.768l-3.332-18.613l1.154-0.307c4.266-1.186,8.781-2.219,13.508-2.977l0,0
					c5.238-0.85,9.906-1.227,14.113-1.227l0,0c10.207,0,17.801,2.273,24.574,5.658l0,0l0.586,0.287l1.244,6.971
					c0.236,1.313,0.344,2.619,0.344,3.908l0,0c0.004,8.688-5.229,16.404-13.055,17.965l0,0l-19.738,3.887
					c-0.916,0.166-1.828,0.264-2.732,0.264l0,0C564.992,557.568,557.922,550.947,556.281,541.768L556.281,541.768z M558.795,541.271
					c1.443,8.061,7.604,13.646,14.152,13.631l0,0c0.75,0,1.498-0.076,2.266-0.221l0,0l19.738-3.887
					c6.42-1.256,10.955-7.713,10.971-15.326l0,0c0-1.131-0.102-2.275-0.309-3.41l0,0l-1.006-5.613
					c-6.342-3.092-13.332-5.111-22.883-5.119l0,0c-4.064,0-8.594,0.371-13.727,1.199l0,0c-4.209,0.676-8.242,1.568-12.092,2.605l0,0
					L558.795,541.271L558.795,541.271z"/>
			</g>
			<g>
				<path fill="#FFFFFF" d="M525.818,561.754l0.072-24.318c0-0.662-0.031-1.318-0.082-1.967c-5.182,2.725-8.148,4.703-8.148,4.703
					s-2.473,3.697-17.664,3.697c-15.184,0-17.668-3.697-17.668-3.697s-2.945-1.963-8.082-4.67c-0.051,0.594-0.08,1.176-0.08,1.783
					l-0.068,24.313c-0.025,10.072,6.902,18.252,15.471,18.281l20.689,0.061C518.83,579.959,525.801,571.818,525.818,561.754z"/>
				<path fill="#871D5B" d="M489.561,581.217c-9.371-0.068-16.748-8.895-16.74-19.566l0,0c0-0.033,0-0.057,0-0.08l0,0
					c0,0.008,0,0.008,0,0.025l0,0l0.064-24.324c0.004-0.641,0.033-1.275,0.088-1.893l0,0l0.166-1.963l1.68,0.877
					c5.184,2.74,8.174,4.727,8.197,4.752l0,0l0.211,0.135l0.137,0.199l0,0c0.045,0.039,0.146,0.148,0.322,0.27l0,0
					c0.363,0.266,1.035,0.674,2.201,1.102l0,0c2.328,0.861,6.613,1.77,14.109,1.77l0,0c13.135,0.008,16.346-2.824,16.629-3.141l0,0
					l0.004,0.006l0.135-0.205l0.211-0.135c0.027-0.025,3.031-2.029,8.258-4.779l0,0l1.676-0.885l0.17,1.973
					c0.059,0.654,0.094,1.338,0.094,2.045l0,0v0.037l-0.076,24.318c-0.023,10.684-7.438,19.5-16.813,19.52l0,0
					c0,0-0.018,0.01-0.029,0.01l0,0L489.561,581.217L489.561,581.217z M489.572,578.539l20.693,0.059l0.018-0.008
					c7.738,0.025,14.223-7.42,14.258-16.842l0,0l0.072-24.135c-3.445,1.877-5.58,3.246-6.127,3.6l0,0
					c-0.932,1.014-4.721,3.99-18.49,4l0,0c-13.779-0.01-17.568-2.986-18.496-4l0,0c-0.551-0.363-2.658-1.701-6.059-3.564l0,0
					l-0.063,24.02C475.393,571.068,481.84,578.523,489.572,578.539L489.572,578.539z"/>
			</g>
		</g>
	</g>
	<g>
		<path fill="#871D5B" d="M412.447,698.514c0,0,7.648,13.947,48.449,3.631C460.896,702.145,414.092,721.82,412.447,698.514z"/>
		<path fill="#871D5B" d="M451.971,709.918c0,0,4.369,16.424,32.656,13.234C484.627,723.152,450.393,733.346,451.971,709.918z"/>
		<g>
			
				<radialGradient id="SVGID_3_" cx="380.498" cy="739.7275" r="81.7687" gradientTransform="matrix(1 0 0 1.0488 0 22.0859)" gradientUnits="userSpaceOnUse">
				<stop  offset="0" style="stop-color:#ED75AC"/>
				<stop  offset="0.5" style="stop-color:#E90E8B"/>
				<stop  offset="1" style="stop-color:#CC198A"/>
			</radialGradient>
			<path fill="url(#SVGID_3_)" d="M430.295,708.066c0,0-51.721,115.947-55.908,120.334c-4.188,4.393-57.549,19.293-62.283,27.318
				s-8.197,24.631-5.285,25.398c2.914,0.77,16.938,3.828,30.598,1.92c0,0-6.189,7.635,14.02,7.443
				c20.215-0.195,47.717-2.676,57.006-9.168c9.291-6.492,3.463-22.346,4.738-38.006c1.27-15.668,41.154-112.893,42.066-125.508
				c0,0-3.58-10.943-6.986-12.146C444.865,704.428,430.295,708.066,430.295,708.066z"/>
			<path fill="#871D5B" d="M350.703,891.818c-6.045-0.01-9.729-0.701-12.078-1.803l0,0c-2.354-1.047-3.428-2.904-3.385-4.523l0,0
				c0.008-0.307,0.043-0.596,0.09-0.859l0,0c-2.479,0.242-4.932,0.352-7.322,0.352l0,0c-10.314-0.004-19.17-1.947-21.512-2.57l0,0
				c-1.969-0.807-1.936-2.662-2.029-4.557l0,0c0.031-5.814,2.852-16.529,6.545-22.852l0,0c2.449-3.791,10.941-7.404,21.322-11.557
				l0,0c10.334-4.043,22.318-8.119,30.785-11.326l0,0c5.58-2.051,9.855-4.023,10.355-4.682l0,0c0.217-0.16,1.625-2.584,3.389-6.109
				l0,0c1.803-3.563,4.158-8.451,6.883-14.178l0,0c5.43-11.482,12.285-26.389,19.016-41.156l0,0
				c13.447-29.529,26.35-58.447,26.377-58.508l0,0l0.264-0.584l0.594-0.156c0.057,0,10.682-2.682,16.197-2.688l0,0
				c0.945,0,1.744,0.053,2.482,0.318l0,0c2.541,1.057,4.066,4.252,5.506,7.209l0,0c1.357,2.969,2.271,5.75,2.277,5.777l0,0
				l0.084,0.262l-0.016,0.275c-0.568,6.906-10.73,34.039-20.986,61.982l0,0c-10.236,27.754-20.545,56.23-21.084,63.529l0,0
				c-0.143,1.635-0.195,3.301-0.195,4.941l0,0c-0.012,6.484,0.842,12.924,0.842,18.641l0,0c0.012,6.258-1.059,12.006-5.957,15.432
				l0,0c-9.982,6.848-37.33,9.139-57.723,9.391l0,0C351.182,891.82,350.947,891.818,350.703,891.818L350.703,891.818z
				 M338.389,883.902c0.004,0.004-0.133,0.154-0.289,0.473l0,0c-0.166,0.318-0.307,0.75-0.301,1.117l0,0
				c0.043,0.529,0.105,1.178,1.879,2.078l0,0c1.771,0.854,5.174,1.58,11.025,1.572l0,0c0.244,0,0.482-0.01,0.721,0l0,0
				c20.061-0.137,47.713-2.813,56.307-8.951l0,0c3.816-2.654,4.801-7.115,4.814-13.193l0,0c0.004-5.441-0.844-11.92-0.844-18.641
				l0,0c0-1.709,0.063-3.449,0.199-5.168l0,0c0.729-8.375,10.998-36.342,21.252-64.273l0,0
				c10.084-27.307,20.15-54.666,20.799-60.939l0,0c-0.254-0.734-1.025-2.938-2.074-5.225l0,0c-1.207-2.809-3.172-5.701-4.029-5.838
				l0,0c-0.23-0.092-0.865-0.189-1.654-0.189l0,0c-4.193-0.002-12.68,1.938-15.004,2.496l0,0
				c-3.455,7.727-39.936,89.354-52.074,113.371l0,0c-1.869,3.66-2.99,5.816-3.826,6.754l0,0c-1.238,1.217-3.672,2.25-7.346,3.771
				l0,0c-3.625,1.455-8.32,3.164-13.445,5.01l0,0c-10.236,3.684-22.227,7.926-30.75,11.789l0,0
				c-5.654,2.494-9.857,5.133-10.559,6.512l0,0c-3.373,5.627-6.201,16.439-6.16,21.43l0,0c-0.033,1.045,0.162,1.783,0.254,2.008l0,0
				c2.391,0.604,10.961,2.438,20.725,2.428l0,0c3.016,0.01,6.139-0.166,9.238-0.59l0,0l3.309-0.463L338.389,883.902L338.389,883.902
				z"/>
		</g>
		<g>
			<path fill="#871D5B" d="M336.475,882.021c3.008-1.553,9.318-6.793,15.043-13.002l0,0c5.994-6.486,11.348-8.768,11.467-8.816l0,0
				v0.002l0.957,2.486c0,0.012-1.174,0.492-3.125,1.777l0,0c-1.953,1.285-4.625,3.35-7.459,6.414l0,0
				c-5.922,6.391-12.182,11.656-15.729,13.539l0,0L336.475,882.021L336.475,882.021z"/>
		</g>
		<path fill="#871D5B" d="M322.666,871.387c-4.203-0.881-17.303,5.441-22.127,23.967
			C300.539,895.354,331.77,873.293,322.666,871.387z"/>
		<path fill="#871D5B" d="M369.447,880.887c-3.652-0.777-15.047,4.734-19.244,20.85
			C350.203,901.736,377.361,882.539,369.447,880.887z"/>
		<path fill="#871D5B" d="M591.266,698.514c0,0-7.656,13.947-48.449,3.631C542.816,702.145,589.623,721.82,591.266,698.514z"/>
		<path fill="#871D5B" d="M551.738,709.918c0,0-4.369,16.424-32.656,13.234C519.082,723.152,553.32,733.346,551.738,709.918z"/>
		<g>
			
				<radialGradient id="SVGID_4_" cx="623.2129" cy="739.7275" r="81.7682" gradientTransform="matrix(1 0 0 1.0488 0 22.0859)" gradientUnits="userSpaceOnUse">
				<stop  offset="0" style="stop-color:#ED75AC"/>
				<stop  offset="0.5" style="stop-color:#E90E8B"/>
				<stop  offset="1" style="stop-color:#CC198A"/>
			</radialGradient>
			<path fill="url(#SVGID_4_)" d="M573.414,708.066c0,0,51.721,115.947,55.908,120.334c4.191,4.393,57.549,19.293,62.285,27.318
				c4.74,8.025,8.193,24.631,5.283,25.398c-2.914,0.77-16.939,3.828-30.594,1.92c0,0,6.193,7.635-14.029,7.443
				c-20.213-0.195-47.711-2.676-57.002-9.168c-9.281-6.492-3.457-22.346-4.734-38.006c-1.268-15.668-41.156-112.893-42.064-125.508
				c0,0,3.58-10.943,6.982-12.146C558.844,704.428,573.414,708.066,573.414,708.066z"/>
			<path fill="#871D5B" d="M594.555,882.43c-4.893-3.426-5.971-9.174-5.953-15.432l0,0c0-5.717,0.84-12.156,0.84-18.641l0,0
				c0-1.641-0.051-3.307-0.188-4.945l0,0c-0.539-7.295-10.848-35.771-21.084-63.525l0,0c-10.26-27.943-20.424-55.076-20.988-61.982
				l0,0l-0.018-0.281l0.086-0.256c0.008-0.027,0.916-2.789,2.27-5.777l0,0c1.449-2.957,2.973-6.152,5.51-7.209l0,0
				c0.738-0.266,1.535-0.318,2.484-0.318l0,0c5.516,0.006,16.143,2.688,16.197,2.688l0,0l-0.301,1.316l0.301-1.316l0.598,0.152
				l0.268,0.588c0.018,0.053,9.893,22.193,21.377,47.518l0,0c11.49,25.332,24.566,53.818,30.895,66.324l0,0
				c1.758,3.525,3.166,5.949,3.377,6.109l0,0c0.34,0.441,2.932,1.787,6.453,3.174l0,0c3.564,1.426,8.238,3.131,13.363,4.971l0,0
				c10.236,3.688,22.248,7.936,30.93,11.857l0,0c5.814,2.691,10.057,4.932,11.725,7.563l0,0c3.695,6.322,6.506,17.037,6.541,22.844
				l0,0c-0.088,1.902-0.068,3.748-2.041,4.578l0,0c-2.332,0.609-11.191,2.553-21.5,2.557l0,0c-2.383,0-4.848-0.109-7.314-0.352l0,0
				c0.049,0.264,0.082,0.553,0.088,0.859l0,0c0.043,1.619-1.043,3.477-3.387,4.523l0,0c-2.35,1.102-6.039,1.793-12.086,1.803l0,0
				c-0.242,0-0.482,0.002-0.734,0.002l0,0C631.893,891.568,604.539,889.277,594.555,882.43L594.555,882.43z M570.555,778.916
				c10.258,27.932,20.52,55.898,21.254,64.273l0,0c0.139,1.719,0.188,3.459,0.188,5.168l0,0c-0.006,6.721-0.846,13.199-0.836,18.641
				l0,0c0.016,6.078,1.004,10.539,4.818,13.193l0,0c8.59,6.139,36.24,8.814,56.283,8.951l0,0c0.246-0.01,0.492,0,0.734-0.01l0,0
				c5.852,0.018,9.266-0.709,11.035-1.563l0,0c1.771-0.9,1.838-1.549,1.879-2.078l0,0c0.012-0.367-0.133-0.799-0.305-1.117l0,0
				c-0.156-0.324-0.285-0.479-0.285-0.479l0,0l-2.143-2.656l3.283,0.463c3.09,0.424,6.221,0.6,9.234,0.6l0,0
				c9.781,0,18.365-1.836,20.725-2.449l0,0c0.014-0.033,0.047-0.094,0.066-0.174l0,0c0.111-0.332,0.197-0.988,0.191-1.83l0,0
				c0.039-4.986-2.791-15.795-6.158-21.422l0,0c-1.107-2.234-9.844-6.572-20.045-10.465l0,0
				c-10.258-4.016-22.221-8.086-30.748-11.313l0,0c-5.754-2.217-9.713-3.76-11.309-5.305l0,0c-0.836-0.938-1.959-3.094-3.834-6.754
				l0,0c-1.82-3.607-4.188-8.508-6.91-14.246l0,0c-5.443-11.502-12.303-26.418-19.031-41.18l0,0
				c-12.328-27.064-24.211-53.664-26.123-57.943l0,0c-0.971-0.229-3.016-0.707-5.375-1.176l0,0
				c-3.287-0.666-7.191-1.322-9.631-1.322l0,0c-0.797,0-1.42,0.098-1.658,0.189l0,0c-0.852,0.137-2.824,3.029-4.021,5.838l0,0
				c-1.047,2.287-1.822,4.482-2.078,5.217l0,0C550.4,724.24,560.475,751.604,570.555,778.916L570.555,778.916z"/>
		</g>
		<g>
			<path fill="#871D5B" d="M650.354,870.883c-2.836-3.064-5.514-5.129-7.461-6.414l0,0c-1.947-1.285-3.117-1.777-3.117-1.777l0,0
				l0.953-2.488c0.115,0.049,5.469,2.33,11.461,8.816l0,0c5.729,6.209,12.037,11.449,15.043,13.002l0,0l-1.145,2.4
				C662.533,882.539,656.277,877.273,650.354,870.883L650.354,870.883z"/>
		</g>
		<path fill="#871D5B" d="M681.047,871.387c4.199-0.881,17.299,5.441,22.127,23.967
			C703.174,895.354,671.941,873.293,681.047,871.387z"/>
		<path fill="#871D5B" d="M634.264,880.887c3.652-0.777,15.043,4.734,19.242,20.85C653.506,901.736,626.348,882.539,634.264,880.887
			z"/>
	</g>
	<path opacity="0.2" fill="#010101" d="M427.777,338.59c-13.244,15.904-29.549,23.682-36.426,17.381
		c-6.865-6.279-1.711-24.277,11.543-40.186c13.238-15.891,29.545-23.674,36.414-17.389
		C446.18,304.695,441.014,322.688,427.777,338.59z"/>
	<path opacity="0.2" fill="#010101" d="M395.729,380.775c-3.971,4.77-8.854,7.105-10.91,5.215c-2.057-1.885-0.51-7.273,3.457-12.033
		c3.963-4.764,8.842-7.096,10.91-5.213C401.242,370.627,399.695,376.016,395.729,380.775z"/>
	<path opacity="0.2" fill="#010101" d="M622.174,496.65c-6.49-19.982-4.756-38.678,3.877-41.773
		c8.637-3.088,20.9,10.613,27.4,30.598c6.49,19.969,4.764,38.676-3.875,41.771C640.939,530.334,628.672,516.637,622.174,496.65z"/>
	<path opacity="0.2" fill="#010101" d="M639.875,442.572c-1.945-5.992-1.428-11.59,1.156-12.512
		c2.588-0.918,6.264,3.172,8.215,9.158c1.943,5.986,1.422,11.59-1.162,12.518C645.492,452.662,641.818,448.557,639.875,442.572z"/>
	<g>
		<path fill="#010101" d="M324.379,447.631c-0.555-0.459-0.656-1.307-0.215-1.889l0,0c8.105-10.855,14.744-27.668,14.746-27.695l0,0
			h0.012c0.264-0.688,1.01-1.006,1.662-0.727l0,0c0.65,0.281,0.967,1.07,0.693,1.756l0,0c-0.027,0.049-6.682,17-15.104,28.326l0,0
			c-0.25,0.338-0.627,0.512-1.008,0.512l0,0C324.891,447.914,324.613,447.82,324.379,447.631L324.379,447.631z"/>
	</g>
	<g>
		<g>
			
				<radialGradient id="SVGID_5_" cx="499.998" cy="361.9922" r="84.2559" gradientTransform="matrix(1 0 0 1.0488 0 22.0859)" gradientUnits="userSpaceOnUse">
				<stop  offset="0.7143" style="stop-color:#FFFFFF"/>
				<stop  offset="0.8309" style="stop-color:#FAFAF9"/>
				<stop  offset="0.8728" style="stop-color:#EDECEC"/>
				<stop  offset="0.9028" style="stop-color:#DDDBDB"/>
				<stop  offset="0.927" style="stop-color:#C8C6C5"/>
				<stop  offset="0.9477" style="stop-color:#B0ADAC"/>
				<stop  offset="0.9661" style="stop-color:#949190"/>
				<stop  offset="0.9827" style="stop-color:#777474"/>
				<stop  offset="0.9974" style="stop-color:#5A5A59"/>
				<stop  offset="1" style="stop-color:#555555"/>
			</radialGradient>
			<path fill="url(#SVGID_5_)" d="M584.254,401.756c0,48.805-37.725,88.373-84.258,88.373c-46.529,0-84.254-39.568-84.254-88.373
				c0-48.801,37.725-88.369,84.254-88.369C546.529,313.387,584.254,352.955,584.254,401.756z"/>
			<path fill="#871D5B" d="M414.465,401.752c0-49.549,38.295-89.707,85.531-89.713l0,0c47.236,0.006,85.533,40.164,85.533,89.713
				l0,0c0,49.549-38.297,89.713-85.533,89.721l0,0C452.76,491.465,414.465,451.301,414.465,401.752L414.465,401.752z
				 M417.012,401.752c0.09,48.064,37.16,86.943,82.984,87.029l0,0c45.822-0.086,82.891-38.965,82.984-87.029l0,0
				c-0.094-48.066-37.162-86.945-82.984-87.031l0,0C454.172,314.807,417.102,353.686,417.012,401.752L417.012,401.752z"/>
		</g>
		<g>
			
				<radialGradient id="SVGID_6_" cx="499.9961" cy="362.2324" r="36.1875" gradientTransform="matrix(1 0 0 1.0488 0 22.0859)" gradientUnits="userSpaceOnUse">
				<stop  offset="0.7912" style="stop-color:#46A8DF"/>
				<stop  offset="1" style="stop-color:#044862"/>
			</radialGradient>
			<path fill="url(#SVGID_6_)" d="M536.182,402.016c0,20.951-16.201,37.951-36.186,37.951c-19.988,0-36.186-17-36.186-37.951
				c0-20.965,16.197-37.963,36.186-37.963C519.98,364.053,536.182,381.051,536.182,402.016z"/>
			<path fill="#871D5B" d="M462.537,402.016c0-21.711,16.766-39.305,37.459-39.305l0,0c20.693,0,37.463,17.594,37.463,39.305l0,0
				c0,21.689-16.77,39.285-37.463,39.293l0,0C479.303,441.301,462.537,423.705,462.537,402.016L462.537,402.016z M465.088,402.016
				c0.041,20.205,15.627,36.566,34.908,36.609l0,0c19.273-0.043,34.871-16.404,34.908-36.609l0,0
				c-0.037-20.227-15.635-36.58-34.908-36.623l0,0C480.715,365.436,465.129,381.789,465.088,402.016L465.088,402.016z"/>
		</g>
	</g>
	<path fill="#010101" d="M521.686,402.004c0,13.1-10.131,23.725-22.623,23.725c-12.488,0-22.619-10.625-22.619-23.725
		c0-13.109,10.131-23.729,22.619-23.729C511.555,378.275,521.686,388.895,521.686,402.004z"/>
	<path fill="#FFFFFF" d="M520.961,421.982c0,5.357-4.137,9.693-9.248,9.693c-5.104,0-9.244-4.336-9.244-9.693
		c0-5.361,4.141-9.701,9.244-9.701C516.824,412.281,520.961,416.621,520.961,421.982z"/>
	<path fill="#FFFFFF" d="M527.01,388.822c0,7.051-5.455,12.762-12.176,12.762c-6.723,0-12.174-5.711-12.174-12.762
		c0-7.064,5.451-12.777,12.174-12.777C521.555,376.045,527.01,381.758,527.01,388.822z"/>
</g>
</svg>
