<?xml version="1.0" encoding="utf-8"?>
<!-- Generator: Adobe Illustrator 16.0.0, SVG Export Plug-In . SVG Version: 6.00 Build 0)  -->
<!DOCTYPE svg PUBLIC "-//W3C//DTD SVG 1.1//EN" "http://www.w3.org/Graphics/SVG/1.1/DTD/svg11.dtd">
<svg version="1.1" id="Layer_1" xmlns="http://www.w3.org/2000/svg" xmlns:xlink="http://www.w3.org/1999/xlink" x="0px" y="0px"
	 width="1000px" height="1000px" viewBox="0 0 1000 1000" enable-background="new 0 0 1000 1000" xml:space="preserve">
<g>
	<path fill="#80B541" d="M517.13,698.004c-0.822,0.568,62.095,71.883,12.378,141.361c0,0-25.171,30.041,3.794,33.643
		c28.965,3.59,56.304,15.168,62.294,4.387c5.991-10.783,1.614-35.537-27.762-41.992c0,0,29.923-66.547-17.357-137.398
		C548.077,694.414,535.325,685.547,517.13,698.004z"/>
	<path fill="#80B541" d="M394.138,741.223c0,0,37.004,45.93,14.912,55.309c-22.098,9.385-37.069-26.957-51.45-27.652
		c-14.376-0.701-45.523,41.83-33.539,60.4c11.978,18.566,30.637-31.148,44.667-16.775c14.033,14.377,51.163,37.139,71.531,10.783
		c20.364-26.355,3.594-82.66,0-84.457C436.668,737.035,394.138,741.223,394.138,741.223z"/>
	<path fill="#80B541" d="M629.498,622.682c112.904,10.592,157.81-67.74,157.81-67.74s-9.202-31.375,9.707-29.332
		c18.914,2.049,4.152,23.453,4.152,23.453s9.933-13.236,18.656-5.578c8.723,7.66-9.379,16.625-9.379,16.625
		s11.004,0.883,10.406,10.486c-0.602,9.604-20.61-0.357-20.61-0.357s-62.479,89.527-171.387,73.906L629.498,622.682z"/>
	<path fill="#A64C26" d="M273.65,120.895c0,0,32.782,89.898,105.088,81.98l-38.766,65.129c0,0-80.949-11.182-85.941-129.41
		C254.031,138.594,251.989,109.127,273.65,120.895z"/>
	<path fill="#A64C26" d="M681.838,161.521c0,0-36.023,57.914-108.329,49.994l31.824,53.473c0,0,80.961,3.016,96.123-85.764
		C701.456,179.225,703.498,149.758,681.838,161.521z"/>
	<path fill="#B0D239" d="M387.368,751.701c0,0-170.674,39.414-171.126-120.688c0,0-73.315-70.205-17.446-156.863
		c0,0-28.425-162.219,125.562-196.432c0,0,18.854-111.641,152.442-115.135c146.563-3.832,152.054,130.602,152.054,130.602
		s150.882,69.063,85.396,232.332c0,0,51.642,54.834-5.59,153.014c-56.144,96.305-143.867,92.41-206.729,81.141
		C501.93,759.672,436.296,802.904,387.368,751.701z"/>
	<g>
		<path fill="#93BC3F" d="M616.397,484.307c0,83.803-67.934,151.74-151.742,151.74c-83.799,0-151.736-67.938-151.736-151.74
			c0-83.801,67.938-151.738,151.736-151.738C548.464,332.568,616.397,400.506,616.397,484.307z"/>
		<path fill="#FFFFFF" d="M611.802,469.018c0,78.631-63.739,142.371-142.368,142.371c-78.627,0-142.361-63.74-142.361-142.371
			c0-78.629,63.734-142.363,142.361-142.363C548.063,326.654,611.802,390.389,611.802,469.018z"/>
		<path fill="#2F361B" d="M469.773,450.861c0,36.518-29.603,66.127-66.12,66.127c-36.516,0-66.12-29.609-66.12-66.127
			c0-36.516,29.604-66.119,66.12-66.119C440.171,384.742,469.773,414.346,469.773,450.861z"/>
		<path fill="#FFFFFF" d="M437.845,416.898c0,15.904-12.89,28.797-28.795,28.797c-15.904,0-28.801-12.893-28.801-28.797
			S393.146,388.1,409.05,388.1C424.955,388.1,437.845,400.994,437.845,416.898z"/>
	</g>
	<path fill="#80B541" d="M535.698,674.139c72.675,87.051,159.728,63.096,159.728,63.096s15.575-28.752,27.553-13.979
		s-13.581,19.566-13.581,19.566s16.375-2.396,17.177,9.184s-18.371,5.193-18.371,5.193s7.188,8.385,0,14.773
		c-7.185,6.393-14.373-14.773-14.373-14.773s-107.417,19.525-173.707-68.285L535.698,674.139z"/>
	<path fill="#CFDE55" d="M464.655,703.426c0,0,96.185,18.861,116.857-70.91C581.513,632.516,550.554,679.457,464.655,703.426z"/>
	<path fill="#FFFFFF" d="M414.012,494.662c0,5.723-4.636,10.355-10.358,10.355c-5.719,0-10.355-4.633-10.355-10.355
		s4.637-10.355,10.355-10.355C409.376,484.307,414.012,488.939,414.012,494.662z"/>
</g>
</svg>
