<?xml version="1.0" encoding="utf-8"?>
<!-- Generator: Adobe Illustrator 16.0.0, SVG Export Plug-In . SVG Version: 6.00 Build 0)  -->
<!DOCTYPE svg PUBLIC "-//W3C//DTD SVG 1.1//EN" "http://www.w3.org/Graphics/SVG/1.1/DTD/svg11.dtd">
<svg version="1.1" id="Layer_1" xmlns="http://www.w3.org/2000/svg" xmlns:xlink="http://www.w3.org/1999/xlink" x="0px" y="0px"
	 width="1000px" height="1000px" viewBox="0 0 1000 1000" enable-background="new 0 0 1000 1000" xml:space="preserve">
<g>
	<path fill-rule="evenodd" clip-rule="evenodd" fill="#DB7C29" d="M391.864,803.664h23.268V850.2v7.127v9.918h-57.272
		c0,0,22.184-18.129,34.005-25.077V803.664z"/>
	<polygon fill-rule="evenodd" clip-rule="evenodd" fill="#BA6228" points="404.488,803.664 415.132,803.664 415.132,850.2 
		415.132,857.327 415.132,867.245 404.488,867.245 	"/>
	<path fill-rule="evenodd" clip-rule="evenodd" fill="#698F3D" d="M232.397,277.459c-60.248,81.261-62.506,177.775-62.506,177.775
		c16.417-12.719,32.741-25.346,49.067-38.066c-17.313,62.778-33.552,177.596,20.115,223.506
		c4.417-27.146,8.934-54.208,13.349-81.265c-7.123,127.806,136.82,330.655,200.773,236.217
		c21.825-32.287,36.706-71.342,46.81-114.727c10.192,43.385,25.067,82.439,46.814,114.727
		c63.942,94.438,207.893-108.411,200.76-236.217c4.426,27.057,8.934,54.119,13.355,81.265
		c53.752-45.91,37.432-160.729,20.108-223.506c16.328,12.72,32.745,25.347,49.064,38.066c0,0-2.252-96.514-62.41-177.775
		C624.738,84.521,375.265,84.521,232.397,277.459L232.397,277.459z"/>
	<path fill-rule="evenodd" clip-rule="evenodd" fill="#7AC144" d="M232.397,277.459c-60.248,81.261-62.506,177.775-62.506,177.775
		c16.417-12.719,32.741-25.346,49.067-38.066c-17.313,62.778-33.552,177.596,20.115,223.506
		c4.417-27.146,8.934-54.208,13.349-81.265c-3.152,56.91,23.626,128.709,59.979,182.463c10.64,0.901,21.463,1.442,32.378,1.442
		c51.678,0,101.017-10.367,146.207-29.046c3.33-10.819,6.312-21.91,9.019-33.369c2.075,8.926,4.417,17.769,6.944,26.34
		c133.029-62.325,225.394-198.978,225.394-357.535c0-47.987-8.477-93.984-23.992-136.468
		C562.959,87.683,357.138,109.053,232.397,277.459L232.397,277.459z"/>
	<path fill-rule="evenodd" clip-rule="evenodd" fill="#532A15" d="M392.04,290.624c22.373,0,40.497,18.132,40.497,40.411
		c0,22.364-18.124,40.497-40.497,40.497c-22.366,0-40.496-18.133-40.496-40.497C351.544,308.756,369.674,290.624,392.04,290.624
		L392.04,290.624z"/>
	<path fill-rule="evenodd" clip-rule="evenodd" fill="#698F3D" d="M432.083,337.164c0.278,1.895,0.454,3.965,0.454,6.045
		c0,22.366-18.124,40.493-40.497,40.493c-22.366,0-40.496-18.127-40.496-40.493c0-2.08,0.179-4.15,0.454-6.045
		c2.977,19.484,19.753,34.369,40.042,34.369C412.337,371.532,429.2,356.648,432.083,337.164L432.083,337.164z"/>
	<path fill-rule="evenodd" clip-rule="evenodd" fill="#FFFFFF" d="M382.3,306.952c9.29,0,16.778,7.479,16.778,16.775
		c0,9.193-7.488,16.683-16.778,16.683c-9.199,0-16.681-7.489-16.681-16.683C365.619,314.432,373.101,306.952,382.3,306.952
		L382.3,306.952z"/>
	<path fill-rule="evenodd" clip-rule="evenodd" fill="#698F3D" d="M504.874,454.053c79.553,0,144.129,1.813,144.129,4.065
		c0,2.255-64.576,4.056-144.129,4.056c-79.551,0-144.042-1.801-144.042-4.056C360.832,455.866,425.323,454.053,504.874,454.053
		L504.874,454.053z"/>
	<path fill-rule="evenodd" clip-rule="evenodd" fill="#FFFFFF" d="M419.006,458.118c0-4.782-20.018-57.002-20.018-57.002
		l-20.384,57.002H419.006z"/>
	<path fill-rule="evenodd" clip-rule="evenodd" fill="#E5E5E5" d="M419.006,458.118c0-4.782-20.018-57.002-20.018-57.002
		l-1.173,57.002H419.006z"/>
</g>
</svg>
