<?xml version="1.0" encoding="utf-8"?>
<!-- Generator: Adobe Illustrator 16.0.0, SVG Export Plug-In . SVG Version: 6.00 Build 0)  -->
<!DOCTYPE svg PUBLIC "-//W3C//DTD SVG 1.1//EN" "http://www.w3.org/Graphics/SVG/1.1/DTD/svg11.dtd">
<svg version="1.1" id="Layer_1" xmlns="http://www.w3.org/2000/svg" xmlns:xlink="http://www.w3.org/1999/xlink" x="0px" y="0px"
	 width="1000px" height="1000px" viewBox="0 0 1000 1000" enable-background="new 0 0 1000 1000" xml:space="preserve">
<g>
	<g>
		<linearGradient id="SVGID_1_" gradientUnits="userSpaceOnUse" x1="390.3594" y1="289.6938" x2="390.3594" y2="137.8018">
			<stop  offset="0" style="stop-color:#F17E5F"/>
			<stop  offset="0.5" style="stop-color:#EB2227"/>
			<stop  offset="1" style="stop-color:#CF232B"/>
		</linearGradient>
		<path fill="url(#SVGID_1_)" d="M400.857,137.81c0,0-23.447,7.579-24.168,41.497c-0.844,39.129,37.723,55.337,69.58,44.435
			c0,0,0.836,36.89-8.385,44.708c-9.225,7.829-20.119,15.655-27.385,17.33c-7.262,1.677-29.619,3.914-29.619,3.914
			s-41.922-8.948-46.111-55.05C329.945,181.569,377.805,137.108,400.857,137.81z"/>
		<path fill="#B97B2A" d="M380.578,291.134c-0.139-0.011-42.943-9.208-47.277-56.359l0,0c-0.242-2.563-0.355-5.111-0.355-7.627l0,0
			c0.229-50.165,43.875-90.544,67.359-90.822l0,0c0.176,0,0.4-0.004,0.658,0.021l0,0l-0.105,1.463l0.105-1.463l0.34,2.865
			c0.004,0.008-1.299,0.413-3.41,1.593l0,0c-2.102,1.187-4.938,3.109-7.793,6.061l0,0c-5.711,5.903-11.572,15.845-11.945,32.484l0,0
			c-0.014,0.404-0.018,0.806-0.018,1.206l0,0c0.029,29.418,23.064,44.939,48.145,45.023l0,0c6.527,0,13.148-1.066,19.512-3.234l0,0
			l1.898-0.647l0.045,2.014c0,0.004,0.018,0.89,0.021,2.393l0,0c-0.004,4.177-0.152,13.15-1.289,21.977l0,0
			c-1.209,8.843-3.102,17.488-7.629,21.495l0,0c-9.332,7.879-20.176,15.774-28.01,17.637l0,0c-7.5,1.731-29.762,3.935-29.807,3.946
			l0,0l-0.232,0.02L380.578,291.134L380.578,291.134z M360.184,164.939c-13.531,15.968-24.297,38.015-24.295,62.209l0,0
			c0,2.431,0.115,4.89,0.344,7.356l0,0c3.084,33.841,26.814,47.077,38.564,51.698l0,0c3.236,1.264,5.48,1.839,6.168,1.997l0,0
			c2.4-0.243,22.59-2.316,29.195-3.853l0,0c6.701-1.498,17.66-9.246,26.768-17.018l0,0c3.27-2.631,5.574-11.024,6.623-19.625l0,0
			c1.115-8.613,1.268-17.499,1.268-21.598l0,0c0-0.12,0-0.239,0-0.351l0,0c-6.08,1.861-12.354,2.771-18.537,2.771l0,0
			c-13.125-0.007-25.873-4.139-35.381-12.231l0,0c-9.52-8.087-15.725-20.19-15.709-35.736l0,0c0-0.444,0.006-0.864,0.021-1.279l0,0
			c0.453-22.035,10.377-33.365,17.623-38.698l0,0C383.066,143.724,370.729,152.426,360.184,164.939L360.184,164.939z"/>
	</g>
	<g>
		<linearGradient id="SVGID_2_" gradientUnits="userSpaceOnUse" x1="609.6348" y1="289.6938" x2="609.6348" y2="137.8018">
			<stop  offset="0" style="stop-color:#F17E5F"/>
			<stop  offset="0.5" style="stop-color:#EB2227"/>
			<stop  offset="1" style="stop-color:#CF232B"/>
		</linearGradient>
		<path fill="url(#SVGID_2_)" d="M599.127,137.81c0,0,23.449,7.579,24.172,41.497c0.848,39.129-37.719,55.337-69.576,44.435
			c0,0-0.844,36.89,8.383,44.708c9.225,7.829,20.115,15.655,27.387,17.33c7.258,1.677,29.613,3.914,29.613,3.914
			s41.93-8.948,46.125-55.05C670.043,181.569,622.182,137.108,599.127,137.81z"/>
		<path fill="#B97B2A" d="M618.955,291.154c-0.039-0.008-22.311-2.219-29.791-3.945l0,0c-7.85-1.855-18.682-9.755-28.014-17.634l0,0
			c-4.535-3.99-6.436-12.627-7.635-21.455l0,0c-1.143-8.822-1.291-17.785-1.291-21.975l0,0c0-1.54,0.025-2.434,0.025-2.445l0,0
			l0.051-2l1.893,0.646c6.342,2.167,12.969,3.232,19.496,3.232l0,0c25.074-0.083,48.119-15.597,48.148-45.02l0,0
			c0-0.407-0.008-0.82-0.008-1.223l0,0c-0.57-24.898-13.43-34.937-19.752-38.531l0,0c-2.104-1.18-3.402-1.593-3.41-1.593l0,0
			l0.33-2.865c0.264-0.025,0.48-0.021,0.658-0.025l0,0c23.492,0.282,67.148,40.661,67.369,90.833l0,0
			c0,2.518-0.105,5.056-0.344,7.62l0,0c-4.328,47.151-47.135,56.352-47.277,56.352l0,0l-0.23,0.051L618.955,291.154L618.955,291.154
			z M555.172,226.145c-0.006,4.118,0.146,12.997,1.262,21.594l0,0c1.043,8.595,3.348,16.958,6.617,19.589l0,0
			c9.121,7.777,20.066,15.52,26.768,17.018l0,0c6.598,1.537,26.738,3.61,29.182,3.853l0,0c0.676-0.158,2.936-0.725,6.189-1.997l0,0
			c3.898-1.514,9.166-4.026,14.537-7.941l0,0c10.75-7.834,21.961-21.144,24.033-43.757l0,0c0.215-2.462,0.318-4.918,0.318-7.349l0,0
			c0.012-24.199-10.75-46.245-24.293-62.216l0,0c-10.541-12.506-22.879-21.199-32.643-24.36l0,0
			c7.25,5.341,17.17,16.668,17.627,38.698l0,0c0.016,0.43,0.016,0.855,0.016,1.283l0,0c0.006,15.544-6.201,27.658-15.719,35.737l0,0
			c-9.516,8.091-22.264,12.219-35.377,12.219l0,0c-6.189,0-12.461-0.905-18.518-2.763l0,0
			C555.172,225.881,555.172,226.011,555.172,226.145L555.172,226.145z"/>
	</g>
	<g>
		<radialGradient id="SVGID_3_" cx="499.9932" cy="438.7842" r="258.5366" gradientUnits="userSpaceOnUse">
			<stop  offset="0" style="stop-color:#FEE7A3"/>
			<stop  offset="0.5" style="stop-color:#FFCB0A"/>
			<stop  offset="1" style="stop-color:#F8AC1C"/>
		</radialGradient>
		<path fill="url(#SVGID_3_)" d="M568.172,197.124c0,0-33.746,13.834,24.947,55.685c0,0,3.631-0.846,6.992-7.271
			c0,0,40.512,50.584,66.232,66.797c25.703,16.205,45.547,31.016,51.418,69.861c0,0-3.146-16.354-19.912-25.575
			c-16.773-9.221-37.1-20.537-43.598-35.838c0,0,17.4,124.709,87.82,160.336c0,0-28.922,12.992-57.004-20.957
			c0,0,70.732,252.628-185.072,252.628c-255.811,0-185.068-252.628-185.068-252.628c-28.086,33.949-57.014,20.957-57.014,20.957
			c70.424-35.627,87.824-160.336,87.824-160.336c-6.506,15.301-26.83,26.617-43.596,35.838s-19.904,25.575-19.904,25.575
			c5.867-38.846,25.707-53.656,51.414-69.861c25.705-16.212,66.232-66.797,66.232-66.797c3.344,6.425,6.977,7.271,6.977,7.271
			c27.949-18.446,30.605-44.02,30.605-44.02c6.57,2.649,8.527,8.522,8.527,8.522c29.617-44.426,80.477-52.533,80.477-52.533
			s-15.996,8.248-22.074,30.251c0,0,12.15-16.35,49.887-14.886c0,0-15.039,3.917-19.506,16.212
			C534.777,196.355,546.578,180.982,568.172,197.124z"/>
		<path fill="#B97B2A" d="M499.996,714.261c-82.652,0.024-131.727-26.344-159.951-62.26l0,0
			c-28.221-35.9-35.564-81.065-35.568-118.548l0,0c0.004-30.952,5.021-56.711,7.576-67.818l0,0
			c-14.855,15.7-29.789,19.41-40.25,19.387l0,0c-8.744,0-14.359-2.512-14.49-2.561l0,0l-2.805-1.262l2.736-1.399
			c34.637-17.483,56.531-57.232,69.605-92.723l0,0c9.104-24.653,13.977-47.138,16.098-58.576l0,0
			c-9.066,12.345-25.949,21.576-40.104,29.409l0,0c-8.086,4.448-12.867,10.599-15.654,15.666l0,0
			c-2.783,5.051-3.508,8.89-3.508,8.894l0,0l-2.902-0.496c5.875-39.338,26.352-54.727,52.088-70.892l0,0
			c12.584-7.926,29.152-24.589,42.455-39.221l0,0c13.301-14.63,23.385-27.216,23.404-27.247l0,0l1.412-1.761l1.041,2.005
			c2.248,4.297,4.514,5.794,5.506,6.297l0,0c13.324-8.973,20.625-19.543,24.631-27.917l0,0c4.063-8.495,4.682-14.591,4.682-14.609
			l0,0l0.205-1.936l1.811,0.726c4.391,1.79,6.889,4.838,8.18,6.975l0,0c30.225-43.166,79.889-51.028,80.039-51.063l0,0l0.906,2.757
			c0,0.009-0.885,0.456-2.424,1.525l0,0c-1.523,1.079-3.656,2.74-5.957,5.071l0,0c-3.795,3.839-8.086,9.473-11.143,17.313l0,0
			c6.061-4.622,18.914-11.444,41.957-11.422l0,0c1.527,0,3.123,0.029,4.77,0.1l0,0l0.309,2.889c0,0.025-3.563,0.928-7.707,3.343l0,0
			c-2.361,1.37-4.85,3.203-6.939,5.57l0,0c2.455-1.23,5.604-2.197,9.43-2.21l0,0c5.385-0.001,11.998,1.966,19.619,7.675l0,0
			l-0.881,1.179l0.881-1.179l2.092,1.552l-2.418,0.993c0,0.007-0.488,0.195-1.322,0.683l0,0c-0.832,0.48-1.953,1.239-3.059,2.267
			l0,0c-2.219,2.085-4.357,5.18-4.357,9.724l0,0c-0.064,7.828,6.676,20.873,33.338,39.981l0,0c0.283-0.144,0.676-0.373,1.133-0.728
			l0,0c1.15-0.882,2.75-2.512,4.34-5.563l0,0l1.047-1.986l1.41,1.751c0.029,0.031,10.104,12.616,23.408,27.247l0,0
			c13.303,14.632,29.863,31.295,42.463,39.221l0,0c25.729,16.165,46.203,31.554,52.088,70.892l0,0l-2.9,0.496
			c-0.037,0-0.732-3.839-3.516-8.894l0,0c-2.787-5.067-7.572-11.218-15.67-15.666l0,0c-14.141-7.827-31.02-17.062-40.08-29.396l0,0
			c0.59,3.196,1.402,7.253,2.455,11.99l0,0c2.723,12.198,7.08,28.843,13.627,46.573l0,0c13.082,35.491,34.967,75.24,69.609,92.723
			l0,0l2.752,1.392l-2.816,1.269c-0.135,0.049-5.752,2.561-14.492,2.57l0,0c-10.473,0.02-25.408-3.696-40.252-19.4l0,0
			c2.549,11.102,7.564,36.859,7.57,67.813l0,0c-0.006,37.476-7.348,82.655-35.568,118.558l0,0
			c-28.211,35.907-77.256,62.26-159.844,62.26l0,0C500.063,714.261,500.021,714.261,499.996,714.261L499.996,714.261z
			 M316.342,460.554c0.025,0.078-8.918,31.849-8.918,72.898l0,0c0.211,74.3,28.656,177.706,192.572,177.862l0,0
			c163.895-0.156,192.346-103.571,192.559-177.872l0,0c0-20.52-2.23-38.753-4.459-51.864l0,0
			c-2.234-13.105-4.445-21.004-4.457-21.024l0,0l2.557-1.333c15.668,18.909,31.314,22.835,41.988,22.859l0,0
			c4.078,0,7.434-0.588,9.75-1.171l0,0c0.145-0.035,0.287-0.072,0.426-0.113l0,0c-68.883-38.321-85.443-159.705-85.566-159.813l0,0
			l2.816-0.778c6.088,14.562,26.162,25.949,42.939,35.123l0,0c7.051,3.892,11.785,8.98,14.908,13.657l0,0
			c-7.967-28.554-25.459-41.206-47.9-55.413l0,0c-23.33-14.746-57.996-56.579-65.238-65.449l0,0c-3.225,5.1-6.551,6.063-6.863,6.116
			l0,0l-0.65,0.148L592.262,254c-27.412-19.577-35.154-33.19-35.221-42.843l0,0c0.072-7.899,5.268-12.299,8.348-14.212l0,0
			c-6.4-4.349-11.709-5.729-15.955-5.729l0,0c-4.441,0-7.818,1.522-10.105,3.055l0,0c-2.281,1.525-3.393,2.973-3.393,2.973l0,0
			l-2.545-1.395c2.729-7.345,8.73-11.785,13.539-14.303l0,0c-23.432,0.564-34.953,8.394-39.289,12.234l0,0
			c-1.49,1.338-2.063,2.123-2.063,2.123v0.001l-2.602-1.265c3.789-13.687,11.293-22.196,16.664-26.794l0,0
			c-5.209,1.377-12.9,3.816-21.693,7.875l0,0c-16.24,7.494-36.119,20.485-50.729,42.403l0,0l-1.68,2.513l-0.949-2.865
			c-0.021,0.004-0.395-1.233-1.588-2.863l0,0c-0.949-1.305-2.359-2.792-4.402-3.949l0,0c-1.271,6.505-7.105,27.337-30.926,43.076
			l0,0l-0.529,0.351l-0.611-0.146c-0.322-0.052-3.652-1.016-6.865-6.113l0,0c-7.26,8.886-41.92,50.708-65.24,65.447l0,0
			c-22.436,14.208-39.93,26.859-47.896,55.422l0,0c3.115-4.682,7.844-9.774,14.895-13.666l0,0
			c16.777-9.174,36.855-20.562,42.955-35.123l0,0l2.813,0.778c-0.115,0.108-16.68,121.488-85.551,159.813l0,0
			c0.131,0.035,0.264,0.074,0.404,0.105l0,0c2.322,0.59,5.67,1.179,9.756,1.175l0,0c10.666-0.02,26.313-3.938,41.984-22.855l0,0
			L316.342,460.554L316.342,460.554z"/>
	</g>
	<g>
		<path fill="#B97B2A" d="M380.953,469.801c0,0-17.822-3.137-26-11.737c0,0,1.057,11.944,9.221,23.271c0,0-2.246-3.989-1.73-13.308
			C362.443,468.027,369.211,471.165,380.953,469.801z"/>
		<g>
			<path fill="#FFFFFF" d="M570.102,508.304c1.723-10.524,2.744-32.334-10.797-60.299c0,0,28.877,18.625,36.631,51.312
				C589.064,502.567,574.246,507.144,570.102,508.304z"/>
			<path fill="#B97B2A" d="M568.646,508.06c0.51-3.144,0.959-7.332,0.959-12.423l0,0c0-11.572-2.338-27.792-11.633-46.996l0,0
				l-2.26-4.694l4.387,2.813c0.117,0.108,29.299,18.844,37.27,52.213l0,0l0.264,1.159l-1.072,0.512
				c-7.09,3.341-21.836,7.889-26.07,9.071l0,0l-2.217,0.619L568.646,508.06L568.646,508.06z M571.549,508.534l-1.451-0.23
				L571.549,508.534L571.549,508.534z M572.545,495.637c0,4.125-0.285,7.683-0.662,10.608l0,0c5.396-1.606,16.262-5.077,22.33-7.763
				l0,0c-3.941-15.441-12.705-27.668-20.582-36.08l0,0c-4.049-4.328-7.846-7.625-10.619-9.837l0,0
				C570.539,469.931,572.549,484.743,572.545,495.637L572.545,495.637z"/>
		</g>
		<g>
			<path fill="#FFFFFF" d="M542.752,486.15l-7.967,28.78c8.188-0.962,15.768-2.199,22.785-3.652L542.752,486.15z"/>
			<path fill="#B97B2A" d="M541.332,485.752l0.92-3.33l17.629,29.873l-2.018,0.416c-7.059,1.477-14.688,2.709-22.908,3.68l0,0
				l-2.176,0.256L541.332,485.752L541.332,485.752z M536.793,513.2c6.545-0.823,12.691-1.816,18.447-2.953l0,0l-12-20.368
				L536.793,513.2L536.793,513.2z M541.477,486.889l1.268-0.741L541.477,486.889L541.477,486.889z"/>
		</g>
		<path fill="#B97B2A" d="M619.043,469.801c0,0,17.816-3.137,25.992-11.737c0,0-1.049,11.944-9.23,23.271
			c0,0,2.256-3.989,1.734-13.308C637.539,468.027,630.775,471.165,619.043,469.801z"/>
		<g>
			<path fill="#FFFFFF" d="M429.836,508.304c-1.729-10.524-2.736-32.334,10.791-60.299c0,0-28.867,18.625-36.627,51.312
				C410.873,502.567,425.674,507.144,429.836,508.304z"/>
			<path fill="#B97B2A" d="M429.432,509.727c-4.232-1.195-18.979-5.743-26.063-9.08l0,0l-1.074-0.515l0.271-1.159
				c7.971-33.374,37.145-52.109,37.26-52.205l0,0l4.414-2.85l-2.299,4.723c-9.299,19.204-11.631,35.428-11.631,46.996l0,0
				c0,5.091,0.457,9.279,0.971,12.423l0,0l-1.445,0.244l0.393-1.422l-0.393,1.422l1.445-0.244l0.381,2.277L429.432,509.727
				L429.432,509.727z M428.041,506.245c-0.383-2.925-0.674-6.483-0.674-10.608l0,0c0-10.889,2.002-25.685,9.527-43.05l0,0
				c-2.773,2.215-6.559,5.498-10.605,9.822l0,0c-7.877,8.405-16.625,20.632-20.566,36.081l0,0
				C411.793,501.163,422.637,504.639,428.041,506.245L428.041,506.245z"/>
		</g>
		<g>
			<path fill="#FFFFFF" d="M457.182,486.15l7.969,28.78c-8.186-0.962-15.773-2.199-22.779-3.652L457.182,486.15z"/>
			<path fill="#B97B2A" d="M464.969,516.391c-8.217-0.97-15.857-2.215-22.896-3.68l0,0l-2.01-0.416l15.854-26.897l1.752-2.992
				l9.48,34.247L464.969,516.391L464.969,516.391z M463.141,513.2l-6.453-23.315l-12,20.362
				C450.447,511.383,456.598,512.384,463.141,513.2L463.141,513.2z"/>
		</g>
		<g>
			<path fill="#B97B2A" d="M361.158,468.747l2.566-1.448c0.035-0.006,1.545,2.774,5.676,7.16l0,0
				c4.145,4.374,10.826,10.274,20.965,16.243l0,0c20.27,11.921,54.381,24.154,109.609,24.996l0,0
				c82.9-1.274,118.193-28.114,130.604-41.239l0,0c4.139-4.385,5.672-7.145,5.672-7.16l0,0l0.008,0.009l2.563,1.436
				c-0.174,0.404-27.436,48.256-138.846,49.891l0,0C388.609,517,361.334,469.147,361.158,468.747L361.158,468.747z"/>
		</g>
	</g>
	<g>
		<path fill="#FFFFFF" d="M587.184,366.894c0,29.745-39.031,53.864-87.188,53.864c-48.15,0-87.189-24.119-87.189-53.864
			c0-29.748,39.039-53.867,87.189-53.867C548.152,313.027,587.184,337.146,587.184,366.894z"/>
		<path fill="#B97B2A" d="M411.33,366.894c0.217-31.177,40.133-55.301,88.666-55.348l0,0c48.533,0.047,88.436,24.171,88.652,55.348
			l0,0c-0.217,31.17-40.119,55.291-88.652,55.334l0,0C451.463,422.184,411.547,398.064,411.33,366.894L411.33,366.894z
			 M439.113,330.055c-15.52,9.592-24.848,22.651-24.846,36.839l0,0c-0.002,14.173,9.326,27.238,24.846,36.831l0,0
			c15.49,9.578,37.051,15.561,60.883,15.557l0,0c23.828,0.004,45.391-5.979,60.879-15.557l0,0
			c15.514-9.593,24.838-22.658,24.836-36.831l0,0c0.002-14.188-9.322-27.247-24.836-36.839l0,0
			c-15.488-9.584-37.051-15.568-60.879-15.564l0,0c-0.018,0-0.025,0-0.039,0l0,0C476.143,314.5,454.598,320.476,439.113,330.055
			L439.113,330.055z"/>
	</g>
	<g>
		<radialGradient id="SVGID_4_" cx="499.9883" cy="378" r="38.2864" gradientUnits="userSpaceOnUse">
			<stop  offset="0" style="stop-color:#D573AD"/>
			<stop  offset="0.5" style="stop-color:#C71A8B"/>
			<stop  offset="1" style="stop-color:#9C278F"/>
		</radialGradient>
		<path fill="url(#SVGID_4_)" d="M538.273,378.002c0,21.146-17.143,38.285-38.277,38.285c-21.146,0-38.293-17.139-38.293-38.285
			c0-21.142,17.146-38.291,38.293-38.291C521.131,339.712,538.273,356.86,538.273,378.002z"/>
		<path fill="#010101" d="M460.227,378.002c0.008-21.96,17.811-39.762,39.77-39.766l0,0c21.953,0.003,39.748,17.806,39.752,39.766
			l0,0c-0.004,21.955-17.799,39.75-39.752,39.752l0,0C478.037,417.752,460.234,399.958,460.227,378.002L460.227,378.002z
			 M463.182,378.002c0.031,20.328,16.477,36.772,36.814,36.81l0,0c20.322-0.038,36.771-16.481,36.813-36.81l0,0
			c-0.041-20.333-16.49-36.787-36.813-36.819l0,0C479.67,341.216,463.213,357.672,463.182,378.002L463.182,378.002z"/>
	</g>
	<path fill="#010101" d="M524.447,370.594c0,13.505-10.945,24.457-24.451,24.457c-13.508,0-24.451-10.951-24.451-24.457
		c0-13.504,10.943-24.452,24.451-24.452C513.502,346.142,524.447,357.09,524.447,370.594z"/>
	<g>
		<path fill="#FFCB0A" d="M427.885,336.606c15.695,13.344,42.137,22.115,72.111,22.115c29.971,0,56.412-8.771,72.098-22.115
			c-15.686-14.23-42.127-23.579-72.098-23.579C470.021,313.027,443.58,322.375,427.885,336.606z"/>
		<path fill="#B97B2A" d="M426.93,337.723l-1.281-1.092l1.246-1.12c16.074-14.549,42.816-23.954,73.102-23.957l0,0
			c30.268,0.003,57.021,9.407,73.088,23.957l0,0l1.234,1.12l-1.273,1.092c-16.068,13.651-42.789,22.454-73.049,22.465l0,0
			C469.729,360.177,443.01,351.375,426.93,337.723L426.93,337.723z M499.996,357.249c28.855,0.015,54.367-8.245,69.834-20.68l0,0
			c-15.459-13.285-40.979-22.084-69.834-22.082l0,0c-28.873-0.002-54.379,8.797-69.848,22.082l0,0
			C445.617,349.004,471.129,357.264,499.996,357.249L499.996,357.249z"/>
	</g>
	<path opacity="0.2" fill="#010101" d="M418.084,320.534c-7.793,12-19.574,18.181-26.318,13.801
		c-6.732-4.369-5.869-17.651,1.926-29.652c7.793-12.003,19.578-18.182,26.311-13.806
		C426.744,295.247,425.889,308.538,418.084,320.534z"/>
	<path opacity="0.2" fill="#010101" d="M384.316,355.657c-3.381,6.208-8.949,9.7-12.428,7.797
		c-3.479-1.896-3.568-8.463-0.184-14.671c3.389-6.206,8.945-9.699,12.43-7.795C387.621,342.888,387.709,349.455,384.316,355.657z"/>
	<path opacity="0.2" fill="#010101" d="M530.109,555.833c0,14.297-22.523,25.886-50.307,25.886s-50.295-11.589-50.295-25.886
		c0-14.289,22.512-25.877,50.295-25.877S530.109,541.544,530.109,555.833z"/>
	<path opacity="0.2" fill="#010101" d="M475.018,596.948c0,3.81-5.99,6.892-13.379,6.892c-7.383,0-13.373-3.083-13.373-6.892
		c0-3.795,5.99-6.881,13.373-6.881C469.027,590.067,475.018,593.152,475.018,596.948z"/>
	<path opacity="0.2" fill="#010101" d="M614.666,579.671c6.02-20.983,18.906-35.705,28.771-32.872
		c9.852,2.831,12.971,22.139,6.949,43.125c-6.023,20.986-18.902,35.7-28.773,32.868C611.75,619.961,608.645,600.656,614.666,579.671
		z"/>
	<path opacity="0.2" fill="#010101" d="M664.469,551.696c-2.102-3.868-0.668-8.7,3.193-10.805c3.873-2.089,8.705-0.657,10.805,3.207
		c2.096,3.868,0.664,8.704-3.207,10.797C671.396,556.996,666.566,555.559,664.469,551.696z"/>
	<path opacity="0.2" fill="#010101" d="M601.551,639.229c-2.102-3.868-0.656-8.708,3.203-10.801
		c3.854-2.094,8.703-0.658,10.801,3.21c2.098,3.861,0.662,8.7-3.203,10.798C608.488,644.524,603.637,643.102,601.551,639.229z"/>
	<path fill="#B97B2A" d="M397.1,651.572c0,0,8.805,15.303,55.758,3.987C452.857,655.559,398.986,677.145,397.1,651.572z"/>
	<path fill="#B97B2A" d="M442.584,664.083c0,0,5.029,18.015,37.588,14.523C480.172,678.606,440.764,689.791,442.584,664.083z"/>
	<g>
		<radialGradient id="SVGID_5_" cx="377.0977" cy="760.6719" r="86.9104" gradientUnits="userSpaceOnUse">
			<stop  offset="0" style="stop-color:#FEE7A3"/>
			<stop  offset="0.5" style="stop-color:#FFCB0A"/>
			<stop  offset="1" style="stop-color:#F8AC1C"/>
		</radialGradient>
		<path fill="url(#SVGID_5_)" d="M417.646,662.054c0,0-25.994,127.226-30.818,132.043c-4.814,4.816-66.225,21.167-71.68,29.968
			c-5.447,8.807-9.422,27.033-6.078,27.878c3.355,0.84,19.488,4.186,35.217,2.097c0,0-7.125,8.376,16.133,8.168
			c23.27-0.204,54.916-2.93,65.605-10.057c10.691-7.125,3.99-24.52,5.443-41.708c1.479-17.186,13.842-123.866,14.885-137.699
			c0,0-4.119-12.021-8.029-13.342C434.416,658.073,417.646,662.054,417.646,662.054z"/>
		<path fill="#B97B2A" d="M359.58,863.675c-6.961-0.006-11.203-0.764-13.908-1.971l0,0c-2.699-1.155-3.941-3.188-3.891-4.97l0,0
			c0.008-0.331,0.041-0.653,0.102-0.948l0,0c-2.852,0.278-5.676,0.392-8.422,0.405l0,0c-11.869-0.013-22.063-2.159-24.76-2.829l0,0
			c-2.273-0.889-2.24-2.925-2.33-5.002l0,0c0.031-6.385,3.279-18.132,7.525-25.075l0,0c2.816-4.164,12.582-8.119,24.549-12.682l0,0
			c11.879-4.43,25.68-8.908,35.424-12.417l0,0c6.418-2.261,11.344-4.427,11.924-5.132l0,0c-0.025-0.016,0.08-0.114,0.229-0.42l0,0
			c0.162-0.315,0.35-0.771,0.578-1.343l0,0c0.424-1.138,0.953-2.729,1.527-4.676l0,0c1.162-3.901,2.563-9.25,4.119-15.538l0,0
			c3.105-12.58,6.813-28.93,10.355-45.13l0,0c7.102-32.4,13.582-64.129,13.6-64.195l0,0l0.178-0.917l0.922-0.22
			c0.066,0,12.279-2.941,18.633-2.963l0,0c1.084,0.009,2.014,0.074,2.865,0.356l0,0c2.926,1.159,4.674,4.667,6.332,7.923l0,0
			c1.563,3.265,2.602,6.301,2.617,6.329l0,0l0.092,0.286l-0.02,0.31c-1.057,13.919-13.424,120.574-14.883,137.718l0,0
			c-0.162,1.789-0.227,3.607-0.227,5.42l0,0c0,7.116,0.975,14.174,0.975,20.451l0,0c0.02,6.863-1.203,13.172-6.842,16.933l0,0
			c-11.494,7.516-42.971,10.023-66.439,10.3l0,0C360.119,863.675,359.84,863.675,359.58,863.675L359.58,863.675z M360.412,860.741
			c23.098-0.148,54.91-3.09,64.799-9.818l0,0c4.375-2.917,5.516-7.809,5.541-14.477l0,0c0-5.974-0.98-13.078-0.98-20.451l0,0
			c0-1.886,0.064-3.788,0.234-5.672l0,0c1.463-17.122,13.654-122.409,14.855-137.381l0,0c-0.285-0.804-1.176-3.224-2.389-5.735l0,0
			c-1.379-3.095-3.641-6.26-4.629-6.416l0,0c-0.279-0.102-0.996-0.199-1.91-0.199l0,0c-4.711-0.01-14.1,2.003-17.049,2.68l0,0
			c-2.049,9.998-20.158,98.023-27.941,124.185l0,0c-1.268,4.056-1.932,6.369-3.076,7.67l0,0c-1.412,1.335-4.229,2.49-8.447,4.139
			l0,0c-4.18,1.607-9.574,3.476-15.473,5.504l0,0c-11.797,4.035-25.59,8.695-35.395,12.927l0,0
			c-6.512,2.741-11.352,5.634-12.156,7.145l0,0c-3.877,6.186-7.131,18.048-7.086,23.519l0,0c-0.029,1.142,0.188,1.951,0.291,2.191
			l0,0c2.74,0.67,12.609,2.689,23.859,2.689l0,0c3.463,0,7.064-0.192,10.637-0.666l0,0l3.787-0.5l-2.48,2.917
			c0.008,0.007-0.146,0.167-0.34,0.518l0,0c-0.18,0.36-0.344,0.82-0.344,1.225l0,0c0.053,0.586,0.119,1.295,2.16,2.28l0,0
			c2.031,0.935,5.963,1.727,12.699,1.718l0,0C359.865,860.732,360.15,860.741,360.412,860.741L360.412,860.741z"/>
	</g>
	<path fill="#B97B2A" d="M602.896,651.572c0,0-8.811,15.303-55.758,3.987C547.139,655.559,601.004,677.145,602.896,651.572z"/>
	<path fill="#B97B2A" d="M557.412,664.083c0,0-5.039,18.015-37.584,14.523C519.828,678.606,559.221,689.791,557.412,664.083z"/>
	<g>
		<radialGradient id="SVGID_6_" cx="622.8887" cy="760.6719" r="86.912" gradientUnits="userSpaceOnUse">
			<stop  offset="0" style="stop-color:#FEE7A3"/>
			<stop  offset="0.5" style="stop-color:#FFCB0A"/>
			<stop  offset="1" style="stop-color:#F8AC1C"/>
		</radialGradient>
		<path fill="url(#SVGID_6_)" d="M582.354,662.054c0,0,25.986,127.226,30.805,132.043c4.82,4.816,66.236,21.167,71.68,29.968
			c5.447,8.807,9.432,27.033,6.08,27.878c-3.365,0.84-19.502,4.186-35.211,2.097c0,0,7.123,8.376-16.145,8.168
			c-23.256-0.204-54.914-2.93-65.605-10.057c-10.682-7.125-3.975-24.52-5.441-41.708c-1.469-17.186-13.836-123.866-14.887-137.699
			c0,0,4.131-12.021,8.039-13.342C565.576,658.073,582.354,662.054,582.354,662.054z"/>
		<path fill="#B97B2A" d="M639.557,863.678c-23.438-0.277-54.926-2.784-66.406-10.307l0,0c-5.641-3.764-6.889-10.063-6.863-16.938
			l0,0c0.006-6.264,0.967-13.306,0.963-20.422l0,0c0-1.821-0.064-3.641-0.209-5.444l0,0c-1.459-17.133-13.82-123.801-14.871-137.715
			l0,0l-0.031-0.302l0.096-0.287c0.008-0.032,1.051-3.077,2.619-6.333l0,0c1.66-3.256,3.412-6.758,6.326-7.92l0,0
			c0.861-0.286,1.777-0.351,2.863-0.36l0,0c6.35,0.021,18.582,2.958,18.652,2.963l0,0l-0.342,1.433l0.342-1.433l0.908,0.217
			l0.188,0.92c0.008,0.062,6.096,29.847,12.93,61.163l0,0c6.783,31.23,14.49,64.303,17.244,69.715l0,0
			c0.145,0.31,0.217,0.424,0.236,0.424l0,0c0.383,0.473,3.361,1.951,7.416,3.46l0,0c4.105,1.583,9.49,3.444,15.375,5.468l0,0
			c11.791,4.044,25.617,8.699,35.607,13.012l0,0c6.686,2.954,11.572,5.406,13.48,8.296l0,0c4.26,6.938,7.492,18.685,7.531,25.07l0,0
			c-0.1,2.088-0.072,4.105-2.342,5.002l0,0c-2.689,0.67-12.893,2.816-24.754,2.816l0,0c-2.744,0-5.572-0.114-8.408-0.392l0,0
			c0.047,0.295,0.086,0.608,0.092,0.948l0,0c0.057,1.779-1.193,3.81-3.889,4.97l0,0c-2.709,1.21-6.957,1.971-13.916,1.974l0,0
			C640.127,863.678,639.842,863.678,639.557,863.678L639.557,863.678z M640.395,860.741c6.732,0.003,10.664-0.784,12.699-1.723l0,0
			c2.041-0.989,2.113-1.698,2.16-2.284l0,0c0.012-0.409-0.145-0.874-0.34-1.225l0,0c-0.184-0.355-0.326-0.518-0.326-0.518l0,0
			l-2.471-2.917l3.785,0.5c3.547,0.469,7.148,0.666,10.613,0.666l0,0c11.248,0,21.123-2.02,23.855-2.689l0,0
			c0.023-0.045,0.043-0.103,0.078-0.179l0,0c0.121-0.368,0.227-1.098,0.227-2.013l0,0c0.039-5.468-3.217-17.333-7.092-23.519l0,0
			c-1.273-2.441-11.328-7.207-23.07-11.479l0,0c-11.801-4.401-25.576-8.867-35.385-12.408l0,0
			c-6.621-2.432-11.174-4.121-13.01-5.818l0,0c-1.145-1.314-1.807-3.623-3.076-7.679l0,0c-1.184-3.983-2.604-9.361-4.156-15.669l0,0
			c-3.123-12.632-6.826-28.995-10.381-45.211l0,0c-6.389-29.164-12.285-57.837-13.408-63.304l0,0
			c-1.184-0.265-3.406-0.751-5.947-1.239l0,0c-3.797-0.729-8.293-1.451-11.107-1.438l0,0c-0.912-0.003-1.633,0.09-1.91,0.195l0,0
			c-0.971,0.156-3.248,3.321-4.623,6.407l0,0c-1.213,2.518-2.096,4.924-2.387,5.738l0,0c1.191,14.917,13.393,120.259,14.852,137.396
			l0,0c0.148,1.894,0.215,3.794,0.215,5.681l0,0c0,7.357-0.963,14.452-0.961,20.422l0,0c0.02,6.68,1.164,11.572,5.545,14.489l0,0
			c9.883,6.733,41.719,9.67,64.783,9.818l0,0c0.09-0.009,0.184-0.009,0.285-0.009l0,0
			C640.025,860.732,640.219,860.741,640.395,860.741L640.395,860.741z"/>
	</g>
	<circle fill="#FFFFFF" cx="515.906" cy="387.664" r="8.877"/>
</g>
</svg>
