<?xml version="1.0" encoding="utf-8"?>
<!-- Generator: Adobe Illustrator 16.0.0, SVG Export Plug-In . SVG Version: 6.00 Build 0)  -->
<!DOCTYPE svg PUBLIC "-//W3C//DTD SVG 1.1//EN" "http://www.w3.org/Graphics/SVG/1.1/DTD/svg11.dtd">
<svg version="1.1" id="Layer_1" xmlns="http://www.w3.org/2000/svg" xmlns:xlink="http://www.w3.org/1999/xlink" x="0px" y="0px"
	 width="1000px" height="1000px" viewBox="0 0 1000 1000" enable-background="new 0 0 1000 1000" xml:space="preserve">
<g>
	<path fill="#289245" d="M358.01,562.401c0,0-128.209,137.816-175.467,134.389c-47.266-3.429-40.18,31.851-25.621,30.441
		c14.563-1.404,25.955,2.274,11.066,13.423c-14.893,11.143-30.688,21.478-22.162,35.65c8.52,14.171,32.398,4.259,40.318-13.396
		c7.924-17.653,19.111-1.902,11.186,10.587c-7.932,12.484,4.027,26.463,14.184,23.325c10.164-3.137,20.322-6.273,18.203-29.399
		c-2.123-23.134-9.674-35.271,1.029-44.215c10.711-8.946,147.537-120.583,150.674-157.775L358.01,562.401z"/>
	<path fill="#289245" d="M600.813,617.496c0,0,156.43-104.682,160.553-151.893c4.123-47.21,37.824-34.604,34.121-20.453
		c-3.699,14.149-1.869,25.986,11.492,13.053c13.371-12.928,26.08-26.883,38.721-16.22c12.633,10.667-0.941,32.668-19.633,37.683
		c-18.682,5.015-4.912,18.569,8.672,12.723c13.592-5.846,25.498,8.183,20.787,17.713c-4.715,9.537-9.422,19.066-31.92,13.299
		c-22.5-5.772-33.287-15.154-43.816-6.007c-10.533,9.15-142.496,126.511-179.713,123.696L600.813,617.496z"/>
	<path fill="#6DBD47" d="M225.479,595.78c0,0-108.514-157.67,24.316-313.833c115.508-135.806,282.291-108.924,380.764-27.62
		c98.475,81.307,111.65,230.396,62.871,322.745c-48.777,92.353-144.238,96.765-134.197,157.964
		c10.037,61.201,72.545,89.917-26.123,101.122c-98.664,11.225-21.885-82.041-49.018-97.452
		c-27.135-15.42-98.594-19.897-77.658,22.062c20.924,41.96,54.814,69.691,27.234,85.411c-27.572,15.711-113.447,30.828-100.742-6.74
		c12.699-37.567,29.355-78.119,0.596-119.294C304.756,678.972,268.166,662.952,225.479,595.78z"/>
	<g>
		<path fill="#5AA545" d="M613.447,425.882c0,91.421-74.109,165.532-165.529,165.532c-91.418,0-165.535-74.111-165.535-165.532
			c0-91.421,74.117-165.533,165.535-165.533C539.338,260.35,613.447,334.461,613.447,425.882z"/>
		<path fill="#FFFFFF" d="M608.438,409.207c0,85.772-69.537,155.309-155.311,155.309s-155.305-69.537-155.305-155.309
			c0-85.777,69.531-155.312,155.305-155.312S608.438,323.43,608.438,409.207z"/>
		<path fill="#272D1A" d="M519.072,416.417c0,39.836-32.287,72.133-72.129,72.133c-39.838,0-72.129-32.296-72.129-72.133
			c0-39.835,32.291-72.128,72.129-72.128C486.785,344.289,519.072,376.581,519.072,416.417z"/>
		<path fill="#FFFFFF" d="M496.377,384.932c0,17.352-14.064,31.415-31.416,31.415s-31.418-14.063-31.418-31.415
			c0-17.353,14.066-31.416,31.418-31.416S496.377,367.579,496.377,384.932z"/>
		<path fill="#FFFFFF" d="M416.398,439.423c0,7.31-5.938,13.241-13.244,13.241c-7.313,0-13.246-5.931-13.246-13.241
			c0-7.315,5.934-13.242,13.246-13.242C410.461,426.181,416.398,432.108,416.398,439.423z"/>
	</g>
	<path fill="#494B22" d="M341.24,641.058c0,0,93.563,82.842,185.617,8.043C526.857,649.101,434.086,664.821,341.24,641.058z"/>
	<path fill="#6DBD47" d="M307.711,245.906c0,0-3.439-62.758-53.297-72.212c0,0-13.754,30.754-36.971,15.374
		c-23.213-15.374,9.459-51.482,26.652-47.185c17.191,4.299,14.463,20.634,14.463,20.634s50.875,8.596,56.891,78.231L307.711,245.906
		z"/>
	<path fill="#6DBD47" d="M553.527,241.258c0,0,3.439-62.758,53.299-72.216c0,0,13.756,30.756,36.969,15.378
		c23.209-15.378-9.455-51.481-26.654-47.186c-17.188,4.3-14.459,20.635-14.459,20.635s-50.873,8.594-56.893,78.227L553.527,241.258z
		"/>
	<path fill="#438D41" d="M344.611,860.66c0,0-0.793-6.092,6.73-9.958c7.525-3.865,11.822,10.669,11.822,12.21
		C363.164,862.912,351.953,864.125,344.611,860.66z"/>
	<path fill="#438D41" d="M377.75,862.027c0,0-3-7.131,3.537-12.492c6.447-5.288,15.625,10.487,14.572,8.746
		C395.859,858.281,385.732,863.477,377.75,862.027z"/>
	<path fill="#438D41" d="M414.457,853.502c0,0-4.115-6.548,1.467-12.904c5.508-6.264,17.125,7.825,15.803,6.275
		C431.727,846.873,422.572,853.638,414.457,853.502z"/>
	<path fill="#438D41" d="M507.75,836.477c0,0,2.418-15.218,13.164-13.076c10.748,2.152,9.158,13.076,9.158,13.076
		S517.375,837.516,507.75,836.477z"/>
	<path fill="#438D41" d="M544.992,834.608c0,0-1.939-13.569,9.664-12.92c11.609,0.639,8.359,9.409,8.725,9.319
		C563.736,830.907,557.676,834.425,544.992,834.608z"/>
	<path fill="#438D41" d="M576.545,826.337c0,0-5.551-9.163-2.326-13.248c3.221-4.084,13.623,0,13.623,0
		S589.713,821.688,576.545,826.337z"/>
	<path fill="#E184B1" d="M400.445,673.419c0,0,46.619-18.457,71.402,3.652C471.848,677.072,434.359,688.392,400.445,673.419z"/>
	<path fill="#F2F2F2" d="M453.17,673.419c0,0-19.119-47.745,10.439-53.165c31.51-5.777,32.996,48.099,32.996,48.099
		s-12.553,8.028-37.855,11.075c-0.977,0.117-3.75,0.41-3.75,0.41L453.17,673.419z"/>
</g>
</svg>
