<?xml version="1.0" encoding="utf-8"?>
<!-- Generator: Adobe Illustrator 16.0.0, SVG Export Plug-In . SVG Version: 6.00 Build 0)  -->
<!DOCTYPE svg PUBLIC "-//W3C//DTD SVG 1.1//EN" "http://www.w3.org/Graphics/SVG/1.1/DTD/svg11.dtd">
<svg version="1.1" id="Layer_1" xmlns="http://www.w3.org/2000/svg" xmlns:xlink="http://www.w3.org/1999/xlink" x="0px" y="0px"
	 width="1000px" height="1000px" viewBox="0 0 1000 1000" enable-background="new 0 0 1000 1000" xml:space="preserve">
<g>
	<path fill-rule="evenodd" clip-rule="evenodd" fill="#676868" d="M645.064,276.867c0,0,97.662,52.014,148.015,31.536
		c50.44-20.472,17.337-144.885,17.337-144.885c104.58,7.657,196.62,110.213,146.448,255.099c0,0-8.387-62.809-60.676-99.05
		c33.839,100.804-18.819,148.663-18.819,148.663c-0.278-142.761-117.211-136.396-153.545-41.22L645.064,276.867z"/>
	<path fill-rule="evenodd" clip-rule="evenodd" fill="#2A2A2C" d="M861.693,175.327c80.328,31.721,136.855,122.84,95.172,243.29
		c0,0-8.387-62.809-60.676-99.05c33.839,100.804-18.819,148.663-18.819,148.663c-0.185-61.136-21.58-94.895-48.97-106.059l0,0
		l52.108,21.305l-23.521-132.155l77.841,56.07L861.693,175.327z"/>
	<path fill-rule="evenodd" clip-rule="evenodd" fill="#2A2A2C" d="M656.223,282.395c15.214,7.197,43.899,19.644,73.128,26.285
		l21.303,75.445c-10.876,11.061-20.196,25.451-26.83,42.884l-73.783-140.74L656.223,282.395z"/>
	<path fill-rule="evenodd" clip-rule="evenodd" fill="#676868" d="M354.842,276.867c0,0-97.569,52.014-147.926,31.536
		c-50.442-20.472-17.337-144.885-17.337-144.885C85,171.174-7.035,273.73,43.134,418.617c0,0,8.391-62.809,60.682-99.05
		c-33.848,100.804,18.813,148.663,18.813,148.663c0.271-142.761,117.215-136.396,153.545-41.22L354.842,276.867z"/>
	<path fill-rule="evenodd" clip-rule="evenodd" fill="#2A2A2C" d="M343.776,282.395c-15.22,7.197-43.899,19.644-73.132,26.285
		l-21.305,75.445c10.888,11.061,20.198,25.451,26.836,42.884l73.777-140.74L343.776,282.395z"/>
	<path fill-rule="evenodd" clip-rule="evenodd" fill="#F9A725" d="M385.732,822.006l-26.923,14.477l54.501-0.371
		c0.831-32.742-1.661-55.336,16.967-82.078c27.116,6.461,115.556,6.461,142.669,0c18.626,26.742,16.136,49.336,16.971,82.078
		l54.501,0.371l-26.929-14.477C1095.008-4.14-81.275-2.758,385.732,822.006L385.732,822.006z"/>
	<path fill-rule="evenodd" clip-rule="evenodd" fill="#FBB733" d="M690.434,302.876C544.722,79.874,97.27,230.382,349.675,753.115
		c194.963-7.846,350.632-168.402,350.632-365.304C700.308,358.572,696.892,330.168,690.434,302.876L690.434,302.876z"/>
	<path fill-rule="evenodd" clip-rule="evenodd" fill="#EF5754" d="M631.69,525.866c1.292,7.574,2.03,15.409,2.03,23.334
		c0,71.753-58.099,129.852-129.847,129.852c-71.749,0-129.848-58.099-129.848-129.852c0-7.842,0.646-15.491,2.028-22.965
		c38.365,3.414,80.972,5.353,125.97,5.353C548.505,531.588,592.404,529.557,631.69,525.866L631.69,525.866z"/>
	<path fill-rule="evenodd" clip-rule="evenodd" fill="#FFFFFF" d="M389.056,527.344c14.757,1.106,30.063,2.029,45.835,2.767
		c-1.478,19.368-11.159,34.405-22.78,34.405C399.846,564.516,389.792,548.093,389.056,527.344L389.056,527.344z M448.999,530.664
		c14.853,0.461,30.065,0.831,45.56,0.924c-1.938,18.628-11.349,32.928-22.78,32.928C460.25,564.516,450.66,549.755,448.999,530.664
		L448.999,530.664z M508.757,531.588c15.496-0.093,30.711-0.369,45.561-0.924c-1.661,19.183-11.248,33.852-22.781,33.852
		C520.106,564.516,510.695,550.216,508.757,531.588L508.757,531.588z M568.43,530.11c15.769-0.646,31.074-1.567,45.832-2.767
		c-0.829,20.749-10.785,37.172-22.963,37.172C579.588,564.516,569.9,549.57,568.43,530.11L568.43,530.11z"/>
	<path fill-rule="evenodd" clip-rule="evenodd" fill="#F58470" d="M576.083,657.102c-20.657,13.934-45.469,21.95-72.21,21.95
		c-26.745,0-51.553-8.017-72.21-21.95c16.044-16.505,42.422-27.298,72.21-27.298C533.753,629.804,560.125,640.597,576.083,657.102
		L576.083,657.102z"/>
	<path fill-rule="evenodd" clip-rule="evenodd" fill="#F29721" d="M329.941,431.893c9.959,0,18.078,8.115,18.078,18.071
		c0,9.971-8.118,18.08-18.078,18.08c-10.048,0-18.167-8.109-18.167-18.08C311.774,440.008,319.893,431.893,329.941,431.893
		L329.941,431.893z"/>
	<path fill-rule="evenodd" clip-rule="evenodd" fill="#F29721" d="M314.541,404.689c5.995,0,10.883,4.887,10.883,10.879
		c0,5.997-4.889,10.886-10.883,10.886c-5.996,0-10.882-4.89-10.882-10.886C303.659,409.576,308.545,404.689,314.541,404.689
		L314.541,404.689z"/>
	<path fill-rule="evenodd" clip-rule="evenodd" fill="#F29721" d="M357.52,421.93c4.243,0,7.651,3.414,7.651,7.657
		c0,4.245-3.408,7.75-7.651,7.75c-4.245,0-7.659-3.505-7.659-7.75C349.86,425.343,353.275,421.93,357.52,421.93L357.52,421.93z"/>
	<path fill-rule="evenodd" clip-rule="evenodd" fill="#F29721" d="M373.379,679.79c9.959,0,18.075,8.112,18.075,18.167
		c0,9.965-8.115,18.077-18.075,18.077c-10.052,0-18.167-8.112-18.167-18.077C355.211,687.902,363.327,679.79,373.379,679.79
		L373.379,679.79z"/>
	<path fill-rule="evenodd" clip-rule="evenodd" fill="#F29721" d="M357.979,652.675c5.989,0,10.879,4.888,10.879,10.889
		c0,5.994-4.89,10.873-10.879,10.873c-5.996,0-10.886-4.879-10.886-10.873C347.093,657.563,351.983,652.675,357.979,652.675
		L357.979,652.675z"/>
	<path fill-rule="evenodd" clip-rule="evenodd" fill="#F29721" d="M400.957,669.927c4.235,0,7.648,3.406,7.648,7.652
		c0,4.241-3.413,7.655-7.648,7.655c-4.244,0-7.658-3.414-7.658-7.655C393.299,673.333,396.713,669.927,400.957,669.927
		L400.957,669.927z"/>
	<path fill-rule="evenodd" clip-rule="evenodd" fill="#FBB733" d="M617.305,712.248c7.008-7.095,18.445-7.095,25.544-0.083
		c7.192,7.004,7.192,18.445,0.184,25.641c-7.007,7.095-18.54,7.095-25.634,0.083C610.294,730.885,610.294,719.363,617.305,712.248
		L617.305,712.248z"/>
	<path fill-rule="evenodd" clip-rule="evenodd" fill="#FBB733" d="M587.146,704.14c4.243-4.246,11.164-4.336,15.402-0.095
		c4.241,4.242,4.336,11.063,0.088,15.398c-4.241,4.246-11.154,4.246-15.397,0C582.998,715.303,582.998,708.382,587.146,704.14
		L587.146,704.14z"/>
	<path fill-rule="evenodd" clip-rule="evenodd" fill="#FBB733" d="M629.661,685.693c2.952-3.044,7.842-3.044,10.886-0.09
		c2.953,3.045,3.041,7.833,0,10.877c-2.951,3.048-7.841,3.048-10.886,0.102C626.709,693.538,626.616,688.648,629.661,685.693
		L629.661,685.693z"/>
	<path fill-rule="evenodd" clip-rule="evenodd" fill="#F29721" d="M644.699,466.2c3.037-9.494,13.181-14.851,22.679-11.807
		c9.596,3.042,14.855,13.192,11.81,22.686c-2.952,9.594-13.188,14.854-22.687,11.809C646.997,485.935,641.747,475.695,644.699,466.2
		L644.699,466.2z"/>
	<path fill-rule="evenodd" clip-rule="evenodd" fill="#F29721" d="M614.168,472.65c1.847-5.712,7.935-8.848,13.646-7.004
		c5.721,1.753,8.857,7.842,7.106,13.553c-1.847,5.722-7.928,8.95-13.646,7.104C615.553,484.551,612.417,478.369,614.168,472.65
		L614.168,472.65z"/>
	<path fill-rule="evenodd" clip-rule="evenodd" fill="#F29721" d="M643.499,436.875c1.283-4.06,5.619-6.279,9.679-4.982
		c4.06,1.292,6.271,5.625,5.075,9.592c-1.291,4.059-5.627,6.365-9.686,5.072C644.51,445.268,642.295,440.931,643.499,436.875
		L643.499,436.875z"/>
	<path fill-rule="evenodd" clip-rule="evenodd" fill="#F29721" d="M487.084,299.274c43.991,0,79.68,35.691,79.68,79.687
		c0,43.984-35.688,79.582-79.68,79.582c-43.899,0-79.587-35.598-79.587-79.582C407.498,334.966,443.186,299.274,487.084,299.274
		L487.084,299.274z"/>
	<path fill-rule="evenodd" clip-rule="evenodd" fill="#FFFFFF" d="M487.084,307.39c39.563,0,71.658,32.005,71.658,71.571
		c0,39.467-32.095,71.561-71.658,71.561c-39.471,0-71.561-32.093-71.561-71.561C415.524,339.395,447.614,307.39,487.084,307.39
		L487.084,307.39z"/>
	<path fill-rule="evenodd" clip-rule="evenodd" fill="#676868" d="M487.084,321.501c31.822,0,57.554,25.731,57.554,57.46
		c0,31.721-25.732,57.458-57.554,57.458c-31.721,0-57.453-25.737-57.453-57.458C429.631,347.232,455.363,321.501,487.084,321.501
		L487.084,321.501z"/>
	<path fill-rule="evenodd" clip-rule="evenodd" fill="#7B1228" d="M487.084,338.56c22.319,0,40.394,18.079,40.394,40.401
		c0,22.224-18.075,40.298-40.394,40.298c-22.218,0-40.301-18.074-40.301-40.298C446.784,356.639,464.867,338.56,487.084,338.56
		L487.084,338.56z"/>
	<path fill-rule="evenodd" clip-rule="evenodd" fill="#FFFFFF" d="M475.562,345.76c9.678,0,17.521,7.834,17.521,17.517
		c0,9.688-7.842,17.613-17.521,17.613c-9.685,0-17.614-7.925-17.614-17.613C457.948,353.594,465.877,345.76,475.562,345.76
		L475.562,345.76z"/>
	<polygon fill-rule="evenodd" clip-rule="evenodd" fill="#DB7C29" points="313.344,603.249 294.991,715.578 260.033,728.67 
		258.1,780.872 271.842,738.997 275.625,791.014 291.394,742.041 294.807,773.4 308.083,740.474 306.606,717.141 331.325,606.745 	
		"/>
	<polygon fill-rule="evenodd" clip-rule="evenodd" fill="#BA6228" points="293.053,757.254 294.807,773.4 308.083,740.474 
		306.606,717.141 331.325,606.745 321.087,604.726 299.691,717.887 298.771,747.944 	"/>
	<path fill-rule="evenodd" clip-rule="evenodd" fill="#F9A725" d="M351.244,599.741v0.09c-1.015,6.64-13.646,10.144-28.218,7.838
		c-14.569-2.205-25.544-9.402-24.529-15.945c0.092-0.471,0.181-0.93,0.37-1.385c7.372,3.775,17.059,6.913,27.845,8.573
		C335.57,600.296,344.048,600.479,351.244,599.741L351.244,599.741z"/>
	<polygon fill-rule="evenodd" clip-rule="evenodd" fill="#DB7C29" points="696.985,603.249 715.428,715.578 750.383,728.67 
		752.225,780.872 738.578,738.997 734.795,791.014 719.026,742.041 715.613,773.4 702.336,740.474 703.807,717.141 679.094,606.745 
			"/>
	<polygon fill-rule="evenodd" clip-rule="evenodd" fill="#BA6228" points="717.367,757.254 715.613,773.4 702.336,740.474 
		703.807,717.141 679.094,606.745 689.333,604.726 710.635,717.887 711.646,747.944 	"/>
	<path fill-rule="evenodd" clip-rule="evenodd" fill="#FBB733" d="M659.083,599.741v0.09c1.103,6.64,13.738,10.144,28.308,7.838
		c14.573-2.205,25.547-9.402,24.532-15.945c-0.092-0.471-0.277-0.93-0.461-1.385c-7.279,3.775-16.967,6.913-27.757,8.573
		C674.76,600.296,666.368,600.479,659.083,599.741L659.083,599.741z"/>
</g>
</svg>
