<?xml version="1.0" encoding="utf-8"?>
<!-- Generator: Adobe Illustrator 16.0.0, SVG Export Plug-In . SVG Version: 6.00 Build 0)  -->
<!DOCTYPE svg PUBLIC "-//W3C//DTD SVG 1.1//EN" "http://www.w3.org/Graphics/SVG/1.1/DTD/svg11.dtd">
<svg version="1.1" id="Layer_1" xmlns="http://www.w3.org/2000/svg" xmlns:xlink="http://www.w3.org/1999/xlink" x="0px" y="0px"
	 width="1000px" height="1000px" viewBox="0 0 1000 1000" enable-background="new 0 0 1000 1000" xml:space="preserve">
<g>
	<path fill-rule="evenodd" clip-rule="evenodd" fill="#DB7C29" d="M443.222,800.25h42.937v86.049v13.15v18.275H380.384
		c0,0,40.917-33.441,62.838-46.316V800.25z"/>
	<polygon fill-rule="evenodd" clip-rule="evenodd" fill="#BA6228" points="466.515,800.25 486.158,800.25 486.158,886.299 
		486.158,899.449 486.158,917.725 466.515,917.725 	"/>
	<path fill-rule="evenodd" clip-rule="evenodd" fill="#BA6228" d="M556.76,800.25h-42.928v86.049v13.15v18.275h105.775
		c0,0-40.922-33.441-62.847-46.316V800.25z"/>
	<polygon fill-rule="evenodd" clip-rule="evenodd" fill="#DB7C29" points="533.472,800.25 513.832,800.25 513.832,886.299 
		513.832,899.449 513.832,917.725 533.472,917.725 	"/>
	<polygon fill-rule="evenodd" clip-rule="evenodd" fill="#F4EED5" points="377.55,257.843 422.308,228.158 263.919,82.275 
		319.18,293.739 	"/>
	<path fill-rule="evenodd" clip-rule="evenodd" fill="#EED8A3" d="M377.55,257.843l44.758-29.685l-50.332-46.318
		c-16.986,11.422-32.702,25.578-46.494,42.389c-6.664,8.128-12.606,16.625-17.813,25.298l11.511,44.213L377.55,257.843z"/>
	<path fill-rule="evenodd" clip-rule="evenodd" fill="#EED8A3" d="M365.306,175.633l-8.216-7.584l-57.458,50.792l3.105,12.054
		L365.306,175.633z M345.574,157.458l-6.569-6.033l-48.324,33.343l2.376,8.951L345.574,157.458z M325.662,139.186l-6.575-6.12
		l-36.079,22.198l2.284,8.769L325.662,139.186z M303.104,118.354l-6.488-5.932l-20,18.36l2.463,9.587L303.104,118.354z
		 M288.121,104.563l-6.575-6.026l-11.323,7.854l2.368,8.952L288.121,104.563z"/>
	<path fill-rule="evenodd" clip-rule="evenodd" fill="#ED4691" d="M217.787,517.814c-71.701,405.939,636.205,405.939,564.413,0
		C698.528,44.552,301.456,44.552,217.787,517.814L217.787,517.814z"/>
	<path fill-rule="evenodd" clip-rule="evenodd" fill="#F06E9B" d="M217.787,517.814c-12.511,70.969-1.184,129.529,25.673,175.658
		c52.061,44.844,117.921,71.611,189.534,71.611c168.71,0,305.445-148.529,305.445-331.581c0-33.987-4.652-66.684-13.329-97.47
		C585.809,55.418,288.858,115.981,217.787,517.814L217.787,517.814z"/>
	<path fill-rule="evenodd" clip-rule="evenodd" fill="#E34677" d="M621.16,345.354c0.549,3.742,0.818,7.575,0.818,11.507
		c0,55.267-54.62,100.115-121.938,100.115c-67.411,0-122.041-44.849-122.041-100.115c0-3.932,0.28-7.765,0.833-11.507H621.16z"/>
	<path fill-rule="evenodd" clip-rule="evenodd" fill="#FFFFFF" d="M615.682,350.463c0.456,3.381,0.731,6.854,0.731,10.325
		c0,49.513-52.067,89.702-116.374,89.702c-64.305,0-116.462-40.189-116.462-89.702c0-3.472,0.27-6.944,0.731-10.325H615.682z"/>
	<path fill-rule="evenodd" clip-rule="evenodd" fill="#676868" d="M588.281,350.463c0.36,2.563,0.633,5.212,0.633,7.857
		c0,37.816-39.82,68.511-88.875,68.511c-49.145,0-88.877-30.694-88.877-68.511c0-2.646,0.178-5.295,0.548-7.857H588.281z"/>
	<path fill-rule="evenodd" clip-rule="evenodd" fill="#7B1228" d="M563.617,350.463c0.269,1.827,0.45,3.751,0.45,5.666
		c0,27.313-28.681,49.328-64.028,49.328c-35.444,0-64.124-22.016-64.124-49.328c0-1.915,0.181-3.839,0.457-5.666H563.617z"/>
	<path fill-rule="evenodd" clip-rule="evenodd" fill="#FFFFFF" d="M477.389,350.463c9.317,0,16.806,7.492,16.806,16.814
		c0,9.316-7.489,16.896-16.806,16.896c-9.321,0-16.815-7.58-16.815-16.896C460.574,357.955,468.068,350.463,477.389,350.463
		L477.389,350.463z"/>
	<path fill-rule="evenodd" clip-rule="evenodd" fill="#E34677" d="M500.04,484.832c119.294,0,216.021,1.922,216.021,4.387
		c0,2.377-96.727,4.297-216.021,4.297c-119.381,0-216.117-1.92-216.117-4.297C283.922,486.754,380.658,484.832,500.04,484.832
		L500.04,484.832z"/>
	<polygon fill-rule="evenodd" clip-rule="evenodd" fill="#E34677" points="303.923,488.944 331.236,577.369 353.521,513.611 
		396.001,615.094 449.159,516.535 481.136,576.457 509.171,516.535 548.726,584.217 589.376,512.605 622.257,599.656 
		666.742,504.929 697.617,537.818 711.955,490.043 	"/>
	<polygon fill-rule="evenodd" clip-rule="evenodd" fill="#FFFFFF" points="301.185,488.031 328.497,576.457 350.785,512.697 
		393.256,614.18 446.419,515.621 478.391,575.543 506.435,515.621 545.987,583.305 586.626,511.692 619.52,598.744 664.002,504.02 
		694.874,536.905 709.219,489.129 	"/>
	<path fill-rule="evenodd" clip-rule="evenodd" fill="#E34677" d="M500.04,241.312c61.291,0,110.981,2.102,110.981,4.655
		c0,2.465-49.69,4.565-110.981,4.565c-61.378,0-111.072-2.101-111.072-4.565C388.968,243.413,438.661,241.312,500.04,241.312
		L500.04,241.312z"/>
	<path fill-rule="evenodd" clip-rule="evenodd" fill="#E34677" d="M500.04,264.604c61.291,0,110.981,2.003,110.981,4.566
		c0,2.555-49.69,4.564-110.981,4.564c-61.378,0-111.072-2.01-111.072-4.564C388.968,266.607,438.661,264.604,500.04,264.604
		L500.04,264.604z"/>
	<polygon fill-rule="evenodd" clip-rule="evenodd" fill="#676868" points="297.808,664.057 296.707,785.727 261.998,805.277 
		268.483,860.635 276.068,814.232 288.583,868.49 297.261,814.232 305.933,846.838 314.702,809.84 309.225,785.457 317.352,664.879 
			"/>
	<polygon fill-rule="evenodd" clip-rule="evenodd" fill="#2A2A2C" points="301.456,829.941 305.933,846.838 314.702,809.84 
		309.225,785.457 317.352,664.879 306.211,664.422 302.099,787.279 306.023,819.256 	"/>
	<path fill-rule="evenodd" clip-rule="evenodd" fill="#ED4691" d="M337.27,654.192v0.177c0,7.129-12.791,12.887-28.505,12.887
		c-15.708,0-28.496-5.758-28.496-12.887c0-0.546,0.089-1.09,0.181-1.553c8.409,2.833,19.091,4.568,30.783,4.568
		C320.824,657.385,329.774,656.201,337.27,654.192L337.27,654.192z"/>
	<path fill-rule="evenodd" clip-rule="evenodd" fill="#E34677" d="M289.133,604.684c-3.569-11.24-15.622-17.54-26.859-13.979
		c-11.331,3.653-17.537,15.616-13.972,26.948c3.555,11.326,15.618,17.537,26.849,13.977
		C286.476,628.063,292.691,616.007,289.133,604.684L289.133,604.684z"/>
	<path fill-rule="evenodd" clip-rule="evenodd" fill="#E34677" d="M325.3,612.447c-2.104-6.852-9.319-10.595-16.168-8.408
		c-6.758,2.104-10.504,9.322-8.312,16.08c2.101,6.854,9.317,10.592,16.077,8.402C323.653,626.424,327.485,619.205,325.3,612.447
		L325.3,612.447z"/>
	<path fill-rule="evenodd" clip-rule="evenodd" fill="#E34677" d="M290.497,569.969c-1.462-4.752-6.575-7.4-11.417-5.936
		c-4.748,1.554-7.397,6.667-5.937,11.418c1.551,4.843,6.664,7.488,11.417,5.936C289.401,579.928,292.056,574.812,290.497,569.969
		L290.497,569.969z"/>
	<path fill-rule="evenodd" clip-rule="evenodd" fill="#E34677" d="M508.35,670.637c-4.837,1.457-7.583,6.479-6.122,11.322
		c1.37,4.843,6.488,7.584,11.328,6.125c4.838-1.465,7.588-6.581,6.123-11.334C518.219,671.916,513.103,669.174,508.35,670.637
		L508.35,670.637z"/>
	<path fill-rule="evenodd" clip-rule="evenodd" fill="#E34677" d="M328.86,416.328c1.734-11.694-6.3-22.563-18.089-24.393
		c-11.688-1.735-22.558,6.302-24.381,18.09c-1.735,11.688,6.302,22.563,18.085,24.386
		C316.165,436.148,327.034,428.111,328.86,416.328L328.86,416.328z"/>
	<path fill-rule="evenodd" clip-rule="evenodd" fill="#E34677" d="M357.909,439.163c1.096-7.032-3.747-13.608-10.78-14.616
		c-7.031-1.096-13.608,3.747-14.613,10.783c-1.097,7.03,3.746,13.606,10.779,14.613C350.327,451.04,356.904,446.196,357.909,439.163
		L357.909,439.163z"/>
	<path fill-rule="evenodd" clip-rule="evenodd" fill="#E34677" d="M345.307,385.727c0.818-4.934-2.651-9.59-7.585-10.317
		c-5.026-0.735-9.677,2.641-10.414,7.668c-0.731,4.936,2.646,9.591,7.677,10.323C339.915,394.221,344.579,390.752,345.307,385.727
		L345.307,385.727z"/>
</g>
</svg>
