<?xml version="1.0" encoding="utf-8"?>
<!-- Generator: Adobe Illustrator 16.0.0, SVG Export Plug-In . SVG Version: 6.00 Build 0)  -->
<!DOCTYPE svg PUBLIC "-//W3C//DTD SVG 1.1//EN" "http://www.w3.org/Graphics/SVG/1.1/DTD/svg11.dtd">
<svg version="1.1" id="Layer_1" xmlns="http://www.w3.org/2000/svg" xmlns:xlink="http://www.w3.org/1999/xlink" x="0px" y="0px"
	 width="1000px" height="1000px" viewBox="0 0 1000 1000" enable-background="new 0 0 1000 1000" xml:space="preserve">
<g>
	<path fill-rule="evenodd" clip-rule="evenodd" fill="#4E6E5F" d="M500.006,161.98c166.652,0,301.654,135.097,301.654,301.667
		c0,69.545-23.488,133.611-63.039,184.681c30.447,9.837,52.545,38.535,52.545,72.328c0,42.06-34.072,76.14-76.037,76.14
		c-21.635,0-41.039-9.009-54.969-23.398c-0.086,30.272-24.691,54.871-54.965,54.871c-21.449,0-40.018-12.251-49.111-30.173
		c-7.34,2.965-15.23,4.545-23.584,4.545c-10.863,0-20.984-2.695-29.902-7.423c-6.863,23.587-28.775,40.852-54.684,40.852
		c-18.939,0-35.742-9.288-46.139-23.582c-14.395,15.688-35.01,25.532-57.943,25.532c-43.449,0-78.641-35.193-78.641-78.553
		c0-28.502,15.137-53.478,37.879-67.313c-64.063-55.344-104.73-137.143-104.73-228.507
		C198.34,297.077,333.438,161.98,500.006,161.98L500.006,161.98z"/>
	<path fill-rule="evenodd" clip-rule="evenodd" fill="#5C9488" d="M500.006,161.98c62.576,0,120.787,19.036,168.977,51.718
		c29.525,54.964,46.332,117.823,46.332,184.583c0,215.599-174.744,390.342-390.33,390.342c-18.938,0-37.506-1.301-55.611-3.902
		c-2.693-7.988-4.182-16.434-4.182-25.254c0-28.502,15.137-53.478,37.879-67.313c-64.063-55.344-104.73-137.143-104.73-228.507
		C198.34,297.077,333.438,161.98,500.006,161.98L500.006,161.98z"/>
	<path fill-rule="evenodd" clip-rule="evenodd" fill="#EF5754" d="M324.336,453.899c-40.203-236.301,408.895-236.301,368.693,0
		C656.725,667.087,360.641,667.087,324.336,453.899L324.336,453.899z"/>
	<path fill-rule="evenodd" clip-rule="evenodd" fill="#F58470" d="M546.514,610.067c-28.496,5.666-58.209,4.83-86.344-2.504
		c-25.717-15.414-42.992-43.543-42.992-75.765c0-48.743,39.555-88.299,88.395-88.299c48.746,0,88.299,39.556,88.299,88.299
		C593.871,565.778,574.654,595.308,546.514,610.067L546.514,610.067z"/>
	<path fill-rule="evenodd" clip-rule="evenodd" fill="#FFFFFF" d="M616.063,580.64c-62.953,43.824-149.951,44.197-213.27,1.021
		c5.66-8.916,14.301-14.578,23.951-14.578c12.07,0,22.654,9.006,27.672,22.099c5.014-13.093,15.502-22.099,27.668-22.099
		c12.162,0,22.66,9.006,27.666,22.099c5.012-13.093,15.596-22.099,27.668-22.099c12.162,0,22.658,9.006,27.76,22.099
		c5.016-13.093,15.506-22.099,27.672-22.099C602.133,567.083,610.398,572.279,616.063,580.64L616.063,580.64z"/>
	<path fill-rule="evenodd" clip-rule="evenodd" fill="#E5E5E5" d="M616.063,580.64c-62.953,43.824-149.951,44.197-213.27,1.021
		c0.832-1.301,1.668-2.508,2.598-3.623c62.113,39.275,146.141,38.902,207.979-0.929C614.297,578.226,615.227,579.34,616.063,580.64
		L616.063,580.64z"/>
	<path fill-rule="evenodd" clip-rule="evenodd" fill="#FFFFFF" d="M371.32,320.384c71.484-58.22,202.682-58.308,274.357-0.278
		c-7.238,11.973-18.479,19.684-31.193,19.684c-15.512,0-28.973-11.514-35.375-28.136c-6.406,16.622-19.773,28.136-35.281,28.136
		c-15.51,0-28.971-11.514-35.377-28.136c-6.404,16.622-19.869,28.136-35.373,28.136c-15.51,0-28.873-11.514-35.375-28.136
		c-6.406,16.622-19.773,28.136-35.287,28.136C389.795,339.79,378.559,332.172,371.32,320.384L371.32,320.384z"/>
	<path fill-rule="evenodd" clip-rule="evenodd" fill="#E5E5E5" d="M371.32,320.384c71.484-58.22,202.682-58.308,274.357-0.278
		c-1.205,1.946-2.414,3.804-3.809,5.476c-71.117-51.902-195.721-51.902-266.654,0.185C373.824,324.1,372.525,322.335,371.32,320.384
		L371.32,320.384z"/>
	<path fill-rule="evenodd" clip-rule="evenodd" fill="#2E2E2C" d="M658.865,220.849c-43.553,4.919-80.313,15.971-109.006,34.353
		c0,0,20.146-32.311,50.422-38.904C630.635,209.799,658.865,220.849,658.865,220.849L658.865,220.849z"/>
	<path fill-rule="evenodd" clip-rule="evenodd" fill="#2E2E2C" d="M350.801,220.849c43.543,4.919,80.309,15.971,108.994,34.353
		c0,0-20.141-32.311-50.41-38.904C379.117,209.799,350.801,220.849,350.801,220.849L350.801,220.849z"/>
	<path fill-rule="evenodd" clip-rule="evenodd" fill="#3F6F66" d="M249.041,443.313c10.861,0,19.68,8.727,19.68,19.591
		c0,10.862-8.818,19.688-19.68,19.688c-10.871,0-19.594-8.825-19.594-19.688C229.447,452.04,238.17,443.313,249.041,443.313
		L249.041,443.313z"/>
	<path fill-rule="evenodd" clip-rule="evenodd" fill="#3F6F66" d="M232.33,413.79c6.59,0,11.785,5.293,11.785,11.791
		c0,6.502-5.195,11.792-11.785,11.792c-6.502,0-11.797-5.291-11.797-11.792C220.533,419.083,225.828,413.79,232.33,413.79
		L232.33,413.79z"/>
	<path fill-rule="evenodd" clip-rule="evenodd" fill="#3F6F66" d="M279.033,432.454c4.637,0,8.352,3.707,8.352,8.351
		c0,4.646-3.715,8.36-8.352,8.36c-4.648,0-8.361-3.714-8.361-8.36C270.672,436.161,274.385,432.454,279.033,432.454L279.033,432.454
		z"/>
	<path fill-rule="evenodd" clip-rule="evenodd" fill="#5C9488" d="M753.939,489.46c-10.867,0-19.686,8.824-19.686,19.684
		c0,10.863,8.818,19.59,19.686,19.59c10.859,0,19.588-8.727,19.588-19.59C773.527,498.284,764.799,489.46,753.939,489.46
		L753.939,489.46z"/>
	<path fill-rule="evenodd" clip-rule="evenodd" fill="#5C9488" d="M770.646,459.937c-6.5,0-11.789,5.293-11.789,11.787
		c0,6.595,5.289,11.793,11.789,11.793c6.504,0,11.789-5.198,11.789-11.793C782.436,465.229,777.15,459.937,770.646,459.937
		L770.646,459.937z"/>
	<path fill-rule="evenodd" clip-rule="evenodd" fill="#5C9488" d="M723.951,478.686c-4.643,0-8.359,3.72-8.359,8.36
		c0,4.552,3.717,8.262,8.359,8.262c4.635,0,8.352-3.71,8.352-8.262C732.303,482.405,728.586,478.686,723.951,478.686
		L723.951,478.686z"/>
	<path fill-rule="evenodd" clip-rule="evenodd" fill="#3F6F66" d="M303.629,269.499c6.594,0,11.797,5.294,11.797,11.793
		c0,6.5-5.203,11.793-11.797,11.793c-6.498,0-11.787-5.294-11.787-11.793C291.842,274.793,297.131,269.499,303.629,269.499
		L303.629,269.499z"/>
	<path fill-rule="evenodd" clip-rule="evenodd" fill="#3F6F66" d="M329.629,251.207c4.643,0,8.357,3.716,8.357,8.266
		c0,4.643-3.715,8.36-8.357,8.36c-4.551,0-8.357-3.718-8.357-8.36C321.271,254.923,325.078,251.207,329.629,251.207L329.629,251.207
		z"/>
	<path fill-rule="evenodd" clip-rule="evenodd" fill="#3F6F66" d="M670.467,303.302c1.113-6.409,7.246-10.682,13.652-9.567
		c6.404,1.115,10.768,7.245,9.559,13.646c-1.111,6.409-7.242,10.682-13.643,9.566C673.625,315.833,669.35,309.703,670.467,303.302
		L670.467,303.302z"/>
	<path fill-rule="evenodd" clip-rule="evenodd" fill="#3F6F66" d="M656.914,274.516c0.836-4.55,5.197-7.618,9.744-6.779
		c4.553,0.836,7.525,5.107,6.783,9.657c-0.836,4.549-5.201,7.613-9.66,6.778C659.234,283.428,656.172,279.064,656.914,274.516
		L656.914,274.516z"/>
	<path fill-rule="evenodd" clip-rule="evenodd" fill="#3F6F66" d="M331.211,739.036c10.764,0,19.59,8.826,19.59,19.695
		c0,10.858-8.826,19.685-19.59,19.685c-10.871,0-19.684-8.826-19.684-19.685C311.527,747.862,320.34,739.036,331.211,739.036
		L331.211,739.036z"/>
	<path fill-rule="evenodd" clip-rule="evenodd" fill="#3F6F66" d="M314.498,709.609c6.494,0,11.787,5.288,11.787,11.789
		c0,6.5-5.293,11.788-11.787,11.788c-6.504,0-11.797-5.288-11.797-11.788C302.701,714.897,307.994,709.609,314.498,709.609
		L314.498,709.609z"/>
	<path fill-rule="evenodd" clip-rule="evenodd" fill="#3F6F66" d="M361.102,728.271c4.645,0,8.357,3.718,8.357,8.361
		c0,4.543-3.713,8.351-8.357,8.351c-4.547,0-8.35-3.808-8.35-8.351C352.752,731.989,356.555,728.271,361.102,728.271
		L361.102,728.271z"/>
</g>
</svg>
