<?xml version="1.0" encoding="utf-8"?>
<!-- Generator: Adobe Illustrator 16.0.0, SVG Export Plug-In . SVG Version: 6.00 Build 0)  -->
<!DOCTYPE svg PUBLIC "-//W3C//DTD SVG 1.1//EN" "http://www.w3.org/Graphics/SVG/1.1/DTD/svg11.dtd">
<svg version="1.1" id="Layer_1" xmlns="http://www.w3.org/2000/svg" xmlns:xlink="http://www.w3.org/1999/xlink" x="0px" y="0px"
	 width="1000px" height="1000px" viewBox="0 0 1000 1000" enable-background="new 0 0 1000 1000" xml:space="preserve">
<g>
	<g>
		<g>
			<linearGradient id="SVGID_1_" gradientUnits="userSpaceOnUse" x1="344.9922" y1="100.084" x2="344.9922" y2="315.9229">
				<stop  offset="0" style="stop-color:#F17E5F"/>
				<stop  offset="0.5" style="stop-color:#EB2227"/>
				<stop  offset="1" style="stop-color:#CF232B"/>
			</linearGradient>
			<path fill="url(#SVGID_1_)" d="M334.988,100.084c0,0,6.439,107.585,22.481,119.907c16.031,12.324,39.426,16.616,39.426,16.616
				s-32.859,62.165-32.339,63.235c0.525,1.077-18.396,16.08-18.396,16.08s-40.485-3.484-51.515-40.994
				C283.597,237.411,334.988,100.084,334.988,100.084z"/>
			<path fill="#0482AE" d="M346.039,317.329c-0.102-0.026-41.286-3.487-52.724-42.001l0,0c-1.122-3.834-1.614-8.534-1.614-13.919
				l0,0c0.05-49.94,41.981-161.732,41.995-161.831l0,0l2.672,0.417c0,0.03,0.903,15.094,2.877,34.632l0,0
				c1.973,19.522,5.023,43.492,9.283,61.093l0,0c2.776,11.711,6.372,20.654,9.763,23.147l0,0
				c7.823,6.012,17.556,10.13,25.327,12.711l0,0c7.768,2.581,13.505,3.633,13.52,3.64l0,0l1.874,0.338l-0.901,1.718
				c-0.021,0.029-7.828,14.823-15.788,30.113l0,0c-7.71,14.78-15.69,30.458-16.368,32.51l0,0c-0.229,1.365-0.65,1.342-1.177,2.067
				l0,0c-0.546,0.586-1.285,1.289-2.164,2.091l0,0c-1.752,1.592-4.065,3.56-6.367,5.483l0,0c-4.626,3.841-9.23,7.496-9.24,7.5l0,0
				l-0.436,0.332L346.039,317.329L346.039,317.329z M315.355,162.661c-10.469,34.093-20.896,74.43-20.89,98.748l0,0
				c0,5.206,0.475,9.663,1.499,13.105l0,0c5.39,18.287,17.889,28.236,29.167,33.699l0,0c9.736,4.718,18.424,5.988,20.618,6.247l0,0
				c1.937-1.554,9.925-7.952,14.528-12.075l0,0c1.455-1.266,2.631-2.485,2.932-2.851l0,0c0.186-1.037,0.655-1.754,1.484-3.636l0,0
				c0.9-1.89,2.161-4.449,3.682-7.462l0,0c3.03-6.03,7.083-13.876,11.123-21.649l0,0c6.498-12.482,12.98-24.804,15.282-29.186l0,0
				c-5.87-1.292-24.469-5.992-38.148-16.487l0,0c-4.614-3.672-7.851-12.797-10.79-24.719l0,0c-2.88-11.91-5.189-26.553-7-40.804l0,0
				c-2.547-19.989-4.097-39.216-4.797-48.907l0,0C330.421,116.73,322.896,138.08,315.355,162.661L315.355,162.661z"/>
		</g>
		<g>
			<linearGradient id="SVGID_2_" gradientUnits="userSpaceOnUse" x1="655.0049" y1="100.084" x2="655.0049" y2="315.9229">
				<stop  offset="0" style="stop-color:#F17E5F"/>
				<stop  offset="0.5" style="stop-color:#EB2227"/>
				<stop  offset="1" style="stop-color:#CF232B"/>
			</linearGradient>
			<path fill="url(#SVGID_2_)" d="M665.01,100.084c0,0-6.446,107.585-22.485,119.907c-16.031,12.324-39.422,16.616-39.422,16.616
				s32.853,62.165,32.331,63.235c-0.528,1.077,18.398,16.08,18.398,16.08s40.479-3.484,51.52-40.994
				C716.395,237.411,665.01,100.084,665.01,100.084z"/>
			<path fill="#0482AE" d="M652.982,317.038c-0.036-0.038-14.056-11.118-17.777-15.074l0,0c-0.511-0.715-0.94-0.702-1.161-2.018l0,0
				c-0.004-0.008-0.007-0.019-0.007-0.027l0,0c-0.045-0.117-0.124-0.337-0.239-0.592l0,0c-0.217-0.532-0.564-1.276-0.999-2.202l0,0
				c-0.873-1.845-2.143-4.396-3.651-7.399l0,0c-3.024-6.013-7.067-13.843-11.105-21.622l0,0
				c-8.075-15.533-16.141-30.792-16.159-30.83l0,0l-0.905-1.718l1.872-0.338c0.014-0.017,5.751-1.059,13.519-3.634l0,0
				c7.771-2.59,17.513-6.705,25.335-12.726l0,0c3.399-2.484,6.985-11.428,9.767-23.139l0,0c2.83-11.728,5.136-26.302,6.932-40.487
				l0,0c3.615-28.377,5.215-55.188,5.222-55.237l0,0l2.679-0.417c0.004,0.099,41.934,111.891,41.991,161.831l0,0
				c-0.007,5.385-0.495,10.079-1.617,13.919l0,0c-11.435,38.521-52.622,41.975-52.735,42.001l0,0l-0.531,0.041L652.982,317.038
				L652.982,317.038z M637.211,300.015c0.46,0.494,1.163,1.154,2.01,1.934l0,0c1.7,1.544,3.988,3.492,6.269,5.396l0,0
				c3.739,3.107,7.475,6.094,8.74,7.105l0,0c2.159-0.281,10.867-1.514,20.622-6.236l0,0c11.29-5.463,23.785-15.412,29.167-33.699
				l0,0c1.021-3.432,1.498-7.899,1.498-13.105l0,0c0.016-24.322-10.42-64.661-20.881-98.755l0,0
				c-7.544-24.574-15.065-45.924-18.692-55.969l0,0c-1.198,16.598-4.884,61.11-11.796,89.711l0,0
				c-2.936,11.922-6.175,21.047-10.784,24.719l0,0c-13.688,10.492-32.297,15.195-38.165,16.487l0,0
				c4.464,8.459,24.567,46.636,30.09,58.297l0,0c0.834,1.873,1.297,2.596,1.478,3.614l0,0
				C636.849,299.628,637.012,299.805,637.211,300.015L637.211,300.015z M663.707,100.579l1.303-0.495L663.707,100.579
				L663.707,100.579z"/>
		</g>
		<g>
			
				<radialGradient id="SVGID_3_" cx="524.6758" cy="418.1362" r="288.1291" gradientTransform="matrix(0.981 0 0 1 -14.7097 0)" gradientUnits="userSpaceOnUse">
				<stop  offset="0.511" style="stop-color:#67CBE0"/>
				<stop  offset="1" style="stop-color:#40C2F1"/>
			</radialGradient>
			<path fill="url(#SVGID_3_)" d="M528.977,746.396c20.244,3.686,44.159-9.244,66.239-20.104
				c22.08-10.852,43.382-8.846,43.382-8.846c14.97-78.369,81.214-87.613,81.214-87.613
				c-31.151-82.786,16.158-126.604,16.158-126.604c-50.469-63.505-26.015-133.85-26.015-133.85
				c-61.122-28.938-56.388-100.883-56.388-100.883c-57.957-24.519-51.518-81.464-51.518-81.464
				c-32.088,3.271-46.248-6.027-57.748-22.792c10.638-47.432,51.309-44.867,51.309-44.867
				C527.8,102.492,488.104,151.93,488.104,151.93s3.808-38.982,31.414-62.694c0,0-25.105,4.818-44.558,40.99
				c-19.448,36.183-27.071,61.896-77.015,56.808c0,0,6.431,56.945-51.52,81.464c0,0,4.728,71.944-56.383,100.883
				c0,0,24.447,70.345-26.018,133.85c0,0,47.308,43.817,16.154,126.604c0,0,66.246,9.244,81.226,87.613c0,0,21.29-2.006,43.37,8.846
				c22.079,10.859,45.733,21.711,66.235,20.104c0,0,22.345-0.666,36.012-8.707C507.022,737.688,518.085,744.405,528.977,746.396z"/>
			<path fill="#0482AE" d="M528.734,747.794l0.245-1.398L528.734,747.794c-9.601-1.775-19.105-6.979-21.715-8.484l0,0
				c-14.204,7.896-35.867,8.471-35.907,8.49l0,0c-1.404,0.117-2.813,0.166-4.239,0.166l0,0
				c-19.976-0.027-42.063-10.271-62.698-20.406l0,0c-15.84-7.781-31.325-8.848-38.496-8.84l0,0c-2.679,0-4.145,0.146-4.145,0.146
				l0,0l-1.249,0.107l-0.242-1.252c-11.133-58.154-50.616-77.641-69.696-83.869l0,0c-6.356-2.064-10.346-2.623-10.352-2.623l0,0
				l-1.73-0.246l0.623-1.661c7.652-20.361,10.519-38.29,10.519-53.756l0,0c0-35.243-14.878-57.78-22.257-66.824l0,0
				c-2.469-3.009-4.052-4.466-4.059-4.476l0,0l-0.967-0.898l0.822-1.035c25.392-31.961,31.621-65.609,31.628-91.054l0,0
				c0-12.327-1.466-22.698-2.938-29.992l0,0c-1.462-7.29-2.896-11.424-2.902-11.441l0,0l-0.42-1.208l1.136-0.539
				c52.123-24.63,55.671-81.227,55.671-95.998l0,0c0-2.279-0.084-3.502-0.084-3.514l0,0l-0.061-1.008l0.915-0.389
				c46.718-19.777,50.842-60.745,50.874-75.06l0,0c0.007-3.16-0.195-4.932-0.195-4.943l0,0l-0.198-1.729l1.712,0.168
				c4.205,0.432,8.1,0.64,11.716,0.64l0,0c38.68-0.076,45.93-23.342,63.956-56.715l0,0c19.668-36.613,45.242-41.677,45.498-41.711
				l0,0l5.184-0.999l-4.036,3.466c-13.529,11.63-21.29,27.077-25.638,39.635l0,0c-2.548,7.354-3.926,13.676-4.626,17.662l0,0
				c8.782-9.098,35.893-33.126,77.632-33.161l0,0c8.766,0,18.178,1.068,28.163,3.561l0,0l-0.415,2.777c0,0-0.33-0.023-1.01-0.023
				l0,0c-6.343,0.083-39.111,1.855-48.725,43.189l0,0c9.795,13.964,21.052,22.25,44.309,22.319l0,0c3.637,0,7.568-0.204,11.821-0.64
				l0,0l1.705-0.168l-0.191,1.729c0.007,0.012-0.203,1.783-0.203,4.953l0,0c0.032,14.313,4.162,55.282,50.878,75.05l0,0l0.919,0.389
				l-0.076,1.008c0.016,0.012-0.068,1.234-0.068,3.508l0,0c0,14.777,3.544,71.374,55.655,96.004l0,0l1.152,0.539l-0.42,1.208
				c0.024,0.047-5.85,16.789-5.85,41.425l0,0c0.014,25.447,6.24,59.102,31.639,91.063l0,0l0.824,1.035l-0.973,0.898
				c0,0.013-1.589,1.467-4.051,4.476l0,0c-2.461,3.013-5.759,7.53-9.063,13.514l0,0c-6.598,11.976-13.208,29.808-13.208,53.311l0,0
				c0,15.466,2.87,33.405,10.516,53.756l0,0l0.63,1.661l-1.738,0.246c-0.003,0.02-3.996,0.559-10.345,2.623l0,0
				c-6.345,2.055-14.984,5.615-24.073,11.582l0,0c-18.183,11.965-38.195,33.484-45.622,72.287l0,0l-0.236,1.26l-1.252-0.115
				c-0.004,0-1.48-0.146-4.141-0.146l0,0c-7.185-0.008-22.67,1.059-38.507,8.84l0,0c-19.444,9.541-40.392,20.85-59.481,20.885l0,0
				c-0.025,0-0.062,0-0.098,0l0,0C533.692,748.444,531.194,748.228,528.734,747.794L528.734,747.794z M536.331,745.622
				c18.008,0.035,38.814-11.004,58.279-20.596l0,0c16.391-8.045,32.267-9.129,39.709-9.129l0,0c1.34,0,2.403,0.043,3.148,0.072l0,0
				c14.146-70.816,69.976-85.176,80.453-87.242l0,0c-7.324-19.994-10.112-37.75-10.112-53.161l0,0
				c0-42.878,21.505-67.507,26.3-72.454l0,0c-25.213-32.258-31.469-66.211-31.465-91.842l0,0c0.003-21.247,4.285-36.821,5.61-41.15
				l0,0c-52.648-25.761-56.155-83.062-56.155-98.025l0,0c0-1.151,0.025-2.056,0.044-2.685l0,0
				c-47.284-20.494-51.732-62.627-51.693-77.27l0,0c0-1.476,0.044-2.668,0.095-3.554l0,0c-3.714,0.337-7.191,0.502-10.453,0.502l0,0
				c-24.215,0.072-36.884-9.275-46.939-24.042l0,0l-0.352-0.508l0.148-0.616c7.489-33.466,29.821-42.687,42.883-45.139l0,0
				c-6.299-1.044-12.33-1.512-18.063-1.512l0,0c-37.525-0.011-63.016,20.037-73.396,30.053l0,0c-3.456,3.336-5.19,5.498-5.197,5.498
				l0,0l-2.903,3.618l0.459-4.647c0.036-0.134,3.35-34.84,27.079-59.126l0,0c-2.338,1.028-5.252,2.525-8.531,4.683l0,0
				c-8.521,5.612-19.484,15.671-29.105,33.552l0,0c-17.585,32.828-26.104,58.247-66.374,58.177l0,0
				c-3.239,0-6.679-0.162-10.352-0.492l0,0c0.043,0.876,0.093,2.078,0.093,3.544l0,0c0.041,14.634-4.408,56.782-51.691,77.279l0,0
				c0.014,0.629,0.036,1.533,0.036,2.69l0,0c0,14.961-3.501,72.259-56.151,98.02l0,0c1.332,4.329,5.607,19.903,5.609,41.159l0,0
				c0,25.634-6.247,59.575-31.458,91.833l0,0c4.788,4.947,26.29,29.576,26.298,72.454l0,0c0,15.411-2.792,33.167-10.114,53.161l0,0
				c10.479,2.066,66.298,16.426,80.454,87.242l0,0c0.746-0.029,1.816-0.072,3.156-0.072l0,0c7.439,0,23.305,1.078,39.693,9.129l0,0
				c20.59,10.133,42.455,20.139,61.501,20.125l0,0c1.354-0.014,2.701-0.066,4.102-0.166l0,0c0.011-0.01,5.502-0.168,12.705-1.324
				l0,0c7.202-1.16,16.09-3.332,22.651-7.191l0,0l0.709-0.42l0.689,0.428c0.035-0.014,10.941,6.623,21.496,8.521l0,0v0.014
				C531.535,745.433,533.913,745.622,536.331,745.622L536.331,745.622z"/>
		</g>
	</g>
	
		<radialGradient id="SVGID_4_" cx="524.6758" cy="370.8916" r="85.4912" gradientTransform="matrix(0.981 0 0 1 -14.7097 0)" gradientUnits="userSpaceOnUse">
		<stop  offset="0.511" style="stop-color:#67CBE0"/>
		<stop  offset="1" style="stop-color:#40C2F1"/>
	</radialGradient>
	<path fill="url(#SVGID_4_)" d="M577.056,370.892c0,50.762-34.502,91.908-77.059,91.908c-42.56,0-77.06-41.146-77.06-91.908
		c0-50.766,34.5-91.908,77.06-91.908C542.554,278.983,577.056,320.126,577.056,370.892z"/>
	<g>
		
			<radialGradient id="SVGID_5_" cx="524.6758" cy="359.6006" r="85.4912" gradientTransform="matrix(0.981 0 0 1 -14.7097 0)" gradientUnits="userSpaceOnUse">
			<stop  offset="0.9341" style="stop-color:#FFFFFF"/>
			<stop  offset="1" style="stop-color:#D5D5D6"/>
		</radialGradient>
		<path fill="url(#SVGID_5_)" d="M577.056,359.597c0,50.771-34.502,91.912-77.059,91.912c-42.56,0-77.06-41.142-77.06-91.912
			c0-50.752,34.5-91.904,77.06-91.904C542.554,267.692,577.056,308.845,577.056,359.597z"/>
		<path fill="#0482AE" d="M421.548,359.604c0.091-51.383,34.948-93.281,78.445-93.329l0,0c43.502,0.048,78.366,41.946,78.449,93.329
			l0,0c-0.083,51.374-34.947,93.273-78.449,93.315l0,0C456.496,452.878,421.639,410.979,421.548,359.604L421.548,359.604z
			 M424.317,359.604c0.018,50.14,34.05,90.398,75.676,90.498l0,0c41.618-0.1,75.665-40.358,75.676-90.498l0,0
			c-0.011-50.147-34.058-90.41-75.676-90.506l0,0C458.367,269.194,424.335,309.457,424.317,359.604L424.317,359.604z"/>
	</g>
	<g>
		<g>
			<path fill="#0482AE" d="M528.767,617.905c64.252-2.164,85.246-33.259,85.18-49.947l0,0c0-1.912-0.256-3.609-0.74-5.063l0,0
				c-1.688-4.97-3.422-7.38-6.81-8.896l0,0c-3.42-1.523-8.886-1.973-17.591-1.959l0,0c-7.996,0-18.703,0.332-33.146,0.332l0,0
				c-2.849,0-5.835-0.008-8.974-0.035l0,0c-48.598-0.493-83.073-25.738-117.211-49.012l0,0
				c-17.03-11.625-29.685-18.656-38.075-22.773l0,0c-8.376-4.118-12.383-5.308-12.4-5.312l0,0l0.774-2.712
				c0.163,0.049,16.979,5.072,51.246,28.449l0,0c34.214,23.354,68.09,48.066,115.692,48.537l0,0
				c3.131,0.027,6.105,0.037,8.947,0.037l0,0c14.417,0,25.089-0.338,33.146-0.346l0,0c8.788,0.015,14.484,0.373,18.688,2.199l0,0
				c4.246,1.845,6.625,5.344,8.328,10.588l0,0c0.603,1.789,0.895,3.799,0.895,5.965l0,0c-0.072,18.955-22.836,50.59-87.863,52.777
				l0,0L528.767,617.905L528.767,617.905z"/>
		</g>
		<path fill="#0482AE" d="M535.23,599.923c0,0-1.28,10.346-15.777,24.216c0,0,25.935,1.116,34.509,8.735
			c0,0-4.455-13.527-24.957-13.421C529.005,619.453,540.06,609.669,535.23,599.923z"/>
		<g>
			<path fill="#0482AE" d="M377.211,487.114c0-19.822,8.985-28.946,9.159-29.11l0,0l1.936,2.009c0.011,0.01-0.452,0.447-1.224,1.508
				l0,0c-0.767,1.051-1.816,2.674-2.866,4.889l0,0c-2.107,4.439-4.24,11.232-4.24,20.705l0,0c0,0.966,0.027,1.957,0.081,2.979l0,0
				l-2.776,0.146C377.227,489.162,377.211,488.116,377.211,487.114L377.211,487.114z"/>
		</g>
		<g>
			<path fill="#0482AE" d="M397.047,498.095c0-19.813,8.991-28.937,9.165-29.102l0,0h0.007l1.929,2.018
				c0.012,0.01-0.447,0.449-1.219,1.5l0,0c-0.771,1.053-1.821,2.674-2.871,4.895l0,0c-2.103,4.422-4.227,11.227-4.23,20.689l0,0
				c0,0.971,0.018,1.955,0.072,2.988l0,0l-2.77,0.136C397.08,500.151,397.047,499.11,397.047,498.095L397.047,498.095z"/>
		</g>
		<g>
			<path fill="#0482AE" d="M415.852,508.413c-0.004-19.826,8.977-28.943,9.161-29.107l0,0l1.932,2.011
				c0.012,0.021-0.447,0.456-1.223,1.505l0,0c-0.768,1.061-1.817,2.678-2.866,4.898l0,0c-2.106,4.424-4.231,11.224-4.243,20.693l0,0
				c0,0.965,0.029,1.96,0.081,2.979l0,0l-2.77,0.146C415.87,510.464,415.852,509.423,415.852,508.413L415.852,508.413z"/>
		</g>
		<g>
			<path fill="#0482AE" d="M434.488,519.816c0-18.916,8.416-27.823,8.59-27.978l0,0l1.974,1.973c0.01,0.008-0.413,0.433-1.141,1.457
				l0,0c-0.718,1.027-1.705,2.59-2.694,4.727l0,0c-1.961,4.264-3.952,10.796-3.955,19.821l0,0c0.003,1.356,0.032,2.759,0.145,4.235
				l0,0l-2.763,0.186C434.536,522.703,434.488,521.233,434.488,519.816L434.488,519.816z"/>
		</g>
		<g>
			<path fill="#0482AE" d="M455.782,532.666c-0.002-18.914,8.409-27.812,8.59-27.967l0,0l1.974,1.974
				c0.019,0-0.417,0.43-1.145,1.453l0,0c-0.724,1.023-1.701,2.585-2.682,4.721l0,0c-1.976,4.268-3.968,10.797-3.968,19.819l0,0
				c0,1.356,0.043,2.768,0.148,4.241l0,0l-2.772,0.193C455.83,535.565,455.782,534.079,455.782,532.666L455.782,532.666z"/>
		</g>
		<g>
			<path fill="#0482AE" d="M478.92,545.274c-0.011-18.916,8.409-27.824,8.574-27.986l0,0h0.011l1.97,1.973
				c0.007,0.004-0.42,0.438-1.14,1.455l0,0c-0.724,1.023-1.705,2.596-2.682,4.734l0,0c-1.98,4.265-3.971,10.791-3.971,19.824l0,0
				c0,1.353,0.045,2.76,0.145,4.24l0,0l-2.758,0.186C478.963,548.163,478.92,546.69,478.92,545.274L478.92,545.274z"/>
		</g>
		<g>
			<path fill="#0482AE" d="M504.822,551.524c-0.016-14.39,5.585-21.861,5.733-22.023l0,0l2.184,1.725
				c0.018,0.021-1.225,1.59-2.53,4.982l0,0c-1.296,3.396-2.622,8.506-2.622,15.316l0,0c0,3.174,0.289,6.725,1,10.641l0,0
				l-2.715,0.521C505.118,558.592,504.822,554.872,504.822,551.524L504.822,551.524z"/>
		</g>
		<g>
			<path fill="#0482AE" d="M532.288,553.261c0-14.379,5.604-21.855,5.734-22.025l0,0l2.188,1.728
				c0.026,0.019-1.23,1.588-2.525,4.987l0,0c-1.311,3.387-2.629,8.506-2.629,15.311l0,0c0,3.182,0.289,6.721,1,10.65l0,0
				l-2.715,0.51C532.577,560.329,532.288,556.612,532.288,553.261L532.288,553.261z"/>
		</g>
		<g>
			<path fill="#0482AE" d="M558.052,556.749c-0.014-14.383,5.604-21.86,5.72-22.034l0,0l0.011,0.011l2.187,1.721
				c0.022,0.031-1.223,1.594-2.534,4.992l0,0c-1.306,3.391-2.62,8.504-2.62,15.311l0,0c0,3.174,0.282,6.719,1.01,10.641l0,0
				l-2.722,0.516C558.346,563.818,558.052,560.097,558.052,556.749L558.052,556.749z"/>
		</g>
		<g>
			<path fill="#0482AE" d="M583.021,555.132c0-14.379,5.597-21.85,5.729-22.014l0,0l2.189,1.727
				c0.016,0.018-1.233,1.588-2.525,4.978l0,0c-1.308,3.398-2.621,8.503-2.629,15.31l0,0c0.008,3.18,0.286,6.732,1.007,10.65l0,0
				l-2.715,0.516C583.325,562.21,583.021,558.485,583.021,555.132L583.021,555.132z"/>
		</g>
		<g>
			<path fill="#0482AE" d="M598.459,568.884c0-0.004,0.648-0.287,1.832-1.092l0,0c1.19-0.795,2.862-2.084,4.723-3.992l0,0
				c3.747-3.826,8.308-10.148,11.438-20.186l0,0l2.643,0.848c-6.533,20.971-19.265,26.902-19.506,26.992l0,0L598.459,568.884
				L598.459,568.884z"/>
		</g>
		<g>
			<path fill="#0482AE" d="M589.533,582.204l1.893-2.063c0.007,0,0.406,0.395,1.368,1.07l0,0c0.963,0.684,2.439,1.598,4.43,2.52l0,0
				c4,1.848,10.092,3.721,18.436,3.721l0,0c1.764,0,3.634-0.094,5.61-0.275l0,0l0.246,2.809c-2.052,0.189-4.003,0.286-5.856,0.286
				l0,0C598.147,590.271,589.7,582.372,589.533,582.204L589.533,582.204z"/>
		</g>
		<g>
			<path fill="#0482AE" d="M571.685,597.177l2.248-1.633c0.011-0.01,0.408,0.586,1.411,1.608l0,0c0.999,1.03,2.563,2.45,4.771,3.944
				l0,0c4.404,2.996,11.381,6.309,21.663,7.492l0,0l-0.314,2.795C580.114,608.958,571.887,597.489,571.685,597.177L571.685,597.177z
				 M571.677,597.175l0.008,0.002l0,0h-0.008V597.175L571.677,597.175z"/>
		</g>
		<g>
			<path fill="#0482AE" d="M552.746,606.419l2.271-1.637c0.006,0,0.404,0.588,1.393,1.621l0,0c1.01,1.033,2.566,2.443,4.777,3.938
				l0,0c4.414,2.997,11.393,6.313,21.661,7.482l0,0l-0.308,2.805C561.09,618.206,552.888,606.632,552.746,606.419L552.746,606.419z"
				/>
		</g>
	</g>
	<g>
		<path fill="#0482AE" d="M403.215,667.194c0,0,8.285,14.67,52.435,3.826C455.649,671.021,404.988,691.722,403.215,667.194z"/>
		<path fill="#0482AE" d="M446.003,679.187c0,0,4.727,17.279,35.35,13.928C481.353,693.114,444.284,703.843,446.003,679.187z"/>
		<g>
			
				<radialGradient id="SVGID_6_" cx="406.8418" cy="787.8828" r="92.9464" gradientTransform="matrix(0.981 0 0 1 -14.7097 0)" gradientUnits="userSpaceOnUse">
				<stop  offset="0.511" style="stop-color:#67CBE0"/>
				<stop  offset="1" style="stop-color:#40C2F1"/>
			</radialGradient>
			<path fill="url(#SVGID_6_)" d="M422.537,677.253c0,0-24.454,154.133-28.979,158.746c-4.531,4.631-62.301,20.311-67.426,28.744
				c-5.127,8.451-8.872,25.934-5.717,26.729c3.148,0.803,18.334,4.025,33.116,2.027c0,0-6.703,8.027,15.185,7.818
				c21.885-0.197,51.653-2.809,61.7-9.635c10.063-6.85,3.754-23.516,5.134-39.99c1.378-16.492,12.998-150.926,13.996-164.203
				c0,0-3.875-11.518-7.557-12.783C438.308,673.427,422.537,677.253,422.537,677.253z"/>
			<path fill="#0482AE" d="M367.919,902.728c-6.551,0-10.532-0.723-13.08-1.896l0,0c-2.538-1.098-3.711-3.047-3.656-4.762l0,0
				c0-0.32,0.04-0.623,0.086-0.898l0,0c-2.67,0.268-5.338,0.369-7.905,0.385l0,0c-11.169-0.016-20.762-2.057-23.292-2.707l0,0
				c-2.136-0.855-2.109-2.805-2.204-4.801l0,0c0.039-6.125,3.091-17.396,7.083-24.051l0,0c2.657-3.988,11.84-7.779,23.086-12.16l0,0
				c11.183-4.25,24.158-8.535,33.319-11.895l0,0c6.049-2.164,10.679-4.25,11.217-4.93l0,0v-0.021
				c0.045-0.086,0.12-0.225,0.189-0.414l0,0c0.155-0.348,0.339-0.875,0.542-1.549l0,0c0.413-1.316,0.906-3.191,1.455-5.502l0,0
				c1.094-4.625,2.419-11.01,3.873-18.545l0,0c2.93-15.096,6.41-34.787,9.748-54.326l0,0c6.686-39.105,12.781-77.561,12.796-77.633
				l0,0l0.141-0.924l0.898-0.225c0.062,0,11.575-2.838,17.54-2.855l0,0c1.01,0.012,1.879,0.068,2.675,0.34l0,0
				c2.758,1.115,4.401,4.482,5.966,7.602l0,0c1.465,3.127,2.443,6.037,2.454,6.074l0,0l0.095,0.275l-0.018,0.289
				c-0.994,13.291-12.619,147.732-14.006,164.211l0,0c-0.148,1.713-0.199,3.459-0.199,5.189l0,0
				c-0.011,6.834,0.906,13.609,0.912,19.609l0,0c0.015,6.596-1.146,12.641-6.445,16.246l0,0
				c-10.806,7.203-40.414,9.621-62.483,9.873l0,0C368.44,902.728,368.181,902.728,367.919,902.728L367.919,902.728z
				 M354.589,894.403c0.014,0.014-0.145,0.176-0.318,0.5l0,0c-0.17,0.332-0.323,0.781-0.323,1.166l0,0
				c0.045,0.57,0.12,1.252,2.03,2.201l0,0c1.922,0.883,5.611,1.648,11.941,1.648l0,0c0.258,0,0.521,0,0.775,0l0,0
				c21.729-0.145,51.659-2.969,60.955-9.418l0,0c4.13-2.793,5.197-7.492,5.22-13.893l0,0c0.007-5.719-0.921-12.521-0.923-19.609l0,0
				c0-1.803,0.064-3.621,0.224-5.445l0,0c1.361-16.354,12.836-148.998,13.969-163.865l0,0c-0.272-0.764-1.104-3.08-2.24-5.52l0,0
				c-1.304-2.953-3.433-5.98-4.366-6.146l0,0c-0.243-0.09-0.923-0.182-1.777-0.182l0,0c-4.395-0.006-13.183,1.908-16.002,2.564l0,0
				c-1.911,11.988-21.62,135.432-27.799,155.484l0,0c-0.504,1.463-0.717,2.303-1.415,3.113l0,0
				c-1.348,1.268-3.981,2.367-7.952,3.967l0,0c-3.935,1.535-9.006,3.338-14.56,5.27l0,0c-11.086,3.881-24.065,8.357-33.29,12.395
				l0,0c-6.116,2.629-10.674,5.408-11.431,6.85l0,0c-3.652,5.943-6.704,17.301-6.667,22.564l0,0c-0.028,1.092,0.178,1.859,0.275,2.1
				l0,0c2.563,0.645,11.854,2.576,22.448,2.576l0,0c3.243,0,6.636-0.182,9.994-0.637l0,0l3.573-0.484L354.589,894.403
				L354.589,894.403z"/>
		</g>
		<g>
			<path fill="#0482AE" d="M352.515,892.429c3.253-1.637,10.088-7.146,16.292-13.691l0,0c6.482-6.813,12.273-9.223,12.394-9.279l0,0
				h0.007l1.036,2.625c0,0.01-1.271,0.516-3.381,1.861l0,0c-2.114,1.361-5.006,3.533-8.072,6.748l0,0
				c-6.406,6.74-13.19,12.27-17.03,14.254l0,0L352.515,892.429L352.515,892.429z"/>
		</g>
		<path fill="#0482AE" d="M337.565,881.212c-4.547-0.912-18.725,5.734-23.951,25.238
			C313.614,906.45,347.422,883.231,337.565,881.212z"/>
		<path fill="#0482AE" d="M388.208,891.228c-3.945-0.813-16.289,4.979-20.828,21.932C367.38,913.159,396.771,892.97,388.208,891.228
			z"/>
		<path fill="#0482AE" d="M596.776,667.194c0,0-8.271,14.67-52.432,3.826C544.345,671.021,595.006,691.722,596.776,667.194z"/>
		<path fill="#0482AE" d="M553.998,679.187c0,0-4.741,17.279-35.353,13.928C518.646,693.114,555.707,703.843,553.998,679.187z"/>
		<g>
			
				<radialGradient id="SVGID_7_" cx="642.5117" cy="787.8828" r="92.9471" gradientTransform="matrix(0.981 0 0 1 -14.7097 0)" gradientUnits="userSpaceOnUse">
				<stop  offset="0.511" style="stop-color:#67CBE0"/>
				<stop  offset="1" style="stop-color:#40C2F1"/>
			</radialGradient>
			<path fill="url(#SVGID_7_)" d="M577.458,677.253c0,0,24.447,154.133,28.985,158.746c4.532,4.631,62.291,20.311,67.421,28.744
				c5.125,8.451,8.871,25.934,5.719,26.729c-3.167,0.803-18.334,4.025-33.132,2.027c0,0,6.712,8.027-15.174,7.818
				c-21.876-0.197-51.648-2.809-61.7-9.635c-10.062-6.85-3.756-23.516-5.131-39.99c-1.381-16.492-13.003-150.926-13.999-164.203
				c0,0,3.88-11.518,7.56-12.783C561.69,673.427,577.458,677.253,577.458,677.253z"/>
			<path fill="#0482AE" d="M631.26,902.728c-22.047-0.252-51.645-2.67-62.464-9.873l0,0c-5.292-3.605-6.455-9.658-6.443-16.254l0,0
				c0.012-5.992,0.916-12.754,0.905-19.574l0,0c0-1.752-0.043-3.496-0.192-5.217l0,0c-1.375-16.471-13.012-150.92-14.008-164.211
				l0,0l-0.021-0.289l0.105-0.275c0.007-0.037,0.984-2.947,2.457-6.074l0,0c1.563-3.119,3.207-6.479,5.965-7.602l0,0
				c0.793-0.271,1.662-0.328,2.675-0.34l0,0c5.966,0.018,17.487,2.855,17.534,2.855l0,0l-0.314,1.379l0.314-1.379l0.905,0.213
				l0.141,0.936c0.008,0.047,3.338,21.004,7.765,47.721l0,0c4.438,26.719,9.965,59.189,14.358,82.088l0,0
				c2.882,15.158,5.455,26.471,6.476,28.146l0,0v0.035c0.363,0.457,3.164,1.867,6.986,3.33l0,0
				c3.862,1.506,8.915,3.293,14.457,5.234l0,0c11.098,3.873,24.089,8.34,33.493,12.473l0,0c6.284,2.83,10.88,5.191,12.689,7.947l0,0
				c3.989,6.654,7.033,17.926,7.077,24.051l0,0c-0.098,1.996-0.066,3.938-2.212,4.801l0,0c-2.527,0.65-12.118,2.691-23.278,2.707
				l0,0c-2.576-0.016-5.244-0.117-7.916-0.385l0,0c0.052,0.275,0.084,0.578,0.095,0.904l0,0c0.043,1.709-1.122,3.658-3.667,4.764
				l0,0c-2.533,1.166-6.537,1.889-13.071,1.889l0,0C631.799,902.728,631.542,902.728,631.26,902.728L631.26,902.728z
				 M565.821,851.554c0.151,1.824,0.209,3.662,0.217,5.473l0,0c-0.008,7.061-0.919,13.873-0.916,19.574l0,0
				c0.024,6.408,1.09,11.107,5.224,13.9l0,0c9.294,6.449,39.229,9.273,60.914,9.418l0,0c0.282,0,0.558,0,0.811,0l0,0
				c6.324,0,10.017-0.766,11.928-1.643l0,0c1.926-0.955,1.987-1.637,2.044-2.201l0,0c0-0.391-0.147-0.84-0.332-1.172l0,0
				c-0.174-0.342-0.312-0.5-0.312-0.5l0,0l-2.327-2.795l3.564,0.479c3.346,0.455,6.737,0.637,9.994,0.637l0,0
				c10.58,0,19.865-1.932,22.442-2.57l0,0c0.014-0.051,0.043-0.1,0.072-0.174l0,0c0.12-0.369,0.21-1.064,0.206-1.932l0,0
				c0.036-5.264-3.022-16.629-6.663-22.564l0,0c-1.202-2.332-10.657-6.906-21.696-10.99l0,0c-11.108-4.221-24.06-8.52-33.293-11.895
				l0,0c-6.227-2.344-10.51-3.967-12.235-5.596l0,0c-0.702-0.811-0.919-1.65-1.416-3.113l0,0c-0.444-1.441-0.94-3.352-1.505-5.697
				l0,0c-1.104-4.697-2.439-11.111-3.909-18.67l0,0c-2.932-15.123-6.403-34.828-9.755-54.389l0,0
				c-6.066-35.537-11.655-70.605-12.637-76.723l0,0c-1.121-0.252-3.199-0.719-5.559-1.188l0,0
				c-3.573-0.688-7.805-1.389-10.444-1.383l0,0c-0.856,0-1.531,0.092-1.791,0.182l0,0c-0.924,0.166-3.052,3.193-4.351,6.156l0,0
				c-1.137,2.422-1.98,4.74-2.256,5.51l0,0C552.981,702.532,564.452,835.2,565.821,851.554L565.821,851.554z"/>
		</g>
		<g>
			<path fill="#0482AE" d="M629.201,880.692c-3.066-3.215-5.958-5.387-8.083-6.748l0,0c-2.1-1.346-3.366-1.861-3.366-1.861l0,0l0,0
				l1.03-2.625c0.135,0.057,5.908,2.467,12.405,9.279l0,0c6.201,6.545,13.023,12.055,16.289,13.691l0,0l-1.242,2.518
				C642.383,892.962,635.614,887.433,629.201,880.692L629.201,880.692z"/>
		</g>
		<path fill="#0482AE" d="M662.429,881.212c4.542-0.912,18.729,5.734,23.952,25.238C686.381,906.45,652.572,883.231,662.429,881.212
			z"/>
		<path fill="#0482AE" d="M611.787,891.228c3.944-0.813,16.284,4.979,20.83,21.932C632.617,913.159,603.212,892.97,611.787,891.228z
			"/>
	</g>
	<g>
		
			<radialGradient id="SVGID_8_" cx="525.5596" cy="358.6084" r="42.3286" gradientTransform="matrix(0.981 0 0 1 -14.7097 0)" gradientUnits="userSpaceOnUse">
			<stop  offset="0" style="stop-color:#FEF6AB"/>
			<stop  offset="0.5879" style="stop-color:#FEF6AB"/>
			<stop  offset="0.8022" style="stop-color:#E3D820"/>
			<stop  offset="0.9983" style="stop-color:#B79C30"/>
			<stop  offset="1" style="stop-color:#B69C30"/>
		</radialGradient>
		<path fill="url(#SVGID_8_)" d="M542.386,358.609c0,23.374-18.586,42.33-41.521,42.33c-22.93,0-41.523-18.956-41.523-42.33
			c0-23.375,18.594-42.332,41.523-42.332C523.8,316.277,542.386,335.234,542.386,358.609z"/>
		<path fill="#0482AE" d="M457.966,358.609c0-24.161,19.202-43.745,42.906-43.745l0,0c23.695,0,42.898,19.584,42.898,43.745l0,0
			c0,24.152-19.203,43.736-42.898,43.736l0,0C477.168,402.346,457.966,382.762,457.966,358.609L457.966,358.609z M460.728,358.609
			c0.044,22.598,17.972,40.868,40.145,40.913l0,0c22.16-0.045,40.093-18.315,40.139-40.913l0,0
			c-0.046-22.607-17.979-40.873-40.139-40.929l0,0C478.699,317.736,460.771,336.002,460.728,358.609L460.728,358.609z"/>
	</g>
	<g>
		<path fill="#010101" d="M523.115,358.609c0,12.522-9.961,22.678-22.25,22.678c-12.284,0-22.243-10.155-22.243-22.678
			c0-12.523,9.959-22.677,22.243-22.677C513.154,335.933,523.115,346.086,523.115,358.609z"/>
		<path fill="#010101" d="M477.244,358.609c0-13.306,10.577-24.089,23.628-24.089l0,0c13.046,0,23.623,10.783,23.623,24.089l0,0
			c0,13.301-10.577,24.08-23.623,24.08l0,0C487.821,382.689,477.244,371.91,477.244,358.609L477.244,358.609z M480.009,358.609
			c0.022,11.746,9.335,21.243,20.863,21.266l0,0c11.519-0.022,20.832-9.52,20.854-21.266l0,0
			c-0.021-11.757-9.335-21.247-20.854-21.266l0,0C489.344,337.362,480.031,346.853,480.009,358.609L480.009,358.609z"/>
	</g>
	<path fill="#FFFFFF" d="M534.424,336.121c0,7.096-5.646,12.85-12.607,12.85c-6.957,0-12.604-5.754-12.604-12.85
		c0-7.099,5.646-12.848,12.604-12.848C528.777,323.273,534.424,329.022,534.424,336.121z"/>
	<path fill="#FFFFFF" d="M527.749,368.146c0,3.772-3.001,6.834-6.696,6.834c-3.699,0-6.708-3.062-6.708-6.834
		c0-3.768,3.009-6.832,6.708-6.832C524.748,361.313,527.749,364.378,527.749,368.146z"/>
</g>
</svg>
