<?xml version="1.0" encoding="utf-8"?>
<!-- Generator: Adobe Illustrator 16.0.0, SVG Export Plug-In . SVG Version: 6.00 Build 0)  -->
<!DOCTYPE svg PUBLIC "-//W3C//DTD SVG 1.1//EN" "http://www.w3.org/Graphics/SVG/1.1/DTD/svg11.dtd">
<svg version="1.1" id="Layer_1" xmlns="http://www.w3.org/2000/svg" xmlns:xlink="http://www.w3.org/1999/xlink" x="0px" y="0px"
	 width="1000px" height="1000px" viewBox="0 0 1000 1000" enable-background="new 0 0 1000 1000" xml:space="preserve">
<g>
	<g>
		<radialGradient id="SVGID_1_" cx="636.6753" cy="242.2813" r="107.8064" gradientUnits="userSpaceOnUse">
			<stop  offset="0" style="stop-color:#B991C3"/>
			<stop  offset="1" style="stop-color:#783E98"/>
		</radialGradient>
		<path fill="url(#SVGID_1_)" d="M657.21,104.619c0,0-70.825,23.617-86.061,126.434c3.049,99.393,94.071,148.891,94.071,148.891
			l2.284-11.035C667.505,368.908,752.036,272.551,657.21,104.619z"/>
		<path fill="#4A246C" d="M664.577,381.125c-0.101-0.084-91.608-49.754-94.76-150.035l0,0v-0.111l0.015-0.119
			c15.314-103.463,86.732-127.465,86.962-127.504l0,0l1.044-0.35l0.544,0.957c34.167,60.514,45.161,111.857,45.161,152.813l0,0
			c-0.008,69.637-31.753,109.104-34.797,112.74l0,0l-2.592,12.467L664.577,381.125L664.577,381.125z M651.729,369.57
			c5.854,4.223,10.321,6.984,12.55,8.299l0,0l1.989-9.58l0.23-0.266c0-0.01,2.098-2.389,5.313-7.17l0,0
			c3.218-4.793,7.525-11.941,11.824-21.35l0,0c8.605-18.816,17.231-46.656,17.231-82.729l0,0c0-40.256-10.723-90.768-44.248-150.508
			l0,0c-1.654,0.643-5.225,2.135-10.055,4.818l0,0c-6.789,3.77-16.028,9.869-25.74,19.152l0,0
			c-19.408,18.568-40.74,49.84-48.332,100.904l0,0C574.792,304.963,626.14,351.098,651.729,369.57L651.729,369.57z M656.056,105.281
			l1.154-0.662L656.056,105.281L656.056,105.281z"/>
	</g>
	<g>
		<radialGradient id="SVGID_2_" cx="614.1802" cy="227.7852" r="92.2537" gradientUnits="userSpaceOnUse">
			<stop  offset="0" style="stop-color:#B991C3"/>
			<stop  offset="1" style="stop-color:#783E98"/>
		</radialGradient>
		<path fill="url(#SVGID_2_)" d="M623.066,317.746c1.986,12.898,3.394,23.881,4.307,33.205
			c-25.393-24.459-54.514-64.396-56.224-119.898c15.236-102.816,86.061-126.434,86.061-126.434S604.282,187.266,623.066,317.746z"/>
		<path fill="#4A246C" d="M626.452,351.91c-25.548-24.596-54.92-64.848-56.635-120.82l0,0v-0.121l0.015-0.121
			c15.314-103.451,86.737-127.453,86.97-127.5l0,0l3.586-1.197l-2.038,3.186c-0.01,0.018-2.349,3.656-5.903,10.721l0,0
			c-3.558,7.078-8.309,17.541-13.062,31.049l0,0c-9.502,27.021-19.013,66.24-19.013,115.016l0,0c0,17.313,1.195,35.824,4.023,55.432
			l0,0l0,0c1.982,12.904,3.394,23.908,4.308,33.256l0,0l0.36,3.625L626.452,351.91L626.452,351.91z M625.667,347.398
			c-0.908-8.473-2.189-18.227-3.92-29.445l0,0l1.319-0.207l-1.319,0.197c-2.849-19.738-4.051-38.387-4.051-55.822l0,0
			c0.01-84.65,28.438-140.787,36.364-154.791l0,0c-1.875,0.832-4.429,2.053-7.496,3.754l0,0c-6.798,3.771-16.038,9.871-25.74,19.154
			l0,0c-19.408,18.566-40.732,49.828-48.332,100.881l0,0C574.152,284.182,601.099,322.912,625.667,347.398L625.667,347.398z"/>
	</g>
	<g>
		<radialGradient id="SVGID_3_" cx="363.3203" cy="242.2813" r="107.8062" gradientUnits="userSpaceOnUse">
			<stop  offset="0" style="stop-color:#B991C3"/>
			<stop  offset="1" style="stop-color:#783E98"/>
		</radialGradient>
		<path fill="url(#SVGID_3_)" d="M342.775,104.619c0,0,70.835,23.617,86.07,126.434c-3.048,99.393-94.066,148.891-94.066,148.891
			l-2.278-11.035C332.501,368.908,247.959,272.551,342.775,104.619z"/>
		<path fill="#4A246C" d="M331.25,369.516c-3.054-3.645-34.789-43.109-34.797-112.75l0,0c0-40.945,10.983-92.295,45.156-152.803l0,0
			l0.541-0.957l1.045,0.342c0.233,0.047,71.66,24.049,86.969,127.5l0,0l0.014,0.131v0.111
			c-3.142,100.275-94.657,149.943-94.766,150.035l0,0l-1.58,0.857L331.25,369.516L331.25,369.516z M299.129,256.766
			c0,54.115,19.404,89.715,29.054,104.076l0,0c3.218,4.793,5.316,7.182,5.316,7.186l0,0l0.234,0.258l1.979,9.58
			c2.233-1.316,6.7-4.072,12.555-8.285l0,0c8.522-6.16,19.931-15.406,31.428-27.725l0,0c22.975-24.637,46.271-61.521,47.809-110.736
			l0,0c-11.407-76.582-53.696-108.693-74.069-120.033l0,0c-4.836-2.684-8.392-4.184-10.048-4.818l0,0
			C309.851,166.004,299.129,216.516,299.129,256.766L299.129,256.766z"/>
	</g>
	<g>
		<radialGradient id="SVGID_4_" cx="385.8101" cy="227.7852" r="92.2548" gradientUnits="userSpaceOnUse">
			<stop  offset="0" style="stop-color:#B991C3"/>
			<stop  offset="1" style="stop-color:#783E98"/>
		</radialGradient>
		<path fill="url(#SVGID_4_)" d="M376.925,317.746c-1.982,12.898-3.39,23.881-4.303,33.205
			c25.39-24.459,54.519-64.396,56.224-119.898c-15.235-102.816-86.07-126.434-86.07-126.434S395.713,187.266,376.925,317.746z"/>
		<path fill="#4A246C" d="M371.284,350.809c0.918-9.348,2.336-20.352,4.322-33.256l0,0l0,0c2.816-19.607,4.009-38.119,4.009-55.432
			l0,0c0.009-73.156-21.399-124.842-32.064-146.064l0,0c-3.562-7.064-5.893-10.703-5.893-10.721l0,0l-2.033-3.18l3.571,1.191
			c0.233,0.047,71.66,24.049,86.969,127.5l0,0l0.014,0.131v0.111c-1.715,55.973-31.096,96.225-56.635,120.82l0,0l-2.618,2.52
			L371.284,350.809L371.284,350.809z M378.248,317.953c-1.728,11.219-3.015,20.98-3.92,29.449l0,0
			c24.559-24.479,51.511-63.201,53.174-116.26l0,0c-11.394-76.594-53.692-108.717-74.069-120.059l0,0
			c-3.067-1.701-5.624-2.93-7.507-3.762l0,0c7.921,13.986,36.368,70.131,36.368,154.799l0,0c0,17.436-1.207,36.084-4.046,55.822l0,0
			l-1.323-0.197L378.248,317.953L378.248,317.953z"/>
	</g>
	<g>
		<radialGradient id="SVGID_5_" cx="499.998" cy="490.2197" r="250.0856" gradientUnits="userSpaceOnUse">
			<stop  offset="0" style="stop-color:#B991C3"/>
			<stop  offset="1" style="stop-color:#783E98"/>
		</radialGradient>
		<path fill="url(#SVGID_5_)" d="M509.84,221.912c0,0,8.759,0,25.64-11.299c13.175-8.811,24.629-8.633,28.694-2.797
			c4.059,5.838,5.345,24.955,15.484,41.381c15.101,24.504,58.141,60.68,66.14,110.184c19.79,1.533,35.787,19.43,41.502,66.268
			c-1.901,4.186-7.235,10.664-7.235,10.664s14.097,95.965,15.617,100.531c1.52,4.568,13.335,5.717,11.421,28.943
			c-1.896,23.234-21.072,63.727-31.729,77.428c-10.665,13.717-31.482,34.537-58.395,60.943
			c-26.905,26.396-105.256,72.604-116.98,72.604c-11.721,0-90.072-46.207-116.98-72.604c-26.91-26.406-47.736-47.227-58.397-60.943
			c-10.658-13.701-29.828-54.193-31.729-77.428c-1.906-23.227,9.901-24.375,11.427-28.943c1.52-4.566,15.613-100.531,15.613-100.531
			s-5.333-6.479-7.235-10.664c5.715-46.838,21.705-64.734,41.51-66.268c7.99-49.504,51.026-85.68,66.127-110.184
			c10.135-16.426,11.431-35.543,15.492-41.381c4.064-5.836,15.514-6.014,28.685,2.797c16.89,11.299,25.646,11.299,25.646,11.299
			H509.84z"/>
		<path fill="#4A246C" d="M446.505,751.502c-24.476-14.893-50.802-33.035-64.429-46.393l0,0
			c-26.918-26.418-47.743-47.225-58.509-61.068l0,0c-10.871-14.053-30.005-54.393-32.01-78.141l0,0
			c-0.143-1.764-0.205-3.404-0.205-4.932l0,0c-0.186-18.986,11.259-21.734,11.693-24.545l0,0c0.66-1.875,4.639-27.291,8.331-51.756
			l0,0c3.37-22.352,6.592-44.178,7.147-47.973l0,0c-1.25-1.563-5.31-6.715-7.049-10.5l0,0l-0.15-0.33l0.043-0.381
			c5.571-46.191,21.444-65.18,41.682-67.342l0,0c8.561-49.588,51.422-85.633,66.146-109.646l0,0
			c10.004-16.166,11.105-34.814,15.534-41.445l0,0c2.163-3.109,6.038-4.727,10.694-4.713l0,0c5.605,0,12.486,2.246,19.834,7.168l0,0
			c8.345,5.584,14.656,8.354,18.83,9.723l0,0c4.171,1.371,6.064,1.354,6.064,1.354l0,0h19.689v1.33v1.338h-19.689
			c-0.278,0.006-9.324-0.105-26.381-11.525l0,0c-7.018-4.701-13.474-6.721-18.347-6.705l0,0c-4.092,0-6.964,1.361-8.499,3.563l0,0
			c-3.696,5.061-5.188,24.625-15.448,41.322l0,0c-15.391,24.822-58.094,60.803-65.96,109.689l0,0l-0.168,1.035l-1.047,0.084
			c-18.808,1.439-34.434,18.305-40.239,64.719l0,0c1.888,3.91,6.885,10.023,6.905,10.027l0,0l0.373,0.459l-0.095,0.59
			c-0.018,0.102-14.028,95.732-15.664,100.768l0,0c-2.387,5.629-11.386,5.477-11.563,23.693l0,0c0,1.453,0.062,3.014,0.207,4.719
			l0,0c1.804,22.691,20.997,63.348,31.458,76.711l0,0c10.546,13.582,31.366,34.416,58.276,60.799l0,0
			c13.277,13.049,39.581,31.209,63.936,46.025l0,0c24.214,14.811,47.198,26.357,52.104,26.195l0,0
			c4.898,0.162,27.893-11.385,52.097-26.195l0,0c24.364-14.816,50.663-32.977,63.944-46.025l0,0
			c26.905-26.383,47.716-47.217,58.277-60.799l0,0c10.452-13.363,29.654-54.02,31.455-76.711l0,0
			c0.14-1.705,0.195-3.266,0.195-4.725l0,0c-0.159-18.211-9.17-18.051-11.552-23.699l0,0
			c-1.633-5.016-15.642-100.654-15.675-100.756l0,0l-0.083-0.59l0.382-0.459c0-0.014,4.998-6.111,6.89-10.02l0,0
			c-5.798-46.422-21.426-63.287-40.241-64.727l0,0l-1.044-0.084l-0.164-1.035c-7.863-48.887-50.568-84.867-65.957-109.689l0,0
			c-10.263-16.697-11.753-36.262-15.445-41.322l0,0c-1.529-2.201-4.419-3.563-8.51-3.563l0,0
			c-4.882-0.016-11.333,2.004-18.339,6.705l0,0c-17.051,11.42-26.1,11.531-26.388,11.525l0,0v-1.338v-1.33
			c0-0.018,0.405,0,1.417-0.162l0,0c1.012-0.17,2.574-0.512,4.648-1.191l0,0c4.182-1.369,10.48-4.139,18.834-9.723l0,0
			c7.348-4.916,14.22-7.168,19.827-7.168l0,0c4.653-0.014,8.528,1.604,10.705,4.713l0,0c4.422,6.631,5.523,25.279,15.524,41.445l0,0
			c14.723,24.014,57.594,60.059,66.141,109.643l0,0c20.243,2.154,36.122,21.145,41.693,67.346l0,0l0.047,0.381l-0.154,0.342
			c-1.735,3.773-5.801,8.926-7.049,10.488l0,0c0.554,3.787,3.766,25.621,7.15,47.973l0,0c3.692,24.465,7.665,49.867,8.327,51.756
			l0,0c0.433,2.816,11.869,5.559,11.696,24.539l0,0c0,1.533-0.07,3.164-0.21,4.938l0,0c-2.005,23.748-21.146,64.088-32.008,78.141
			l0,0c-10.77,13.844-31.59,34.65-58.519,61.068l0,0c-13.614,13.357-39.954,31.5-64.421,46.393l0,0
			c-24.625,14.889-46.666,26.438-53.491,26.602l0,0C493.174,777.939,471.13,766.391,446.505,751.502L446.505,751.502z"/>
	</g>
	<g>
		<radialGradient id="SVGID_6_" cx="499.9971" cy="611.6777" r="169.8736" gradientUnits="userSpaceOnUse">
			<stop  offset="0" style="stop-color:#B991C3"/>
			<stop  offset="1" style="stop-color:#783E98"/>
		</radialGradient>
		<path fill="url(#SVGID_6_)" d="M630.051,583.809c-13.628-12.111-11.217-26.523-11.217-26.523l-12.271-16.883
			c0,0-11.413-44.775-12.428-55.326c-1.018-10.559-21.4-38.482-94.136-38.482c-72.743,0-93.116,27.924-94.137,38.482
			c-1.018,10.551-12.43,55.326-12.43,55.326l-12.271,16.883c0,0,2.417,14.412-11.212,26.523
			c-25.067,22.287-51.511,33.654-42.782,62.574c11.245,13.662,30.928,33.322,55.851,57.775
			c26.908,26.396,105.26,72.604,116.98,72.604c11.724,0,90.075-46.207,116.98-72.604c24.923-24.463,44.615-44.113,55.851-57.777
			C681.548,617.463,655.113,606.096,630.051,583.809z"/>
		<path fill="#4A246C" d="M446.505,751.502c-24.476-14.893-50.802-33.035-64.429-46.393l0,0
			c-24.933-24.467-44.617-44.117-55.944-57.875l0,0l-0.168-0.209l-0.08-0.256c-1.197-3.965-1.756-7.648-1.756-11.082l0,0
			c0.186-22.598,23.491-33.684,44.932-52.871l0,0c9.702-8.643,10.918-18.371,10.928-22.871l0,0c0-1.588-0.149-2.439-0.149-2.439l0,0
			l-0.094-0.557l12.457-17.125c0.905-3.613,11.404-45.064,12.332-54.881l0,0c1.283-11.758,22.43-39.645,95.466-39.691l0,0
			c73.029,0.047,94.178,27.934,95.468,39.691l0,0c0.928,9.816,11.404,51.23,12.327,54.869l0,0l12.457,17.137l-0.098,0.557
			c0.015,0-0.145,0.852-0.145,2.439l0,0c0.006,4.5,1.222,14.232,10.928,22.871l0,0l-0.885,0.992l-0.896,1.002
			c-10.414-9.248-11.833-19.914-11.822-24.865l0,0c0-1.031,0.056-1.813,0.11-2.309l0,0l-12.105-16.662l-0.062-0.246
			c-0.009-0.051-11.412-44.67-12.48-55.529l0,0c-0.755-9.342-20.359-37.326-92.797-37.268l0,0
			c-72.444-0.059-92.048,27.926-92.803,37.268l0,0c-1.065,10.859-12.457,55.479-12.468,55.529l0,0l-0.069,0.25l-12.107,16.658
			c0.047,0.496,0.107,1.277,0.107,2.309l0,0c0.014,4.951-1.412,15.617-11.822,24.865l0,0c-22.012,19.42-44.221,30.57-44.034,50.877
			l0,0c0,3.068,0.485,6.41,1.566,10.053l0,0c11.179,13.559,30.792,33.141,55.59,57.457l0,0
			c13.277,13.049,39.581,31.209,63.936,46.025l0,0c24.214,14.811,47.198,26.357,52.104,26.195l0,0
			c4.898,0.162,27.893-11.385,52.097-26.195l0,0c24.364-14.816,50.663-32.977,63.944-46.025l0,0
			c24.799-24.316,44.406-43.906,55.591-57.465l0,0c1.068-3.635,1.557-6.965,1.557-10.045l0,0
			c0.183-20.307-22.019-31.457-44.033-50.877l0,0l0.896-1.002l0.885-0.992c21.438,19.188,44.746,30.273,44.924,52.871l0,0
			c0,3.441-0.559,7.127-1.748,11.074l0,0l-0.08,0.26l-0.166,0.203c-11.33,13.768-31.013,33.418-55.955,57.885l0,0
			c-13.614,13.357-39.954,31.5-64.421,46.393l0,0c-24.625,14.889-46.666,26.438-53.491,26.602l0,0
			C493.174,777.939,471.13,766.391,446.505,751.502L446.505,751.502z"/>
	</g>
	<g>
		<g>
			<radialGradient id="SVGID_7_" cx="499.998" cy="259.2314" r="53.5781" gradientUnits="userSpaceOnUse">
				<stop  offset="0" style="stop-color:#B991C3"/>
				<stop  offset="1" style="stop-color:#783E98"/>
			</radialGradient>
			<ellipse fill="url(#SVGID_7_)" cx="499.998" cy="259.229" rx="71.209" ry="25.898"/>
			<path fill="#4A246C" d="M449.182,278.797c-12.999-4.781-21.595-11.305-21.734-19.568l0,0c0.139-8.27,8.735-14.791,21.734-19.561
				l0,0c13.09-4.76,31.021-7.664,50.817-7.67l0,0c19.802,0.006,37.714,2.91,50.815,7.67l0,0
				c12.993,4.77,21.589,11.291,21.735,19.561l0,0c-0.146,8.264-8.742,14.787-21.735,19.568l0,0
				c-13.101,4.758-31.013,7.662-50.815,7.67l0,0C480.203,286.459,462.272,283.555,449.182,278.797L449.182,278.797z
				 M450.096,242.176c-12.775,4.602-20.112,11.012-19.977,17.053l0,0c-0.136,6.033,7.207,12.459,19.977,17.057l0,0
				c12.689,4.613,30.368,7.51,49.903,7.502l0,0c19.533,0.008,37.211-2.889,49.902-7.502l0,0
				c12.765-4.598,20.112-11.023,19.972-17.057l0,0c0.141-6.041-7.207-12.451-19.972-17.053l0,0
				c-12.69-4.613-30.369-7.506-49.902-7.506l0,0c-0.021,0-0.039,0-0.057,0l0,0C480.431,234.67,462.772,237.568,450.096,242.176
				L450.096,242.176z"/>
		</g>
		<g>
			<linearGradient id="SVGID_8_" gradientUnits="userSpaceOnUse" x1="455.001" y1="171.0449" x2="544.9995" y2="171.0449">
				<stop  offset="0" style="stop-color:#F17E5F"/>
				<stop  offset="0.5" style="stop-color:#EB2227"/>
				<stop  offset="1" style="stop-color:#CF232B"/>
			</linearGradient>
			<path fill="url(#SVGID_8_)" d="M507.803,79.607c0,0-32.999,57.889-52.802,166.545c0,8.127,50.009,31.352,89.999,1.656
				C522.917,113.754,511.359,79.607,507.803,79.607z"/>
			<path fill="#4A246C" d="M457.685,251.928c-2.349-1.902-3.935-3.617-4.027-5.775l0,0v-0.117l0.028-0.119
				c19.831-108.834,52.896-166.865,52.955-166.969l0,0l0.388-0.678h0.774c1.556,0.172,2.046,1.145,2.867,2.395l0,0
				c0.766,1.314,1.612,3.221,2.597,5.918l0,0c1.953,5.377,4.429,13.867,7.482,26.545l0,0c6.103,25.346,14.522,67.418,25.572,134.457
				l0,0l0.12,0.801l-0.648,0.496c-14.951,11.092-31.296,14.941-45.939,14.941l0,0C480.903,263.801,464.847,257.494,457.685,251.928
				L457.685,251.928z M459.335,249.82c2.136,1.67,5.333,3.516,9.302,5.205l0,0c7.939,3.357,19.006,6.125,31.217,6.113l0,0
				c13.978,0,29.446-3.582,43.697-13.928l0,0C524.936,134.279,513.743,92.479,508.8,82.816l0,0c-0.22-0.447-0.429-0.82-0.616-1.113
				l0,0c-2.29,4.273-9.36,18.014-18.113,40.91l0,0c-10.688,27.965-23.854,69.48-33.738,123.674l0,0
				C456.407,246.838,457.35,248.318,459.335,249.82L459.335,249.82z M507.803,80.365v-0.758V80.365L507.803,80.365z"/>
		</g>
	</g>
	<g>
		<path fill="#FFFFFF" d="M590.639,355.383c0,31.865-40.589,57.695-90.64,57.695c-50.062,0-90.64-25.83-90.64-57.695
			c0-31.855,40.579-57.691,90.64-57.691C550.05,297.691,590.639,323.527,590.639,355.383z"/>
		<path fill="#4A246C" d="M408.025,355.383c0.177-33.119,41.554-58.998,91.974-59.023l0,0c50.419,0.025,91.794,25.904,91.971,59.023
			l0,0c-0.177,33.125-41.552,59.01-91.971,59.027l0,0C449.579,414.393,408.202,388.508,408.025,355.383L408.025,355.383z
			 M436.627,315.713c-16.164,10.295-25.935,24.342-25.926,39.67l0,0c-0.009,15.332,9.762,29.379,25.926,39.67l0,0
			c16.135,10.279,38.569,16.689,63.372,16.689l0,0c24.792,0,47.225-6.41,63.37-16.689l0,0c16.155-10.291,25.936-24.338,25.926-39.67
			l0,0c0.01-15.328-9.771-29.375-25.926-39.67l0,0c-16.145-10.271-38.578-16.686-63.37-16.686l0,0
			C475.197,299.027,452.762,305.441,436.627,315.713L436.627,315.713z"/>
	</g>
	<g>
		<radialGradient id="SVGID_9_" cx="499.9976" cy="371.5752" r="42.4552" gradientUnits="userSpaceOnUse">
			<stop  offset="0" style="stop-color:#F17E5F"/>
			<stop  offset="0.5" style="stop-color:#EB2227"/>
			<stop  offset="1" style="stop-color:#CF232B"/>
		</radialGradient>
		<ellipse fill="url(#SVGID_9_)" cx="499.998" cy="371.574" rx="50.648" ry="32.244"/>
		<path fill="#4A246C" d="M448.008,371.574c0.176-19.074,23.659-33.547,51.991-33.586l0,0c28.334,0.039,51.807,14.512,51.981,33.586
			l0,0c-0.174,19.059-23.647,33.545-51.981,33.576l0,0C471.667,405.119,448.184,390.633,448.008,371.574L448.008,371.574z
			 M464.896,349.9c-8.927,5.684-14.218,13.375-14.214,21.674l0,0c-0.004,8.301,5.287,15.979,14.214,21.672l0,0
			c8.905,5.672,21.349,9.23,35.103,9.23l0,0c13.752,0,26.189-3.559,35.095-9.23l0,0c8.923-5.693,14.224-13.371,14.21-21.672l0,0
			c0.014-8.299-5.287-15.99-14.21-21.674l0,0c-8.906-5.672-21.343-9.232-35.095-9.232l0,0
			C486.246,340.668,473.801,344.229,464.896,349.9L464.896,349.9z"/>
	</g>
	<path fill="#010101" d="M529.276,370.682c0,10.287-13.11,18.631-29.277,18.631c-16.169,0-29.278-8.344-29.278-18.631
		c0-10.295,13.108-18.643,29.278-18.643C516.166,352.039,529.276,360.387,529.276,370.682z"/>
	<path opacity="0.2" fill="#010101" d="M554.475,621.869c2.083,14.451-20.622,29.684-50.709,34.008
		c-30.085,4.346-56.159-3.855-58.242-18.305c-2.085-14.443,20.619-29.666,50.707-34.002
		C526.32,599.232,552.4,607.428,554.475,621.869z"/>
	<path opacity="0.2" fill="#010101" d="M512.18,669.477c0,6.586-5.451,11.939-12.181,11.939c-6.728,0-12.182-5.354-12.182-11.939
		c0-6.588,5.455-11.928,12.182-11.928C506.729,657.549,512.18,662.889,512.18,669.477z"/>
	<g>
		<g>
			<path fill="#4A246C" d="M354.043,477.816c0-27.518,18.601-37.656,18.793-37.732l0,0l1.258,2.354
				c0.009,0.012-1.002,0.539-2.619,1.809l0,0c-1.633,1.279-3.804,3.256-5.996,6.053l0,0c-4.364,5.59-8.751,14.402-8.756,27.518l0,0
				H354.043L354.043,477.816z"/>
		</g>
		<g>
			<path fill="#4A246C" d="M643.268,477.816c-0.008-19.652-9.865-29.719-14.737-33.57l0,0c-1.633-1.27-2.63-1.809-2.633-1.809l0,0
				h0.003l1.26-2.354c0.195,0.076,18.788,10.215,18.788,37.732l0,0H643.268L643.268,477.816z"/>
		</g>
		<g>
			<g>
				<radialGradient id="SVGID_10_" cx="500.04" cy="511.334" r="104.0397" gradientUnits="userSpaceOnUse">
					<stop  offset="0" style="stop-color:#7C1315"/>
					<stop  offset="1" style="stop-color:#0E0808"/>
				</radialGradient>
				<path fill="url(#SVGID_10_)" d="M500.043,564.268C618.686,560.76,637.323,458.4,637.323,458.4s-49.776,45.697-137.279,45.697
					c-87.504,0-137.286-45.697-137.286-45.697S381.41,560.76,500.043,564.268z"/>
				<path fill="#4A246C" d="M500.055,564.268l-0.047,1.332c-59.721-1.738-94.509-28.494-114.164-54.783l0,0
					c-19.684-26.279-24.373-52.055-24.401-52.182l0,0l-0.708-3.9l2.926,2.676c0.02,0,3.032,2.793,9.017,7.037l0,0
					c5.978,4.246,14.882,9.922,26.5,15.594l0,0c23.237,11.355,57.343,22.713,100.878,22.713l0,0
					c65.259,0,109.395-25.564,127.353-38.307l0,0c5.981-4.244,9.001-7.027,9.016-7.037l0,0l2.922-2.691l-0.708,3.916
					c-0.02,0.127-4.709,25.902-24.392,52.182l0,0c-19.665,26.289-54.443,53.045-114.164,54.783l0,0L500.055,564.268L500.055,564.268
					z M368.78,473.979c3.571,9.561,9.553,22.344,19.203,35.242l0,0c19.32,25.75,53.162,51.934,112.052,53.707l0,0
					c88.304-2.66,120.505-60.246,131.265-88.949l0,0c1.898-5.076,3.106-9.219,3.822-11.988l0,0
					c-12.171,9.744-59.709,43.434-135.067,43.443l0,0c-75.367-0.01-122.911-33.688-135.089-43.443l0,0
					C365.68,464.76,366.887,468.912,368.78,473.979L368.78,473.979z"/>
			</g>
			<g>
				<path fill="#FFFFFF" d="M500.043,504.098c-15.318,0-29.453-1.426-42.4-3.73v7.469c0,16.828,13.637,30.463,30.467,30.463h23.864
					c16.821,0,30.467-13.635,30.467-30.463v-7.469C529.499,502.672,515.364,504.098,500.043,504.098z"/>
				<path fill="#4A246C" d="M488.11,539.641c-17.566,0-31.804-14.236-31.804-31.809l0,0v-9.063l1.574,0.275
					c12.865,2.299,26.929,3.709,42.155,3.709l0,0v1.344v1.336c-14.774,0-28.471-1.322-41.055-3.477l0,0v5.875
					c0.029,16.09,13.045,29.096,29.129,29.135l0,0l23.864-0.006c16.084-0.033,29.097-13.039,29.135-29.129l0,0v-5.875
					c-12.593,2.154-26.286,3.477-41.074,3.477l0,0v-1.336v-1.344c15.236,0,29.297-1.41,42.174-3.709l0,0l1.565-0.279v9.066
					c0,17.572-14.238,31.809-31.801,31.809l0,0H488.11L488.11,539.641z"/>
			</g>
		</g>
		<g>
			<g>
				<path fill="#FFFFFF" d="M402.748,483.467c-1.71,13.07-9.455,53.371-41.344,77.371c0,0,52.719-2.645,77.733-64.422
					C425.219,492.773,413.037,488.182,402.748,483.467z"/>
				<path fill="#4A246C" d="M360.598,559.766c31.398-23.584,39.147-63.541,40.827-76.479l0,0l0.236-1.791l1.642,0.75
					c10.224,4.688,22.332,9.248,36.172,12.875l0,0l1.474,0.381l-0.579,1.418c-25.281,62.461-78.704,65.275-78.899,65.248l0,0
					l-4.354,0.221L360.598,559.766L360.598,559.766z M365.964,558.91c1.085-0.191,2.355-0.428,3.772-0.756l0,0
					c5.245-1.188,12.502-3.418,20.545-7.553l0,0c15.823-8.139,34.629-23.617,47.039-53.291l0,0
					c-12.666-3.414-23.868-7.572-33.5-11.898l0,0C401.741,499.576,393.941,535.354,365.964,558.91L365.964,558.91z M402.197,484.67
					l0.551-1.203L402.197,484.67L402.197,484.67z"/>
			</g>
			<g>
				<path fill="#FFFFFF" d="M597.333,483.467c1.725,13.07,9.455,53.371,41.351,77.371c0,0-52.722-2.645-77.73-64.422
					C574.866,492.773,587.053,488.182,597.333,483.467z"/>
				<path fill="#4A246C" d="M638.61,562.168c-0.196,0.027-53.612-2.787-78.9-65.248l0,0l-0.57-1.418l1.474-0.381
					c13.832-3.633,25.94-8.188,36.164-12.879l0,0l1.645-0.746l0.238,1.791c1.684,12.938,9.423,52.895,40.816,76.479l0,0l3.502,2.633
					L638.61,562.168L638.61,562.168z M630.349,558.154c1.412,0.328,2.681,0.576,3.772,0.76l0,0
					c-27.978-23.557-35.764-59.34-37.862-73.502l0,0c-9.626,4.326-20.829,8.484-33.491,11.898l0,0
					C581.454,542.021,614.759,554.586,630.349,558.154L630.349,558.154z"/>
			</g>
		</g>
	</g>
	<g>
		<path fill="#4A246C" d="M484.344,433.266c-1.829,2.58-6.52,2.396-10.49-0.414c-3.972-2.805-5.715-7.162-3.889-9.744
			c1.818-2.57,6.513-2.385,10.48,0.42C484.421,426.326,486.151,430.691,484.344,433.266z"/>
		<path fill="#4A246C" d="M515.662,433.266c1.819,2.58,6.509,2.396,10.481-0.414c3.971-2.805,5.716-7.162,3.887-9.744
			c-1.818-2.57-6.507-2.385-10.48,0.42C515.58,426.326,513.834,430.691,515.662,433.266z"/>
	</g>
	<path fill="#4A246C" d="M394.906,688.689c0,0,7.992,13.898,50.644,3.615C445.55,692.305,396.612,711.912,394.906,688.689z"/>
	<path fill="#4A246C" d="M436.231,700.043c0,0,4.568,16.381,34.136,13.213C470.367,713.256,434.572,723.402,436.231,700.043z"/>
	<g>
		<radialGradient id="SVGID_11_" cx="376.7344" cy="803.0332" r="88.0655" gradientUnits="userSpaceOnUse">
			<stop  offset="0" style="stop-color:#B991C3"/>
			<stop  offset="1" style="stop-color:#783E98"/>
		</radialGradient>
		<path fill="url(#SVGID_11_)" d="M413.563,698.211c0,0-23.607,146.041-27.99,150.428c-4.373,4.375-60.168,19.221-65.12,27.213
			c-4.95,8-8.559,24.568-5.52,25.322c3.041,0.773,17.708,3.814,31.993,1.908c0,0-6.481,7.623,14.656,7.43
			c21.139-0.191,49.893-2.67,59.604-9.135c9.703-6.475,3.613-22.283,4.952-37.896c1.328-15.617,12.563-142.996,13.514-155.557
			c0,0-3.749-10.92-7.299-12.129C428.8,694.598,413.563,698.211,413.563,698.211z"/>
		<path fill="#4A246C" d="M348.183,910.053c-2.461-1.045-3.585-2.895-3.535-4.514l0,0c0-0.313,0.038-0.592,0.085-0.863l0,0
			c-2.591,0.252-5.161,0.359-7.655,0.359l0,0c-10.78-0.006-20.033-1.949-22.477-2.564l0,0c-2.073-0.801-2.036-2.654-2.13-4.539l0,0
			c0.041-5.801,2.984-16.479,6.845-22.779l0,0c2.554-3.791,11.431-7.377,22.293-11.518l0,0c10.801-4.037,23.33-8.1,32.186-11.279
			l0,0c5.837-2.063,10.313-4.027,10.83-4.674l0,0l0.005-0.016c0.047-0.078,0.103-0.213,0.178-0.373l0,0
			c0.148-0.342,0.332-0.844,0.521-1.475l0,0c0.396-1.26,0.878-3.029,1.405-5.225l0,0c1.054-4.371,2.335-10.43,3.752-17.57l0,0
			c2.815-14.293,6.182-32.953,9.409-51.479l0,0c6.444-37.049,12.336-73.477,12.349-73.551l0,0l0.145-0.883l0.866-0.205
			c0.057,0,11.171-2.674,16.938-2.695l0,0c0.983,0.006,1.822,0.063,2.586,0.314l0,0c2.663,1.064,4.253,4.252,5.763,7.213l0,0
			c1.417,2.961,2.36,5.719,2.369,5.748l0,0l0.092,0.262l-0.021,0.273c-0.952,12.584-12.182,139.959-13.516,155.576l0,0
			c-0.139,1.637-0.21,3.293-0.21,4.93l0,0c0,6.475,0.884,12.879,0.89,18.578l0,0c0.018,6.242-1.109,11.967-6.218,15.383l0,0
			c-10.445,6.826-39.031,9.109-60.347,9.354l0,0c-0.264,0-0.531,0-0.787,0.012l0,0C354.487,911.834,350.626,911.158,348.183,910.053
			L348.183,910.053z M347.932,903.941c0.018,0.023-0.127,0.17-0.298,0.482l0,0c-0.172,0.322-0.317,0.75-0.317,1.115l0,0
			c0.047,0.539,0.121,1.174,1.967,2.074l0,0c1.837,0.846,5.398,1.564,11.511,1.564l0,0c0.256,0,0.523,0,0.774,0l0,0
			c20.983-0.135,49.888-2.807,58.875-8.916l0,0c3.981-2.65,5.013-7.096,5.037-13.156l0,0c0-5.424-0.887-11.869-0.892-18.578l0,0
			c0-1.703,0.061-3.428,0.21-5.16l0,0c1.325-15.508,12.416-141.246,13.498-155.277l0,0c-0.266-0.725-1.077-2.92-2.168-5.201l0,0
			c-1.26-2.803-3.31-5.682-4.201-5.828l0,0c-0.246-0.094-0.899-0.188-1.734-0.178l0,0c-4.247-0.016-12.723,1.811-15.454,2.42l0,0
			c-1.837,11.336-20.873,128.324-26.854,147.316l0,0c-0.477,1.398-0.687,2.188-1.367,2.957l0,0c-1.29,1.213-3.846,2.248-7.677,3.752
			l0,0c-3.795,1.461-8.7,3.158-14.063,4.994l0,0c-10.703,3.674-23.239,7.908-32.147,11.748l0,0c-5.913,2.49-10.309,5.115-11.04,6.49
			l0,0c-3.525,5.613-6.48,16.389-6.443,21.371l0,0c-0.029,1.043,0.172,1.77,0.27,1.994l0,0c2.49,0.611,11.445,2.441,21.661,2.432
			l0,0c3.15,0,6.424-0.174,9.669-0.594l0,0l3.45-0.469L347.932,903.941L347.932,903.941z"/>
	</g>
	<g>
		<radialGradient id="SVGID_12_" cx="360.3486" cy="892.4238" r="12.4169" gradientUnits="userSpaceOnUse">
			<stop  offset="0" style="stop-color:#B991C3"/>
			<stop  offset="1" style="stop-color:#783E98"/>
		</radialGradient>
		<path fill="url(#SVGID_12_)" d="M374.15,881.566c0,0-5.425,2.189-11.514,8.482c-6.103,6.277-12.672,11.521-16.089,13.232"/>
		<path fill="#4A246C" d="M345.946,902.082c3.133-1.551,9.73-6.771,15.729-12.969l0,0c6.256-6.461,11.85-8.73,11.972-8.789l0,0
			h0.009l0.994,2.484c0.003,0.008-1.222,0.488-3.259,1.768l0,0c-2.042,1.291-4.834,3.338-7.795,6.398l0,0
			c-6.2,6.373-12.747,11.621-16.457,13.504l0,0L345.946,902.082L345.946,902.082z"/>
	</g>
	<path fill="#4A246C" d="M331.493,891.473c-4.382-0.879-18.079,5.424-23.128,23.902
		C308.365,915.375,341.021,893.381,331.493,891.473z"/>
	<path fill="#4A246C" d="M380.407,900.941c-3.813-0.762-15.72,4.717-20.116,20.789C360.291,921.73,388.687,902.596,380.407,900.941z
		"/>
	<path fill="#4A246C" d="M612.325,688.689c0,0-8.005,13.898-50.648,3.615C561.677,692.305,610.61,711.912,612.325,688.689z"/>
	<path fill="#4A246C" d="M571.002,700.043c0,0-4.57,16.381-34.146,13.213C536.856,713.256,572.656,723.402,571.002,700.043z"/>
	<g>
		<radialGradient id="SVGID_13_" cx="630.4971" cy="803.0332" r="88.0659" gradientUnits="userSpaceOnUse">
			<stop  offset="0" style="stop-color:#B991C3"/>
			<stop  offset="1" style="stop-color:#783E98"/>
		</radialGradient>
		<path fill="url(#SVGID_13_)" d="M593.662,698.211c0,0,23.606,146.041,27.987,150.428c4.383,4.375,60.177,19.221,65.12,27.213
			c4.956,8,8.573,24.568,5.529,25.322c-3.059,0.773-17.716,3.814-31.99,1.908c0,0,6.479,7.623-14.658,7.43
			c-21.137-0.191-49.893-2.67-59.6-9.135c-9.715-6.475-3.623-22.283-4.956-37.896c-1.33-15.617-12.565-142.996-13.516-155.557
			c0,0,3.739-10.92,7.295-12.129C578.423,694.598,593.662,698.211,593.662,698.211z"/>
		<path fill="#4A246C" d="M645.632,911.842c-21.287-0.244-49.885-2.527-60.327-9.354l0,0c-5.12-3.422-6.247-9.145-6.224-15.391l0,0
			c0-5.695,0.875-12.096,0.875-18.559l0,0c0-1.648-0.06-3.305-0.201-4.941l0,0c-1.332-15.617-12.558-142.992-13.514-155.576l0,0
			l-0.02-0.273l0.085-0.262c0.018-0.029,0.965-2.787,2.382-5.76l0,0c1.5-2.949,3.095-6.137,5.756-7.201l0,0
			c0.766-0.252,1.604-0.309,2.588-0.314l0,0c5.762,0.021,16.882,2.695,16.933,2.695l0,0l-0.308,1.305l0.308-1.305l0.872,0.205
			l0.143,0.883c0.011,0.041,3.212,19.898,7.492,45.223l0,0c4.275,25.324,9.618,56.074,13.865,77.77l0,0
			c2.785,14.361,5.278,25.09,6.252,26.68l0,0v0.016c0.354,0.443,3.058,1.771,6.751,3.154l0,0c3.73,1.424,8.616,3.123,13.972,4.959
			l0,0c10.708,3.672,23.26,7.906,32.342,11.814l0,0c6.079,2.684,10.507,4.912,12.247,7.543l0,0
			c3.864,6.301,6.807,16.979,6.849,22.779l0,0c-0.094,1.885-0.065,3.738-2.127,4.539l0,0c-2.447,0.615-11.7,2.559-22.48,2.559l0,0
			c-2.5,0-5.072-0.102-7.665-0.354l0,0c0.057,0.271,0.089,0.551,0.095,0.863l0,0c0.047,1.619-1.082,3.469-3.529,4.514l0,0
			c-2.466,1.105-6.309,1.781-12.619,1.789l0,0C646.167,911.842,645.907,911.842,645.632,911.842L645.632,911.842z M582.427,863.367
			c0.145,1.732,0.2,3.457,0.2,5.172l0,0c0,6.686-0.884,13.139-0.875,18.559l0,0c0.018,6.059,1.048,10.508,5.038,13.164l0,0
			c8.972,6.109,37.89,8.781,58.85,8.916l0,0c0.267,0,0.527,0,0.785,0l0,0c6.105,0,9.667-0.719,11.514-1.564l0,0
			c1.846-0.9,1.922-1.535,1.967-2.074l0,0c0-0.373-0.145-0.793-0.317-1.115l0,0c-0.172-0.32-0.302-0.482-0.302-0.482l0,0
			l-2.233-2.645l3.431,0.467c3.225,0.42,6.499,0.594,9.659,0.594l0,0c10.215,0.01,19.185-1.826,21.66-2.432l0,0
			c0.018-0.047,0.042-0.094,0.062-0.178l0,0c0.121-0.336,0.208-0.984,0.208-1.816l0,0c0.038-4.982-2.918-15.758-6.442-21.371l0,0
			c-1.151-2.211-10.293-6.549-20.951-10.426l0,0c-10.724-4-23.236-8.061-32.154-11.273l0,0c-6.01-2.205-10.155-3.746-11.817-5.285
			l0,0c-0.682-0.77-0.887-1.559-1.373-2.957l0,0c-0.42-1.363-0.908-3.168-1.454-5.396l0,0c-1.064-4.449-2.351-10.52-3.768-17.682
			l0,0c-2.834-14.328-6.192-33.004-9.417-51.537l0,0c-5.86-33.68-11.273-66.906-12.21-72.695l0,0
			c-1.095-0.242-3.092-0.678-5.37-1.117l0,0c-3.447-0.654-7.535-1.322-10.085-1.309l0,0c-0.83-0.01-1.479,0.084-1.725,0.178l0,0
			c-0.896,0.146-2.952,3.025-4.21,5.828l0,0c-1.1,2.289-1.907,4.492-2.168,5.213l0,0
			C570.023,722.16,581.099,847.859,582.427,863.367L582.427,863.367z"/>
	</g>
	<g>
		<radialGradient id="SVGID_14_" cx="646.8809" cy="892.4238" r="12.421" gradientUnits="userSpaceOnUse">
			<stop  offset="0" style="stop-color:#B991C3"/>
			<stop  offset="1" style="stop-color:#783E98"/>
		</radialGradient>
		<path fill="url(#SVGID_14_)" d="M633.072,881.566c0,0,5.425,2.189,11.524,8.482c6.089,6.277,12.662,11.521,16.094,13.232"/>
		<path fill="#4A246C" d="M643.645,890.975c-2.965-3.061-5.763-5.107-7.808-6.398l0,0c-2.043-1.279-3.259-1.768-3.259-1.768l0,0
			l0.998-2.484c0.122,0.059,5.715,2.328,11.981,8.789l0,0c5.987,6.197,12.589,11.418,15.731,12.969l0,0l-1.189,2.396
			C656.373,902.596,649.827,897.336,643.645,890.975L643.645,890.975z"/>
	</g>
	<path fill="#4A246C" d="M675.729,891.473c4.393-0.879,18.09,5.424,23.139,23.902C698.867,915.375,666.209,893.381,675.729,891.473z
		"/>
	<path fill="#4A246C" d="M626.82,900.941c3.813-0.762,15.724,4.717,20.107,20.789C646.928,921.73,618.535,902.596,626.82,900.941z"
		/>
	<path fill="#FFFFFF" d="M527.126,356.387c0,4.605-3.734,8.336-8.341,8.336c-4.605,0-8.335-3.73-8.335-8.336
		c0-4.607,3.73-8.336,8.335-8.336C523.392,348.051,527.126,351.779,527.126,356.387z"/>
	<path fill="#FFFFFF" d="M488.799,386.438c0,2.443-1.976,4.412-4.41,4.412c-2.433,0-4.409-1.969-4.409-4.412
		c0-2.434,1.976-4.408,4.409-4.408C486.823,382.029,488.799,384.004,488.799,386.438z"/>
</g>
</svg>
